<?xml version="1.0" encoding="UTF-8" standalone="no"?>
<!-- Created with Inkscape (http://www.inkscape.org/) -->

<svg
   xmlns:dc="http://purl.org/dc/elements/1.1/"
   xmlns:cc="http://creativecommons.org/ns#"
   xmlns:rdf="http://www.w3.org/1999/02/22-rdf-syntax-ns#"
   xmlns:svg="http://www.w3.org/2000/svg"
   xmlns="http://www.w3.org/2000/svg"
   xmlns:sodipodi="http://sodipodi.sourceforge.net/DTD/sodipodi-0.dtd"
   xmlns:inkscape="http://www.inkscape.org/namespaces/inkscape"
   width="744.09448819"
   height="1052.3622047"
   id="svg2"
   version="1.1"
   inkscape:version="0.48.4 r9939"
   sodipodi:docname="New document 1">
  <defs
     id="defs4" />
  <sodipodi:namedview
     id="base"
     pagecolor="#ffffff"
     bordercolor="#666666"
     borderopacity="1.0"
     inkscape:pageopacity="0.0"
     inkscape:pageshadow="2"
     inkscape:zoom="0.7"
     inkscape:cx="290.39972"
     inkscape:cy="520"
     inkscape:document-units="px"
     inkscape:current-layer="layer1"
     showgrid="false"
     inkscape:window-width="1600"
     inkscape:window-height="824"
     inkscape:window-x="-3"
     inkscape:window-y="-3"
     inkscape:window-maximized="1" />
  <metadata
     id="metadata7">
    <rdf:RDF>
      <cc:Work
         rdf:about="">
        <dc:format>image/svg+xml</dc:format>
        <dc:type
           rdf:resource="http://purl.org/dc/dcmitype/StillImage" />
        <dc:title></dc:title>
      </cc:Work>
    </rdf:RDF>
  </metadata>
  <g
     inkscape:label="Layer 1"
     inkscape:groupmode="layer"
     id="layer1">
    <path
       style="fill:none;stroke:#ff0000;stroke-width:15.78946304;stroke-linecap:butt;stroke-linejoin:miter;stroke-miterlimit:4;stroke-opacity:1;stroke-dasharray:none"
       d="M -132.83815,-111.1168 C -53.177824,-128.23459 13.550148,21.179601 94.44604,34.424829 175.34193,47.670057 251.06927,-49.022721 309.76786,-19.405636 368.46645,10.21149 390.70279,83.000995 375.56066,140.09202 360.41852,197.18309 292.53599,213.44509 232.01277,251.74038 171.48954,290.03571 84.958428,370.50585 -1.2525928,373.35734 -87.463617,376.20884 -236.99568,394.3539 -242.49278,325.50805 -247.98988,256.6622 -80.950819,187.96169 22.672076,209.87225 126.29497,231.78282 187.73666,386.78048 206.0944,481.01827 224.45214,575.25607 213.1069,671.23512 154.25763,724.25223 95.408368,777.26934 -2.4764341,802.75788 -71.032786,748.17686 -139.58914,693.59588 -80.36803,547.21461 -106.91979,451.11248 -133.47155,355.01034 -174.56197,245.16344 -228.53675,177.97272 -282.51157,110.78204 -406.39008,103.7731 -403.98417,48.380859 -401.57825,-7.0113806 -357.40719,-2.2362916 -306.29188,-11.430772 -255.17661,-20.625214 -191.36338,38.523103 -112.90096,26.449926 -34.438573,14.37675 47.730941,-131.53818 132.3267,-107.12937 216.92246,-82.720555 210.45099,36.699972 253.9437,110.18619 297.43641,183.67244 382.99232,256.34893 393.50416,333.48295 404.01599,410.61696 397.14564,468.78029 335.68622,528.86757 274.2268,588.95485 142.22776,602.74521 34.63441,610.61014 -72.958943,618.4751 -218.35989,635.9405 -298.31698,570.7357 -378.27411,505.5309 -397.74559,392.74645 -388.0344,301.58342 -378.32322,210.42042 -295.15163,141.01401 -252.46142,72.305528 -209.77121,3.5970862 -212.49848,-93.998968 -132.83815,-111.1168 z"
       id="path3969"
       inkscape:connector-curvature="0"
       sodipodi:nodetypes="zzzzzzzzzzzzzzzzzzzzzzzzz" />
  </g>
</svg>
