<?xml version="1.0" encoding="UTF-8" standalone="no"?>
<!-- Created with Inkscape (http://www.inkscape.org/) -->

<svg
   xmlns:dc="http://purl.org/dc/elements/1.1/"
   xmlns:cc="http://creativecommons.org/ns#"
   xmlns:rdf="http://www.w3.org/1999/02/22-rdf-syntax-ns#"
   xmlns:svg="http://www.w3.org/2000/svg"
   xmlns="http://www.w3.org/2000/svg"
   xmlns:sodipodi="http://sodipodi.sourceforge.net/DTD/sodipodi-0.dtd"
   xmlns:inkscape="http://www.inkscape.org/namespaces/inkscape"
   width="210mm"
   height="297mm"
   viewBox="0 0 744.09448819 1052.3622047"
   id="svg2"
   version="1.1"
   inkscape:version="0.91 r13725"
   sodipodi:docname="10_61.svg">
  <defs
     id="defs4" />
  <sodipodi:namedview
     id="base"
     pagecolor="#ffffff"
     bordercolor="#666666"
     borderopacity="1.0"
     inkscape:pageopacity="0.0"
     inkscape:pageshadow="2"
     inkscape:zoom="1.5982422"
     inkscape:cx="-25.439936"
     inkscape:cy="920.43994"
     inkscape:document-units="px"
     inkscape:current-layer="layer1"
     showgrid="false"
     inkscape:window-width="2560"
     inkscape:window-height="1315"
     inkscape:window-x="926"
     inkscape:window-y="14"
     inkscape:window-maximized="0" />
  <metadata
     id="metadata7">
    <rdf:RDF>
      <cc:Work
         rdf:about="">
        <dc:format>image/svg+xml</dc:format>
        <dc:type
           rdf:resource="http://purl.org/dc/dcmitype/StillImage" />
        <dc:title></dc:title>
      </cc:Work>
    </rdf:RDF>
  </metadata>
  <g
     inkscape:label="Layer 1"
     inkscape:groupmode="layer"
     id="layer1">
    <path
       style="fill:none;fill-rule:evenodd;stroke:#000000;stroke-width:2.80206943px;stroke-linecap:butt;stroke-linejoin:miter;stroke-opacity:1"
       d="M  80.5407377052048 , -284.428040105552 C  161.093764794196 , -302.031702549707 228.543845896465 , -252.410471087789 247.014990401712 , -189.422056573758 265.48613490696 , -126.433642059727 237.525066903746 , -89.1791130800916 210.579410041384 , -31.6091445217005 183.633753179022 , 25.9608240366906 153.529458608895 , 92.3520928434416 76.8689553235321 , 89.4443697404359 0.208452038168957 , 86.5366466374302 6.49695700759808 , 37.5895352132352 -66.6129306860764 , 16.9382846266996 -139.722818379751 , -3.71296595983599 -185.288451141587 , 40.2507290540047 -233.060723945126 , 79.5609235310358 -280.832996748665 , 118.871118008067 -319.762144554675 , 140.710115010418 -330.320001668934 , 200.88020066319 -340.877858783193 , 261.050286315962 -304.729079335565 , 336.23319947432 -220.366444594157 , 348.613755955324 -136.003809852748 , 360.994312436328 -128.074965259568 , 303.604939855724 0 , 303.604939855724 128.074965259568 , 303.604939855724 136.003809852748 , 360.994312436328 220.366444594157 , 348.613755955324 304.729079335565 , 336.23319947432 340.877858783193 , 261.050286315962 330.320001668934 , 200.88020066319 319.762144554675 , 140.710115010418 280.832996748665 , 118.871118008067 233.060723945126 , 79.5609235310358 185.288451141587 , 40.2507290540047 139.722818379751 , -3.71296595983599 66.6129306860764 , 16.9382846266996 -6.49695700759807 , 37.5895352132352 -0.20845203816896 , 86.5366466374302 -76.8689553235321 , 89.4443697404359 -153.529458608895 , 92.3520928434416 -183.633753179022 , 25.9608240366906 -210.579410041384 , -31.6091445217005 -237.525066903746 , -89.1791130800916 -265.48613490696 , -126.433642059727 -247.014990401712 , -189.422056573758 -228.543845896465 , -252.410471087789 -161.093764794196 , -302.031702549707 -80.5407377052048 , -284.428040105552 0.0122893837864808 , -266.824377661397 -5.95155877757003 , -224.233516636323 105.239822679317 , -156.320372686525 216.431204136204 , -88.4072287367271 292.411714654941 , -98.5085403825924 315.460735833853 , -0.552847412477527 338.509757012765 , 97.4028455576373 264.798918036541 , 128.47838449136 195.210095790763 , 224.62736390894 125.621273544985 , 320.776343326519 129.988216310681 , 419.567664500647 0 , 419.567664500647 -129.988216310681 , 419.567664500647 -125.621273544985 , 320.776343326519 -195.210095790763 , 224.62736390894 -264.798918036541 , 128.47838449136 -338.509757012765 , 97.4028455576373 -315.460735833853 , -0.552847412477527 -292.411714654941 , -98.5085403825924 -216.431204136204 , -88.4072287367271 -105.239822679317 , -156.320372686525 5.95155877757003 , -224.233516636323 -0.0122893837864808 , -266.824377661397 80.5407377052048 , -284.428040105552 Z "
       id="path3398"
       inkscape:connector-curvature="0"
       sodipodi:nodetypes="zzzzzzzzzzzzzzzzzzzzzzzzz" />
  </g>
</svg>
