<?xml version="1.0" encoding="UTF-8" standalone="no"?>
<!-- Created with Inkscape (http://www.inkscape.org/) -->

<svg
   xmlns:dc="http://purl.org/dc/elements/1.1/"
   xmlns:cc="http://creativecommons.org/ns#"
   xmlns:rdf="http://www.w3.org/1999/02/22-rdf-syntax-ns#"
   xmlns:svg="http://www.w3.org/2000/svg"
   xmlns="http://www.w3.org/2000/svg"
   xmlns:sodipodi="http://sodipodi.sourceforge.net/DTD/sodipodi-0.dtd"
   xmlns:inkscape="http://www.inkscape.org/namespaces/inkscape"
   width="744.09448819"
   height="1052.3622047"
   id="svg2"
   version="1.1"
   inkscape:version="0.91 r13725"
   sodipodi:docname="3_1.svg">
  <defs
     id="defs4" />
  <sodipodi:namedview
     id="base"
     pagecolor="#ffffff"
     bordercolor="#666666"
     borderopacity="1.0"
     inkscape:pageopacity="0.0"
     inkscape:pageshadow="2"
     inkscape:zoom="0.60095796"
     inkscape:cx="-104.76981"
     inkscape:cy="1086.1933"
     inkscape:document-units="px"
     inkscape:current-layer="layer1"
     showgrid="false"
     inkscape:window-width="2560"
     inkscape:window-height="1315"
     inkscape:window-x="81"
     inkscape:window-y="24"
     inkscape:window-maximized="0" />
  <metadata
     id="metadata7">
    <rdf:RDF>
      <cc:Work
         rdf:about="">
        <dc:format>image/svg+xml</dc:format>
        <dc:type
           rdf:resource="http://purl.org/dc/dcmitype/StillImage" />
        <dc:title />
      </cc:Work>
    </rdf:RDF>
  </metadata>
  <g
     inkscape:label="Layer 1"
     inkscape:groupmode="layer"
     id="layer1">
    <path
       style="fill:none;stroke:#000000;stroke-width:2.19853067px;stroke-linecap:butt;stroke-linejoin:miter;stroke-opacity:1"
       d="M  -206.920348093906 , 417.276808823113 C  -361.246527129495 , 434.337774831761 -451.060632808968 , 342.113458734248 -486.434947726935 , 280.843348013388 -521.809262644901 , 219.573237292528 -556.770810392258 , 95.6797821071673 -464.832490897871 , -29.4401264023148 -372.894171403485 , -154.560034911797 -208.204265805764 , -169.935662412381 -131.901871655851 , -177.334269091843 -55.599477505938 , -184.732875771306 -11.6388969584644 , -184.725044585798 0 , -184.725044585798 11.6388969584644 , -184.725044585798 61.431079632721 , -184.727886911061 134.82178574461 , -177.392691298762 208.2124918565 , -170.057495686462 372.894171403485 , -154.560034911797 464.832490897871 , -29.4401264023152 556.770810392258 , 95.6797821071669 521.809262644902 , 219.573237292527 486.434947726935 , 280.843348013387 451.060632808968 , 342.113458734247 361.246527129496 , 434.337774831761 206.920348093906 , 417.276808823113 52.5941690583165 , 400.215842814465 -43.0664677551757 , 265.27801457027 -87.6250461671561 , 202.897506206603 -132.183624579137 , 140.516997842937 -154.157132847282 , 102.442102730959 -159.976581326514 , 92.3625222928992 -165.796029805746 , 82.2829418548396 -190.694582668758 , 39.1630679116896 -221.037469982724 , -28.0627457890342 -251.380357296689 , -95.2885594897581 -320.300002345169 , -245.655807902668 -257.912142803966 , -387.836682420798 -195.524283262763 , -530.017556938928 -70.7486298359333 , -561.686696026775 0 , -561.686696026775 70.7486298359333 , -561.686696026775 195.524283262763 , -530.017556938928 257.912142803966 , -387.836682420798 320.300002345169 , -245.655807902668 251.27073356094 , -95.3423521578895 219.526917823007 , -25.5632371147602 187.783102085075 , 44.215877928369 165.796029805747 , 82.2829418548395 159.976581326514 , 92.362522292899 154.157132847282 , 102.442102730959 129.263503036038 , 145.564818999372 86.2156842381134 , 205.455437087796 43.1678654401892 , 265.34605517622 -52.5941690583162 , 400.215842814465 -206.920348093906 , 417.276808823113 Z "
       id="path3008"
       inkscape:connector-curvature="0"
       sodipodi:nodetypes="zzzzzzzzzzzzzzzzzzz" />
  </g>
</svg>
