<?xml version="1.0" encoding="UTF-8" standalone="no"?>
<!-- Created with Inkscape (http://www.inkscape.org/) -->

<svg
   xmlns:dc="http://purl.org/dc/elements/1.1/"
   xmlns:cc="http://creativecommons.org/ns#"
   xmlns:rdf="http://www.w3.org/1999/02/22-rdf-syntax-ns#"
   xmlns:svg="http://www.w3.org/2000/svg"
   xmlns="http://www.w3.org/2000/svg"
   xmlns:sodipodi="http://sodipodi.sourceforge.net/DTD/sodipodi-0.dtd"
   xmlns:inkscape="http://www.inkscape.org/namespaces/inkscape"
   width="744.09448819"
   height="1052.3622047"
   id="svg2"
   version="1.1"
   inkscape:version="0.48.4 r9939"
   sodipodi:docname="5_2.svg">
  <defs
     id="defs4" />
  <sodipodi:namedview
     id="base"
     pagecolor="#ffffff"
     bordercolor="#666666"
     borderopacity="1.0"
     inkscape:pageopacity="0.0"
     inkscape:pageshadow="2"
     inkscape:zoom="0.35"
     inkscape:cx="-103.57143"
     inkscape:cy="975.26596"
     inkscape:document-units="px"
     inkscape:current-layer="layer1"
     showgrid="false"
     inkscape:window-width="1600"
     inkscape:window-height="824"
     inkscape:window-x="-3"
     inkscape:window-y="-3"
     inkscape:window-maximized="1" />
  <metadata
     id="metadata7">
    <rdf:RDF>
      <cc:Work
         rdf:about="">
        <dc:format>image/svg+xml</dc:format>
        <dc:type
           rdf:resource="http://purl.org/dc/dcmitype/StillImage" />
        <dc:title />
      </cc:Work>
    </rdf:RDF>
  </metadata>
  <g
     inkscape:label="Layer 1"
     inkscape:groupmode="layer"
     id="layer1">
    <path
       style="fill:none;stroke:#000000;stroke-width:3.14248824;stroke-linecap:butt;stroke-linejoin:miter;stroke-miterlimit:4;stroke-opacity:1;stroke-dasharray:none"
       d="M  57.8001218576151 , 196.174364980998 C  71.1550599393917 , 72.7262199229103 -12.4289940798626 , 34.5093888404562 -76.4099311795173 , -38.5944256406288 -140.390868279172 , -111.698240121714 -201.47748214847 , -231.376037717216 -138.347542465291 , -340.868721670709 -75.2176027821122 , -450.361405624201 75.2176027821122 , -450.361405624201 138.347542465291 , -340.868721670709 201.47748214847 , -231.376037717216 140.390868279172 , -111.698240121714 76.4099311795173 , -38.5944256406288 12.4289940798625 , 34.5093888404562 -71.1550599393917 , 72.7262199229104 -57.8001218576151 , 196.174364980998 -44.4451837758386 , 319.622510039085 43.998466711796 , 301.171961925496 58.516835966128 , 434.276741711027 73.0352052204599 , 567.381521496557 -89.2348453358495 , 730.349558193595 -275.69145695842 , 583.208351707039 -462.14806858099 , 436.067145220482 -403.94259729775 , 144.147904474272 -314.260748421461 , 9.29628224401895 -224.578899545171 , -125.555339986234 -103.197681432737 , -169.983534030214 0 , -169.983534030214 103.197681432737 , -169.983534030214 224.578899545171 , -125.555339986234 314.260748421461 , 9.29628224401895 403.94259729775 , 144.147904474272 462.14806858099 , 436.067145220482 275.69145695842 , 583.208351707039 89.2348453358495 , 730.349558193595 -73.0352052204599 , 567.381521496557 -58.516835966128 , 434.276741711027 -43.998466711796 , 301.171961925496 44.4451837758386 , 319.622510039085 57.8001218576151 , 196.174364980998 Z "
       id="path2985"
       inkscape:connector-curvature="0"
       sodipodi:nodetypes="zzzzzzzzzzzzzz" />
  </g>
</svg>
