<?xml version="1.0" encoding="UTF-8" standalone="no"?>
<!-- Created with Inkscape (http://www.inkscape.org/) -->

<svg
   xmlns:dc="http://purl.org/dc/elements/1.1/"
   xmlns:cc="http://creativecommons.org/ns#"
   xmlns:rdf="http://www.w3.org/1999/02/22-rdf-syntax-ns#"
   xmlns:svg="http://www.w3.org/2000/svg"
   xmlns="http://www.w3.org/2000/svg"
   xmlns:sodipodi="http://sodipodi.sourceforge.net/DTD/sodipodi-0.dtd"
   xmlns:inkscape="http://www.inkscape.org/namespaces/inkscape"
   width="744.09448819"
   height="1052.3622047"
   id="svg2"
   version="1.1"
   inkscape:version="0.91 r13725"
   sodipodi:docname="6_1.svg">
  <defs
     id="defs4" />
  <sodipodi:namedview
     id="base"
     pagecolor="#ffffff"
     bordercolor="#666666"
     borderopacity="1.0"
     inkscape:pageopacity="0.0"
     inkscape:pageshadow="2"
     inkscape:zoom="1.5982422"
     inkscape:cx="-22.774948"
     inkscape:cy="972.71186"
     inkscape:document-units="px"
     inkscape:current-layer="layer1"
     showgrid="false"
     inkscape:window-width="2560"
     inkscape:window-height="1315"
     inkscape:window-x="0"
     inkscape:window-y="1"
     inkscape:window-maximized="1" />
  <metadata
     id="metadata7">
    <rdf:RDF>
      <cc:Work
         rdf:about="">
        <dc:format>image/svg+xml</dc:format>
        <dc:type
           rdf:resource="http://purl.org/dc/dcmitype/StillImage" />
        <dc:title />
      </cc:Work>
    </rdf:RDF>
  </metadata>
  <g
     inkscape:label="Layer 1"
     inkscape:groupmode="layer"
     id="layer1">
    <path
       style="fill:none;stroke:#000000;stroke-width:1.45581996px;stroke-linecap:butt;stroke-linejoin:miter;stroke-opacity:1"
       d="M  -55.1791643813863 , 215.476086233216 C  -59.0698833372765 , 341.797267877965 105.595206208076 , 483.965565973626 248.21265434403 , 315.292304516398 390.830102479984 , 146.61904305917 234.100804105708 , -76.5880515006661 192.634057894454 , -218.83560365634 151.1673116832 , -361.083155812014 177.71516833281 , -407.78165317006 114.282765896788 , -475.96547540914 50.8503634607663 , -544.149297648219 -50.8503634607663 , -544.149297648219 -114.282765896788 , -475.96547540914 -177.71516833281 , -407.78165317006 -151.1673116832 , -361.083155812014 -192.634057894454 , -218.83560365634 -234.100804105708 , -76.5880515006661 -390.830102479984 , 146.61904305917 -248.21265434403 , 315.292304516398 -105.595206208076 , 483.965565973626 59.0698833372765 , 341.797267877965 55.1791643813863 , 215.476086233216 51.2884454254961 , 89.1549045884675 -64.3296979232815 , 35.0801245136152 -152.623601743943 , -2.10270975550056 -240.917505564605 , -39.2855440246163 -310.025173496073 , -44.9603421774267 -358.61306460876 , -120.958108619256 -407.200955721447 , -196.955875061086 -386.175326850152 , -303.868693284408 -295.472252086605 , -352.828969129254 -204.769177323057 , -401.7892449741 -145.733685837965 , -356.362945964651 0 , -356.362945964651 145.733685837965 , -356.362945964651 204.769177323057 , -401.7892449741 295.472252086605 , -352.828969129254 386.175326850152 , -303.868693284408 407.200955721447 , -196.955875061086 358.61306460876 , -120.958108619256 310.025173496073 , -44.9603421774267 240.917505564605 , -39.2855440246163 152.623601743943 , -2.10270975550056 64.3296979232815 , 35.0801245136152 -51.2884454254961 , 89.1549045884675 -55.1791643813863 , 215.476086233216 Z "
       id="path2985"
       inkscape:connector-curvature="0"
       sodipodi:nodetypes="zzzzzzzzzzzczzzz" />
  </g>
</svg>
