<?xml version="1.0" encoding="UTF-8" standalone="no"?>
<!-- Created with Inkscape (http://www.inkscape.org/) -->

<svg
   xmlns:dc="http://purl.org/dc/elements/1.1/"
   xmlns:cc="http://creativecommons.org/ns#"
   xmlns:rdf="http://www.w3.org/1999/02/22-rdf-syntax-ns#"
   xmlns:svg="http://www.w3.org/2000/svg"
   xmlns="http://www.w3.org/2000/svg"
   xmlns:sodipodi="http://sodipodi.sourceforge.net/DTD/sodipodi-0.dtd"
   xmlns:inkscape="http://www.inkscape.org/namespaces/inkscape"
   width="210mm"
   height="297mm"
   viewBox="0 0 744.09448819 1052.3622047"
   id="svg3588"
   version="1.1"
   inkscape:version="0.48.4 r9939"
   sodipodi:docname="6_3.svg">
  <defs
     id="defs3590" />
  <sodipodi:namedview
     id="base"
     pagecolor="#ffffff"
     bordercolor="#666666"
     borderopacity="1.0"
     inkscape:pageopacity="0.0"
     inkscape:pageshadow="2"
     inkscape:zoom="0.7413043"
     inkscape:cx="30.69335"
     inkscape:cy="1129.4986"
     inkscape:document-units="cm"
     inkscape:current-layer="layer1"
     showgrid="false"
     inkscape:window-width="1061"
     inkscape:window-height="817"
     inkscape:window-x="192"
     inkscape:window-y="71"
     inkscape:window-maximized="0" />
  <metadata
     id="metadata3593">
    <rdf:RDF>
      <cc:Work
         rdf:about="">
        <dc:format>image/svg+xml</dc:format>
        <dc:type
           rdf:resource="http://purl.org/dc/dcmitype/StillImage" />
        <dc:title />
      </cc:Work>
    </rdf:RDF>
  </metadata>
  <g
     inkscape:label="Layer 1"
     inkscape:groupmode="layer"
     id="layer1">
    <path
       style="fill:none;stroke:#000000;stroke-width:1.8396765px;stroke-linecap:butt;stroke-linejoin:miter;stroke-opacity:1"
       d="M  273.431873369656 , -111.334937953642 C  352.528457980236 , -5.12247352758482 425.512814101032 , 209.18493500231 252.429167083366 , 311.408914339422 79.3455200657 , 413.632893676535 -41.7712982138344 , 264.933679266152 -75.7222078204571 , 181.585414596913 -109.67311742708 , 98.2371499276738 -99.191350149098 , 0.452036991520096 -217.492687300154 , -41.3916264668208 -335.794024451211 , -83.2352899251617 -581.075000311346 , 78.5650706678547 -351.685311472026 , 287.885763522344 -122.295622632706 , 497.206456376832 45.3028568033781 , 255.129958775713 72.6104184639714 , 167.638127814826 99.9179801245647 , 80.1462968539391 82.6190876866517 , 8.49459656649029 95.0482131383342 , -95.2018758465114 107.477338590017 , -198.898348259513 158.775154845067 , -314.416921024951 295.169097261718 , -334.224432600858 431.56303967837 , -354.031944176766 545.565168211231 , -234.742460717658 506.072275022505 , -94.511742690717 466.57938183378 , 45.718975336224 300.630121666601 , 59.1735096133559 200.211580365147 , 65.7489448761254 99.7930390636922 , 72.324380138895 104.293285205907 , 66.6900303730511 0 , 66.6900303730511 -104.293285205907 , 66.6900303730511 -120.881470985288 , 108.156770427783 -223.292238532758 , 84.922784170616 -325.703006080228 , 61.6887979134486 -482.382508169302 , -95.461789795197 -290.832429756239 , -240.996933186007 -99.2823513431757 , -386.532076576818 194.335288759076 , -217.547402379699 273.431873369656 , -111.334937953642 Z "
       id="path3596"
       inkscape:connector-curvature="0"
       sodipodi:nodetypes="zzzzzzzzzzzzzz" />
  </g>
</svg>
