<?xml version="1.0" encoding="UTF-8" standalone="no"?>
<!-- Created with Inkscape (http://www.inkscape.org/) -->

<svg
   xmlns:dc="http://purl.org/dc/elements/1.1/"
   xmlns:cc="http://creativecommons.org/ns#"
   xmlns:rdf="http://www.w3.org/1999/02/22-rdf-syntax-ns#"
   xmlns:svg="http://www.w3.org/2000/svg"
   xmlns="http://www.w3.org/2000/svg"
   xmlns:sodipodi="http://sodipodi.sourceforge.net/DTD/sodipodi-0.dtd"
   xmlns:inkscape="http://www.inkscape.org/namespaces/inkscape"
   width="210mm"
   height="297mm"
   viewBox="0 0 744.09448819 1052.3622047"
   id="svg4747"
   version="1.1"
   inkscape:version="0.91 r13725"
   sodipodi:docname="7_2.svg">
  <defs
     id="defs4749" />
  <sodipodi:namedview
     id="base"
     pagecolor="#ffffff"
     bordercolor="#666666"
     borderopacity="1.0"
     inkscape:pageopacity="0.0"
     inkscape:pageshadow="2"
     inkscape:zoom="1.0472857"
     inkscape:cx="283.64964"
     inkscape:cy="754.69087"
     inkscape:document-units="px"
     inkscape:current-layer="layer1"
     showgrid="true"
     inkscape:window-width="1594"
     inkscape:window-height="817"
     inkscape:window-x="498"
     inkscape:window-y="34"
     inkscape:window-maximized="0">
    <inkscape:grid
       type="xygrid"
       id="grid5297"
       enabled="false" />
  </sodipodi:namedview>
  <metadata
     id="metadata4752">
    <rdf:RDF>
      <cc:Work
         rdf:about="">
        <dc:format>image/svg+xml</dc:format>
        <dc:type
           rdf:resource="http://purl.org/dc/dcmitype/StillImage" />
        <dc:title />
      </cc:Work>
    </rdf:RDF>
  </metadata>
  <g
     inkscape:label="Layer 1"
     inkscape:groupmode="layer"
     id="layer1">
    <path
       style="fill:none;stroke:#000000;stroke-width:1.83504736px;stroke-linecap:butt;stroke-linejoin:miter;stroke-opacity:1"
       d="M  260.912923424488 , -305.143164572212 C  252.781099846564 , -391.482509146794 174.412587372423 , -449.480813870546 89.1465730830926 , -431.89857168447 3.88055879376228 , -414.316329498394 -2.28910695078395 , -358.279916343781 -114.213899364866 , -284.971597847497 -226.138691778948 , -211.663279351213 -347.376924336469 , -212.695204015817 -349.169702388624 , -69.9296126046965 -350.96248044078 , 72.8359788064239 -214.175268268537 , 88.8739037840598 -134.19365370347 , 117.166906576282 -54.2120391384019 , 145.459909368504 47.0821653349044 , 195.16889093506 49.3391416741471 , 310.005626632538 51.5961180133899 , 424.842362330015 -108.844744453576 , 555.06064383263 -229.150812135664 , 377.450031421762 -349.456879817752 , 199.839419010894 -195.782464169921 , 72.2484909935389 -206.884918656636 , -70.4131408075223 -217.987373143351 , -213.074772608583 -269.044747002412 , -218.803819997629 -260.912923424488 , -305.143164572212 -252.781099846564 , -391.482509146794 -174.412587372423 , -449.480813870546 -89.1465730830926 , -431.89857168447 -3.88055879376228 , -414.316329498394 2.28910695078396 , -358.279916343781 114.213899364866 , -284.971597847497 226.138691778948 , -211.663279351213 347.376924336469 , -212.695204015817 349.169702388624 , -69.9296126046965 350.96248044078 , 72.8359788064239 214.175268268537 , 88.8739037840598 134.19365370347 , 117.166906576282 54.2120391384019 , 145.459909368504 -47.0821653349044 , 195.16889093506 -49.3391416741471 , 310.005626632538 -51.5961180133899 , 424.842362330015 108.844744453576 , 555.06064383263 229.150812135664 , 377.450031421762 349.456879817752 , 199.839419010894 195.782464169921 , 72.2484909935389 206.884918656636 , -70.4131408075223 217.987373143351 , -213.074772608583 269.044747002412 , -218.803819997629 260.912923424488 , -305.143164572212 Z "
       id="path5295"
       inkscape:connector-curvature="0"
       sodipodi:nodetypes="zzzzzzzzzzzzzzzzz" />
  </g>
</svg>
