<?xml version="1.0" encoding="UTF-8" standalone="no"?>
<!-- Created with Inkscape (http://www.inkscape.org/) -->

<svg
   xmlns:dc="http://purl.org/dc/elements/1.1/"
   xmlns:cc="http://creativecommons.org/ns#"
   xmlns:rdf="http://www.w3.org/1999/02/22-rdf-syntax-ns#"
   xmlns:svg="http://www.w3.org/2000/svg"
   xmlns="http://www.w3.org/2000/svg"
   xmlns:sodipodi="http://sodipodi.sourceforge.net/DTD/sodipodi-0.dtd"
   xmlns:inkscape="http://www.inkscape.org/namespaces/inkscape"
   width="744.09448819"
   height="1052.3622047"
   id="svg2"
   version="1.1"
   inkscape:version="0.48.4 r9939"
   sodipodi:docname="7_3.svg">
  <defs
     id="defs4" />
  <sodipodi:namedview
     id="base"
     pagecolor="#ffffff"
     bordercolor="#666666"
     borderopacity="1.0"
     inkscape:pageopacity="0.0"
     inkscape:pageshadow="2"
     inkscape:zoom="0.52948768"
     inkscape:cx="339.98249"
     inkscape:cy="813.95967"
     inkscape:document-units="px"
     inkscape:current-layer="layer1"
     showgrid="false"
     inkscape:window-width="1600"
     inkscape:window-height="824"
     inkscape:window-x="-3"
     inkscape:window-y="-3"
     inkscape:window-maximized="1" />
  <metadata
     id="metadata7">
    <rdf:RDF>
      <cc:Work
         rdf:about="">
        <dc:format>image/svg+xml</dc:format>
        <dc:type
           rdf:resource="http://purl.org/dc/dcmitype/StillImage" />
        <dc:title />
      </cc:Work>
    </rdf:RDF>
  </metadata>
  <g
     inkscape:label="Layer 1"
     inkscape:groupmode="layer"
     id="layer1">
    <path
       style="fill:none;stroke:#000000;stroke-width:1.52864242px;stroke-linecap:butt;stroke-linejoin:miter;stroke-opacity:1"
       d="M  -161.104107516879 , 566.817875887714 C  -37.6328143420374 , 619.834344432084 58.1364520556062 , 510.14094734253 43.9820781364033 , 415.338212003228 29.8277042172004 , 320.535476663927 -29.3064663858867 , 331.949665549254 -43.7632262907326 , 242.874003367939 -58.2199861955785 , 153.798341186624 8.59255183416478 , 96.1403443973838 96.1264218070771 , 48.9626184389251 183.660291779989 , 1.78489248046647 249.366695418621 , -13.2997112896331 284.947284374162 , -85.6711045218991 320.527873329703 , -158.042497754165 288.577779490027 , -240.412162867447 216.200735357609 , -268.532184301421 143.823691225192 , -296.652205735396 116.779581700666 , -257.889993807272 0 , -257.889993807272 -116.779581700666 , -257.889993807272 -143.823691225192 , -296.652205735396 -216.200735357609 , -268.532184301421 -288.577779490027 , -240.412162867447 -320.527873329703 , -158.042497754165 -284.947284374162 , -85.6711045218991 -249.366695418621 , -13.2997112896331 -182.890880773825 , 2.54827754136305 -95.5364342988779 , 49.6198397858585 -8.18198782393068 , 96.6914020303539 58.2199861955785 , 153.798341186624 43.7632262907326 , 242.874003367939 29.3064663858867 , 331.949665549254 -29.8277042172004 , 320.535476663927 -43.9820781364033 , 415.338212003228 -58.1364520556062 , 510.14094734253 37.6328143420374 , 619.834344432084 161.104107516879 , 566.817875887714 284.57540069172 , 513.801407343344 322.907473566007 , 342.286188735656 280.809769975142 , 176.092972179361 238.712066384277 , 9.89975562306557 193.295895321357 , -1.54091468145054 158.082333480033 , -122.693807570347 122.868771638709 , -243.846700459244 138.126626967258 , -388.064453783924 0 , -388.064453783924 -138.126626967258 , -388.064453783924 -122.868771638709 , -243.846700459244 -158.082333480033 , -122.693807570347 -193.295895321357 , -1.54091468145054 -238.712066384277 , 9.89975562306555 -280.809769975142 , 176.092972179361 -322.907473566007 , 342.286188735656 -284.57540069172 , 513.801407343344 -161.104107516879 , 566.817875887714 Z "
       id="path2985"
       inkscape:connector-curvature="0"
       sodipodi:nodetypes="zzzzzzzzzzzzzzzzzzz" />
  </g>
</svg>
