<?xml version="1.0" encoding="UTF-8" standalone="no"?>
<!-- Created with Inkscape (http://www.inkscape.org/) -->

<svg
   xmlns:dc="http://purl.org/dc/elements/1.1/"
   xmlns:cc="http://creativecommons.org/ns#"
   xmlns:rdf="http://www.w3.org/1999/02/22-rdf-syntax-ns#"
   xmlns:svg="http://www.w3.org/2000/svg"
   xmlns="http://www.w3.org/2000/svg"
   xmlns:sodipodi="http://sodipodi.sourceforge.net/DTD/sodipodi-0.dtd"
   xmlns:inkscape="http://www.inkscape.org/namespaces/inkscape"
   width="210mm"
   height="297mm"
   viewBox="0 0 744.09448819 1052.3622047"
   id="svg2"
   version="1.1"
   inkscape:version="0.91 r13725"
   sodipodi:docname="7_4.svg">
  <defs
     id="defs4" />
  <sodipodi:namedview
     id="base"
     pagecolor="#ffffff"
     bordercolor="#666666"
     borderopacity="1.0"
     inkscape:pageopacity="0.0"
     inkscape:pageshadow="2"
     inkscape:zoom="1.1301279"
     inkscape:cx="124.284"
     inkscape:cy="1049.6217"
     inkscape:document-units="px"
     inkscape:current-layer="layer1"
     showgrid="false"
     inkscape:window-width="2560"
     inkscape:window-height="1315"
     inkscape:window-x="0"
     inkscape:window-y="1"
     inkscape:window-maximized="1" />
  <metadata
     id="metadata7">
    <rdf:RDF>
      <cc:Work
         rdf:about="">
        <dc:format>image/svg+xml</dc:format>
        <dc:type
           rdf:resource="http://purl.org/dc/dcmitype/StillImage" />
        <dc:title />
      </cc:Work>
    </rdf:RDF>
  </metadata>
  <g
     inkscape:label="Layer 1"
     inkscape:groupmode="layer"
     id="layer1">
    <path
       style="fill:none;stroke:#000000;stroke-width:1px;stroke-linecap:butt;stroke-linejoin:miter;stroke-opacity:1"
       d="M  244.546664898941 , 0 C  244.546664898941 , 117.558357873669 181.208276500663 , 162.992781207046 105.963431605306 , 260.940963645817 30.71858670995 , 358.889146084587 -16.4463451502785 , 434.580040405326 -104.529882609592 , 448.935986790629 -192.613420068906 , 463.291933175933 -282.004574638481 , 395.245873467219 -271.520490437016 , 289.918522288472 -261.03640623555 , 184.591171109725 -181.634043203098 , 155.098512026363 -92.2979021978931 , 82.9466336672741 -2.96176119268813 , 10.7947553081848 2.96176119268814 , -10.7947553081848 92.2979021978931 , -82.9466336672741 181.634043203098 , -155.098512026363 261.03640623555 , -184.591171109725 271.520490437016 , -289.918522288472 282.004574638481 , -395.245873467219 192.613420068906 , -463.291933175933 104.529882609592 , -448.935986790629 16.4463451502785 , -434.580040405326 -30.71858670995 , -358.889146084587 -105.963431605306 , -260.940963645817 -181.208276500663 , -162.992781207046 -244.546664898941 , -117.558357873669 -244.546664898941 , 0 -244.546664898941 , 117.558357873669 -181.208276500663 , 162.992781207046 -105.963431605306 , 260.940963645817 -30.71858670995 , 358.889146084587 16.4463451502785 , 434.580040405326 104.529882609592 , 448.935986790629 192.613420068906 , 463.291933175933 282.004574638481 , 395.245873467219 271.520490437016 , 289.918522288472 261.03640623555 , 184.591171109725 181.634043203098 , 155.098512026363 92.2979021978931 , 82.9466336672741 2.96176119268813 , 10.7947553081848 -2.96176119268814 , -10.7947553081848 -92.2979021978931 , -82.9466336672741 -181.634043203098 , -155.098512026363 -261.03640623555 , -184.591171109725 -271.520490437016 , -289.918522288472 -282.004574638481 , -395.245873467219 -192.613420068906 , -463.291933175933 -104.529882609592 , -448.935986790629 -16.4463451502785 , -434.580040405326 30.71858670995 , -358.889146084587 105.963431605306 , -260.940963645817 181.208276500663 , -162.992781207046 244.546664898941 , -117.558357873669 244.546664898941 , 0 Z "
       id="path4136"
       inkscape:connector-curvature="0"
       sodipodi:nodetypes="zzzzzzzzzzzzzzzzzzz" />
  </g>
</svg>
