<?xml version="1.0" encoding="UTF-8" standalone="no"?>
<!-- Created with Inkscape (http://www.inkscape.org/) -->

<svg
   xmlns:dc="http://purl.org/dc/elements/1.1/"
   xmlns:cc="http://creativecommons.org/ns#"
   xmlns:rdf="http://www.w3.org/1999/02/22-rdf-syntax-ns#"
   xmlns:svg="http://www.w3.org/2000/svg"
   xmlns="http://www.w3.org/2000/svg"
   xmlns:sodipodi="http://sodipodi.sourceforge.net/DTD/sodipodi-0.dtd"
   xmlns:inkscape="http://www.inkscape.org/namespaces/inkscape"
   width="210mm"
   height="297mm"
   viewBox="0 0 744.09448819 1052.3622047"
   id="svg2"
   version="1.1"
   inkscape:version="0.48.4 r9939"
   sodipodi:docname="8_1.svg">
  <defs
     id="defs4" />
  <sodipodi:namedview
     id="base"
     pagecolor="#ffffff"
     bordercolor="#666666"
     borderopacity="1.0"
     inkscape:pageopacity="0.0"
     inkscape:pageshadow="2"
     inkscape:zoom="1.0293612"
     inkscape:cx="157.34459"
     inkscape:cy="612.05554"
     inkscape:document-units="px"
     inkscape:current-layer="layer1"
     showgrid="false"
     inkscape:window-width="1600"
     inkscape:window-height="824"
     inkscape:window-x="-3"
     inkscape:window-y="-3"
     inkscape:window-maximized="1" />
  <metadata
     id="metadata7">
    <rdf:RDF>
      <cc:Work
         rdf:about="">
        <dc:format>image/svg+xml</dc:format>
        <dc:type
           rdf:resource="http://purl.org/dc/dcmitype/StillImage" />
        <dc:title />
      </cc:Work>
    </rdf:RDF>
  </metadata>
  <g
     inkscape:label="Layer 1"
     inkscape:groupmode="layer"
     id="layer1">
    <path
       style="fill:none;stroke:#000000;stroke-width:11.16508865px;stroke-linecap:butt;stroke-linejoin:miter;stroke-opacity:1"
       d="M  186.176619810811 , -193.575146100723 C  306.090184661182 , -88.6492458332685 214.878726102734 , 80.2209344735809 239.462591013656 , 211.918191959618 264.046455924579 , 343.615449445655 378.473784444809 , 393.20682121049 281.836400726636 , 505.89975406591 185.199017008462 , 618.59268692133 124.150512856402 , 519.226064189877 0 , 519.226064189877 -124.150512856402 , 519.226064189877 -185.199017008462 , 618.59268692133 -281.836400726636 , 505.89975406591 -378.473784444809 , 393.20682121049 -264.046455924579 , 343.615449445655 -239.462591013656 , 211.918191959618 -214.878726102734 , 80.2209344735809 -306.090184661182 , -88.6492458332685 -186.176619810811 , -193.575146100723 -66.2630549604396 , -298.501046368177 43.6031224710121 , -196.879077284186 40.5268767233013 , -104.656145915304 37.4506309755904 , -12.4332145464223 -41.6611041614121 , 34.9362922227716 -131.005228746099 , 51.7672737230707 -220.349353330786 , 68.5982552233698 -352.899925910256 , 45.5576044939657 -373.060321224956 , 192.15230359348 -393.220716539656 , 338.747002692995 -268.988901860942 , 327.838651029728 -190.363233059152 , 426.192601059192 -111.737564257362 , 524.546551088656 -141.865832748285 , 641.558313062611 0 , 641.558313062611 141.865832748285 , 641.558313062611 111.737564257362 , 524.546551088656 190.363233059152 , 426.192601059192 268.988901860942 , 327.838651029728 393.220716539656 , 338.747002692995 373.060321224956 , 192.15230359348 352.899925910256 , 45.5576044939657 220.349353330786 , 68.5982552233698 131.005228746099 , 51.7672737230707 41.6611041614121 , 34.9362922227716 -37.4506309755904 , -12.4332145464223 -40.5268767233013 , -104.656145915304 -43.6031224710121 , -196.879077284186 66.2630549604396 , -298.501046368177 186.176619810811 , -193.575146100723 Z "
       id="path4252"
       inkscape:connector-curvature="0"
       sodipodi:nodetypes="zzzzzzzzzzzzzzzzz" />
  </g>
</svg>
