<?xml version="1.0" encoding="UTF-8" standalone="no"?>
<!-- Created with Inkscape (http://www.inkscape.org/) -->

<svg
   xmlns:dc="http://purl.org/dc/elements/1.1/"
   xmlns:cc="http://creativecommons.org/ns#"
   xmlns:rdf="http://www.w3.org/1999/02/22-rdf-syntax-ns#"
   xmlns:svg="http://www.w3.org/2000/svg"
   xmlns="http://www.w3.org/2000/svg"
   xmlns:sodipodi="http://sodipodi.sourceforge.net/DTD/sodipodi-0.dtd"
   xmlns:inkscape="http://www.inkscape.org/namespaces/inkscape"
   width="210mm"
   height="297mm"
   viewBox="0 0 744.09448819 1052.3622047"
   id="svg9624"
   version="1.1"
   inkscape:version="0.91 r13725"
   sodipodi:docname="8_10.svg">
  <defs
     id="defs9626" />
  <sodipodi:namedview
     id="base"
     pagecolor="#ffffff"
     bordercolor="#666666"
     borderopacity="1.0"
     inkscape:pageopacity="0.0"
     inkscape:pageshadow="2"
     inkscape:zoom="0.85391069"
     inkscape:cx="280.3317"
     inkscape:cy="955.7375"
     inkscape:document-units="px"
     inkscape:current-layer="layer1"
     showgrid="false"
     inkscape:window-width="2560"
     inkscape:window-height="1315"
     inkscape:window-x="25"
     inkscape:window-y="122"
     inkscape:window-maximized="0" />
  <metadata
     id="metadata9629">
    <rdf:RDF>
      <cc:Work
         rdf:about="">
        <dc:format>image/svg+xml</dc:format>
        <dc:type
           rdf:resource="http://purl.org/dc/dcmitype/StillImage" />
        <dc:title />
      </cc:Work>
    </rdf:RDF>
  </metadata>
  <g
     inkscape:label="Layer 1"
     inkscape:groupmode="layer"
     id="layer1">
    <path
       style="fill:none;fill-rule:evenodd;stroke:#000000;stroke-width:9.53010464px;stroke-linecap:butt;stroke-linejoin:miter;stroke-opacity:1"
       d="M  0 , -288.876277851805 C  -291.8715581618 , -288.876277851805 -237.806981982592 , -33.199854456368 -228.642734279796 , 83.6093102867968 -219.478486576999 , 200.418475029962 -240.46766719802 , 302.216744132288 -122.600748530133 , 339.535974623837 -4.73382986224641 , 376.855205115387 26.7719554951201 , 285.643253178342 152.605507106488 , 233.952592351429 278.439058717856 , 182.261931524517 454.866008265972 , 193.046269371726 430.25775856745 , 20.3535062091345 405.649508868928 , -152.339256953457 208.445833747109 , -91.3995617031424 175.024610755574 , -81.453701358202 141.603387764039 , -71.5078410132617 69.386921080351 , -52.1475892536711 0 , -52.1475892536711 -69.386921080351 , -52.1475892536711 -142.324280747375 , -67.8654073460422 -161.118313466783 , -71.8709873952547 -179.91234618619 , -75.8765674444672 -414.510201015784 , -126.134628814758 -405.844363365178 , 74.1352038296445 -397.178525714572 , 274.405036474047 -162.229384544028 , 207.325183628303 -125.282247497725 , 196.968730306975 -88.3351104514224 , 186.612276985647 26.9504108558106 , 155.83937790527 85.6452082105464 , 61.4894024934123 144.340005565282 , -32.860572918446 103.265137157377 , -159.765999436821 0 , -159.765999436821 -103.265137157377 , -159.765999436821 -113.808637321587 , -37.1169512565942 -99.1826472367803 , 30.563277817087 -84.5566571519733 , 98.2435068907683 25.8861819793596 , 457.264155254949 208.121134460932 , 385.200984629172 390.356086942505 , 313.137814003394 288.90355548492 , 170.347935797288 268.07362788531 , 50.9248498843867 247.243700285699 , -68.4982360285146 291.8715581618 , -288.876277851805 0 , -288.876277851805 Z "
       id="path10192"
       inkscape:connector-curvature="0"
       sodipodi:nodetypes="zzzzzzzzzzzzzzzz" />
  </g>
</svg>
