<?xml version="1.0" encoding="UTF-8" standalone="no"?>
<!-- Created with Inkscape (http://www.inkscape.org/) -->

<svg
   xmlns:dc="http://purl.org/dc/elements/1.1/"
   xmlns:cc="http://creativecommons.org/ns#"
   xmlns:rdf="http://www.w3.org/1999/02/22-rdf-syntax-ns#"
   xmlns:svg="http://www.w3.org/2000/svg"
   xmlns="http://www.w3.org/2000/svg"
   xmlns:sodipodi="http://sodipodi.sourceforge.net/DTD/sodipodi-0.dtd"
   xmlns:inkscape="http://www.inkscape.org/namespaces/inkscape"
   width="210mm"
   height="297mm"
   viewBox="0 0 744.09448819 1052.3622047"
   id="svg9624"
   version="1.1"
   inkscape:version="0.91 r13725"
   sodipodi:docname="8_10.svg">
  <defs
     id="defs9626" />
  <sodipodi:namedview
     id="base"
     pagecolor="#ffffff"
     bordercolor="#666666"
     borderopacity="1.0"
     inkscape:pageopacity="0.0"
     inkscape:pageshadow="2"
     inkscape:zoom="0.85391069"
     inkscape:cx="280.3317"
     inkscape:cy="955.7375"
     inkscape:document-units="px"
     inkscape:current-layer="layer1"
     showgrid="false"
     inkscape:window-width="2560"
     inkscape:window-height="1315"
     inkscape:window-x="1331"
     inkscape:window-y="61"
     inkscape:window-maximized="0" />
  <metadata
     id="metadata9629">
    <rdf:RDF>
      <cc:Work
         rdf:about="">
        <dc:format>image/svg+xml</dc:format>
        <dc:type
           rdf:resource="http://purl.org/dc/dcmitype/StillImage" />
        <dc:title />
      </cc:Work>
    </rdf:RDF>
  </metadata>
  <g
     inkscape:label="Layer 1"
     inkscape:groupmode="layer"
     id="layer1">
    <path
       style="fill:none;fill-rule:evenodd;stroke:#000000;stroke-width:8.95030308px;stroke-linecap:butt;stroke-linejoin:miter;stroke-opacity:1"
       d="M  0 , -310.466425861766 C  -24.1006045584753 , -310.466425861766 -130.650738693508 , -307.501060205684 -204.371011328774 , -217.363386847656 -278.09128396404 , -127.225713489627 -253.82992188602 , -58.981096664538 -234.659702720834 , 80.7080620305305 -215.489483555648 , 220.397220725599 -208.971020986601 , 256.707885630083 -174.715677945783 , 293.726825613348 -140.460334904966 , 330.745765596613 -86.8169315678848 , 351.764340200382 -23.5317863353399 , 335.748922843635 39.7533588972049 , 319.733505486888 47.9505331064011 , 284.222726006514 171.822839373897 , 228.593618060609 295.695145641393 , 172.964510114705 352.379599064796 , 183.297996674609 397.508281488881 , 114.287041082378 442.636963912967 , 45.2760854901471 414.844832653846 , -33.4077823295497 358.069948284418 , -68.6178368892666 301.295063914991 , -103.827891448984 248.570582368019 , -87.8578230020015 187.718182210691 , -78.5810609896248 126.865782053363 , -69.3042989772481 75.8950159962674 , -61.9375960929671 0 , -61.9375960929671 -75.8950159962674 , -61.9375960929671 -121.447783971289 , -65.475479329209 -181.324801252185 , -66.0434148482233 -241.201818533081 , -66.6113503672376 -315.483107661541 , -73.0112864756554 -370.578555539425 , -10.7543101801389 -425.674003417309 , 51.5026661153777 -418.068202910919 , 150.006774892627 -345.054024570763 , 200.270759121835 -272.039846230608 , 250.534743351043 -196.786341350996 , 219.042206455497 -129.997361017017 , 197.527011593799 -63.2083806830375 , 176.011816732102 24.8192647467336 , 146.544114949653 81.8680582444095 , 57.8543364976973 138.916851742085 , -30.8354419542582 113.637468610673 , -111.58741890239 81.1411183236493 , -148.182807062445 48.6447680366258 , -184.778195222501 9.80055063871535 , -185.844813235481 0 , -185.844813235481 -9.80055063871535 , -185.844813235481 -46.6756443564935 , -184.634695166317 -77.1905260707759 , -150.154214033321 -107.705407785058 , -115.673732900324 -122.55195648952 , -56.264379303492 -93.0853390978915 , 36.1032564533435 -63.6187217062633 , 128.470892210179 38.3503816780618 , 355.643783511926 140.520622422571 , 384.824319607246 242.690863167079 , 414.004855702566 311.524478894298 , 339.45017088532 322.889712237759 , 267.21749913733 334.25494558122 , 194.984827389341 302.765025772523 , 172.475326009838 275.235037858395 , 44.8781669826688 247.705049944267 , -82.7189920445005 271.589730093332 , -136.373194904942 196.511743438973 , -221.917429353892 121.433756784614 , -307.461663802842 24.1006045584753 , -310.466425861766 0 , -310.466425861766 Z "
       id="path10192"
       inkscape:connector-curvature="0"
       sodipodi:nodetypes="zzzzzzzzzzzzzzzzzzzzzzzz" />
  </g>
</svg>
