<?xml version="1.0" encoding="UTF-8" standalone="no"?>
<!-- Created with Inkscape (http://www.inkscape.org/) -->

<svg
   xmlns:dc="http://purl.org/dc/elements/1.1/"
   xmlns:cc="http://creativecommons.org/ns#"
   xmlns:rdf="http://www.w3.org/1999/02/22-rdf-syntax-ns#"
   xmlns:svg="http://www.w3.org/2000/svg"
   xmlns="http://www.w3.org/2000/svg"
   xmlns:sodipodi="http://sodipodi.sourceforge.net/DTD/sodipodi-0.dtd"
   xmlns:inkscape="http://www.inkscape.org/namespaces/inkscape"
   width="210mm"
   height="297mm"
   viewBox="0 0 744.09448819 1052.3622047"
   id="svg10213"
   version="1.1"
   inkscape:version="0.91 r13725"
   sodipodi:docname="8_11.svg">
  <defs
     id="defs10215" />
  <sodipodi:namedview
     id="base"
     pagecolor="#ffffff"
     bordercolor="#666666"
     borderopacity="1.0"
     inkscape:pageopacity="0.0"
     inkscape:pageshadow="2"
     inkscape:zoom="2.2008762"
     inkscape:cx="381.04363"
     inkscape:cy="577.34923"
     inkscape:document-units="px"
     inkscape:current-layer="layer1"
     showgrid="false"
     inkscape:window-width="2560"
     inkscape:window-height="1315"
     inkscape:window-x="188"
     inkscape:window-y="53"
     inkscape:window-maximized="0" />
  <metadata
     id="metadata10218">
    <rdf:RDF>
      <cc:Work
         rdf:about="">
        <dc:format>image/svg+xml</dc:format>
        <dc:type
           rdf:resource="http://purl.org/dc/dcmitype/StillImage" />
        <dc:title />
      </cc:Work>
    </rdf:RDF>
  </metadata>
  <g
     inkscape:label="Layer 1"
     inkscape:groupmode="layer"
     id="layer1">
    <path
       style="fill:none;fill-rule:evenodd;stroke:#000000;stroke-width:9.94700909px;stroke-linecap:butt;stroke-linejoin:miter;stroke-opacity:1"
       d="M  206.081656736843 , -119.449940804082 C  311.458938245386 , -62.378676086371 333.648033560759 , 71.0170661328614 325.036679026415 , 167.379824180854 316.425324492071 , 263.742582228846 280.650901593734 , 357.41798489503 213.599680914118 , 454.206804876277 146.548460234503 , 550.995624857525 113.227464437924 , 627.170710525845 0 , 627.170710525845 -113.227464437924 , 627.170710525845 -142.447075337463 , 529.155680451176 -181.208467130586 , 458.496629956142 -219.96985892371 , 387.837579461108 -389.379155061286 , 116.409509092828 -210.920238148271 , -75.1776216178191 -32.4613212352562 , -266.764752328466 105.540834143337 , -96.871670359242 73.0426987283465 , 0.776366550062808 40.5445633133558 , 98.4244034593677 -18.5598511008496 , 63.77701131639 -67.3887708193931 , 145.826571478454 -116.217690537937 , 227.876131640519 -67.1379472068214 , 299.964569200509 -31.7281639378808 , 354.118327709037 3.68161933105991 , 408.272086217564 48.394405504385 , 463.650424922758 74.0997720144438 , 493.283194228853 99.8051385245025 , 522.915963534949 231.642423293154 , 676.597457381406 341.187062309811 , 548.828254510944 450.731701326467 , 421.059051640483 268.775842269265 , 251.408128749109 125.208034138729 , 350.798884166645 -18.359773991807 , 450.189639584181 4.0705694300364 , 439.898430621706 -48.7152558813706 , 481.013947018376 -101.501081192778 , 522.129463415047 -254.125207608668 , 647.763725369875 -326.338252117946 , 501.939256793582 -398.551296627224 , 356.114788217289 -205.40003282249 , 310.422165300317 -154.079759650365 , 297.899817326356 -102.759486478241 , 285.377469352394 -2.2861744815704 , 264.404534099056 15.7831899048742 , 175.295710607182 33.8525542913187 , 86.1868871153074 -21.7346551555163 , 81.8461034713347 -10.4730395396476 , -9.83036035293003 0.78857607622102 , -101.506824177195 100.704375228301 , -176.521205521793 206.081656736843 , -119.449940804082 Z "
       id="path10781"
       inkscape:connector-curvature="0"
       sodipodi:nodetypes="zzzzzzzzzzzzzzzzzz" />
  </g>
</svg>
