<?xml version="1.0" encoding="UTF-8" standalone="no"?>
<!-- Created with Inkscape (http://www.inkscape.org/) -->

<svg
   xmlns:dc="http://purl.org/dc/elements/1.1/"
   xmlns:cc="http://creativecommons.org/ns#"
   xmlns:rdf="http://www.w3.org/1999/02/22-rdf-syntax-ns#"
   xmlns:svg="http://www.w3.org/2000/svg"
   xmlns="http://www.w3.org/2000/svg"
   xmlns:sodipodi="http://sodipodi.sourceforge.net/DTD/sodipodi-0.dtd"
   xmlns:inkscape="http://www.inkscape.org/namespaces/inkscape"
   width="210mm"
   height="297mm"
   viewBox="0 0 744.09448819 1052.3622047"
   id="svg10802"
   version="1.1"
   inkscape:version="0.91 r13725"
   sodipodi:docname="8_12.svg">
  <defs
     id="defs10804" />
  <sodipodi:namedview
     id="base"
     pagecolor="#ffffff"
     bordercolor="#666666"
     borderopacity="1.0"
     inkscape:pageopacity="0.0"
     inkscape:pageshadow="2"
     inkscape:zoom="0.64789727"
     inkscape:cx="118.13283"
     inkscape:cy="804.35374"
     inkscape:document-units="px"
     inkscape:current-layer="layer1"
     showgrid="false"
     inkscape:window-width="2560"
     inkscape:window-height="1315"
     inkscape:window-x="803"
     inkscape:window-y="242"
     inkscape:window-maximized="0" />
  <metadata
     id="metadata10807">
    <rdf:RDF>
      <cc:Work
         rdf:about="">
        <dc:format>image/svg+xml</dc:format>
        <dc:type
           rdf:resource="http://purl.org/dc/dcmitype/StillImage" />
        <dc:title />
      </cc:Work>
    </rdf:RDF>
  </metadata>
  <g
     inkscape:label="Layer 1"
     inkscape:groupmode="layer"
     id="layer1">
    <path
       style="fill:none;fill-rule:evenodd;stroke:#000000;stroke-width:9.93261814px;stroke-linecap:butt;stroke-linejoin:miter;stroke-opacity:1"
       d="M  -151.663701751577 , 21.5363895609211 C  -101.625950517533 , -46.2379571802772 -0.801675949262672 , -108.277866344314 138.786056241557 , -91.1634316852852 278.373788432376 , -74.0489970262567 345.182707052278 , 24.6307556195429 356.605261618118 , 41.8534258619595 368.027816183958 , 59.0760961043761 472.830120951871 , 217.062854570235 356.212642308489 , 378.352429193738 239.595163665107 , 539.642003817242 109.459444693158 , 509.095981616614 15.5683372857857 , 508.901826184505 -78.3227701215868 , 508.707670752397 -309.431239334181 , 522.842656758262 -330.578686925394 , 317.153121029314 -351.726134516607 , 111.463585300365 -151.349302592606 , 105.255000104752 -92.7590223751775 , 190.051834021084 -34.1687421577494 , 274.848667937416 -78.9778153002779 , 351.637383331755 -98.4487359776626 , 409.246678672484 -117.919656655047 , 466.855974013213 -167.551732541009 , 658.032833570054 0 , 658.032833570054 167.551732541009 , 658.032833570054 125.230950843044 , 467.617918884626 115.54178702547 , 421.743067860127 105.852623207896 , 375.868216835628 82.5440775433408 , 295.249519470559 131.59380201701 , 227.565086943736 180.64352649068 , 159.880654416913 247.438249899531 , 168.995530951531 311.735690616386 , 163.827285903009 376.033131333241 , 158.659040854487 462.318133634061 , 154.010601590625 516.131424928805 , 82.5584781340904 569.944716223548 , 11.1063546775554 535.181633673558 , -99.4248437711895 431.961602085241 , -112.629478004263 328.741570496924 , -125.834112237336 255.633757428526 , -35.9362752547798 238.202145357211 , 58.2477658743447 220.770533285897 , 152.431807003469 262.685127389052 , 191.684888485607 214.863163364648 , 279.40745602261 167.041199340244 , 367.130023559613 57.4778601598063 , 353.656037104854 -1.35199120535548 , 345.318785959531 -60.1818425705173 , 336.981534814208 -123.008576996953 , 329.579677900863 -166.067640481058 , 256.672194318215 -209.126703965162 , 183.764710735567 -201.701452985621 , 89.3107363021194 -151.663701751577 , 21.5363895609211 Z "
       id="path11361"
       inkscape:connector-curvature="0"
       sodipodi:nodetypes="zzzzzzzzzzzzzzzzzzz" />
  </g>
</svg>
