<?xml version="1.0" encoding="UTF-8" standalone="no"?>
<!-- Created with Inkscape (http://www.inkscape.org/) -->

<svg
   xmlns:dc="http://purl.org/dc/elements/1.1/"
   xmlns:cc="http://creativecommons.org/ns#"
   xmlns:rdf="http://www.w3.org/1999/02/22-rdf-syntax-ns#"
   xmlns:svg="http://www.w3.org/2000/svg"
   xmlns="http://www.w3.org/2000/svg"
   xmlns:sodipodi="http://sodipodi.sourceforge.net/DTD/sodipodi-0.dtd"
   xmlns:inkscape="http://www.inkscape.org/namespaces/inkscape"
   width="210mm"
   height="297mm"
   viewBox="0 0 744.09448819 1052.3622047"
   id="svg11416"
   version="1.1"
   inkscape:version="0.91 r13725"
   sodipodi:docname="8_13.svg">
  <defs
     id="defs11418" />
  <sodipodi:namedview
     id="base"
     pagecolor="#ffffff"
     bordercolor="#666666"
     borderopacity="1.0"
     inkscape:pageopacity="0.0"
     inkscape:pageshadow="2"
     inkscape:zoom="0.70235714"
     inkscape:cx="-229.28334"
     inkscape:cy="630.02136"
     inkscape:document-units="px"
     inkscape:current-layer="layer1"
     showgrid="false"
     showguides="false"
     inkscape:window-width="1215"
     inkscape:window-height="776"
     inkscape:window-x="65"
     inkscape:window-y="24"
     inkscape:window-maximized="1" />
  <metadata
     id="metadata11421">
    <rdf:RDF>
      <cc:Work
         rdf:about="">
        <dc:format>image/svg+xml</dc:format>
        <dc:type
           rdf:resource="http://purl.org/dc/dcmitype/StillImage" />
        <dc:title />
      </cc:Work>
    </rdf:RDF>
  </metadata>
  <g
     inkscape:label="Layer 1"
     inkscape:groupmode="layer"
     id="layer1">
    <path
       style="fill:none;fill-rule:evenodd;stroke:#000000;stroke-width:11.28058147px;stroke-linecap:butt;stroke-linejoin:miter;stroke-opacity:1"
       d="M  99.3105839242957 , 48.1334549519774 C  104.133519753141 , 56.2183262328623 119.791454974366 , 84.4115409868562 113.820696859734 , 124.866516046707 107.849938745102 , 165.321491106558 77.0022283440409 , 227.855080229642 -25.5482991286948 , 271.211800912159 -128.09882660143 , 314.568521594676 -150.082717544067 , 280.980678339298 -236.228963835459 , 315.748660725852 -322.375210126851 , 350.516643112406 -354.379282804906 , 418.905540021232 -363.534268890011 , 462.527732980185 -372.689254975116 , 506.149925939138 -369.335500529263 , 563.112508037646 -330.586607446569 , 618.296687504584 -291.837714363875 , 673.480866971522 -254.447931622075 , 681.149214021726 -141.937068370289 , 748.782830682798 -29.426205118503 , 816.41644734387 2.83173575319259 , 845.305377596186 64.3965657246659 , 844.89832602056 125.961395696139 , 844.491274444934 160.666170060956 , 809.974700115218 170.028102814098 , 800.020985523254 179.39003556724 , 790.06727093129 222.670469591105 , 741.646344093077 204.612917010508 , 666.505560840188 186.555364429911 , 591.364777587299 127.994575156615 , 551.263248661908 -3.52231874994214 , 494.983672547351 -135.039212656499 , 438.704096432794 -154.021392645442 , 457.757587265619 -233.976653202262 , 423.650469435399 -313.931913759082 , 389.543351605179 -357.546821506759 , 335.816015643079 -377.990456891185 , 286.774173428488 -398.434092275611 , 237.732331213897 -394.397811919129 , 196.340308285919 -393.288624739362 , 186.217650896391 -392.179437559595 , 176.094993506863 -379.604507581778 , 61.2798928809774 -245.69748904568 , 35.1132856759736 -111.790470509582 , 8.9466784709698 112.635647547902 , 243.44951041483 145.384577120487 , 294.59176754254 178.133506693072 , 345.73402467025 180.968369686041 , 390.454417485522 181.515664075297 , 399.24330908214 182.062958464553 , 408.032200678758 184.249589413398 , 445.349504449176 165.871033059088 , 495.247885767906 147.492476704778 , 545.146267086636 113.047737012771 , 579.175417631392 45.2199989333631 , 694.54632703046 -22.6077391460448 , 809.917236429528 -29.9852439551196 , 860.052876874946 -95.5881927548931 , 893.715009780994 -161.191141554667 , 927.377142687042 -213.00992258037 , 898.46532123996 -224.53854404493 , 891.551499612352 -236.06716550949 , 884.637677984744 -281.563014827312 , 855.142769272149 -287.420784530532 , 787.843874017719 -293.278554233752 , 720.544978763289 -269.287165360945 , 696.673316015846 -195.942834088216 , 572.651823666293 -122.598502815487 , 448.63033131674 -148.794031306431 , 285.266837991866 -139.628197117361 , 174.735322176612 -130.462362928291 , 64.203806361358 -66.6032807041992 , -5.43648742128267 0 , -5.43648742128267 66.6032807041992 , -5.43648742128267 94.4876480954509 , 40.0485836710925 99.3105839242957 , 48.1334549519774 Z "
       id="path11975"
       inkscape:connector-curvature="0"
       sodipodi:nodetypes="zzzzzzzzzzzzzzzzzzzzzzzzzz" />
  </g>
</svg>
