<?xml version="1.0" encoding="UTF-8" standalone="no"?>
<!-- Created with Inkscape (http://www.inkscape.org/) -->

<svg
   xmlns:dc="http://purl.org/dc/elements/1.1/"
   xmlns:cc="http://creativecommons.org/ns#"
   xmlns:rdf="http://www.w3.org/1999/02/22-rdf-syntax-ns#"
   xmlns:svg="http://www.w3.org/2000/svg"
   xmlns="http://www.w3.org/2000/svg"
   xmlns:sodipodi="http://sodipodi.sourceforge.net/DTD/sodipodi-0.dtd"
   xmlns:inkscape="http://www.inkscape.org/namespaces/inkscape"
   width="210mm"
   height="297mm"
   viewBox="0 0 744.09448819 1052.3622047"
   id="svg11416"
   version="1.1"
   inkscape:version="0.91 r13725"
   sodipodi:docname="8_13.svg">
  <defs
     id="defs11418" />
  <sodipodi:namedview
     id="base"
     pagecolor="#ffffff"
     bordercolor="#666666"
     borderopacity="1.0"
     inkscape:pageopacity="0.0"
     inkscape:pageshadow="2"
     inkscape:zoom="0.857864"
     inkscape:cx="213.94143"
     inkscape:cy="655.7204"
     inkscape:document-units="px"
     inkscape:current-layer="layer1"
     showgrid="false"
     showguides="false"
     inkscape:window-width="2560"
     inkscape:window-height="1315"
     inkscape:window-x="555"
     inkscape:window-y="89"
     inkscape:window-maximized="0" />
  <metadata
     id="metadata11421">
    <rdf:RDF>
      <cc:Work
         rdf:about="">
        <dc:format>image/svg+xml</dc:format>
        <dc:type
           rdf:resource="http://purl.org/dc/dcmitype/StillImage" />
        <dc:title />
      </cc:Work>
    </rdf:RDF>
  </metadata>
  <g
     inkscape:label="Layer 1"
     inkscape:groupmode="layer"
     id="layer1">
    <path
       style="fill:none;fill-rule:evenodd;stroke:#000000;stroke-width:11.28058147px;stroke-linecap:butt;stroke-linejoin:miter;stroke-opacity:1"
       d="M  0 , -57.8274880384135 C  187.062091861998 , -57.8274880384135 133.407620826429 , 190.685336910988 16.9899973790992 , 258.28006611819 -99.4276260682311 , 325.874795325392 -86.5331722894717 , 291.671745690497 -168.74006189384 , 337.711292870788 -250.946951498208 , 383.750840051079 -305.563988838104 , 479.36403231925 -266.898309347559 , 581.242800751624 -228.232629857014 , 683.121569183998 -167.595305812004 , 680.982242770282 -71.070009288089 , 740.037672703646 25.4552872358257 , 799.093102637011 153.151909113965 , 944.374756051566 269.04327786926 , 782.646917475781 384.934646624555 , 620.919078899997 175.897591335661 , 508.496631344392 58.7090647198819 , 479.92905487987 -58.4794618958973 , 451.361478415349 -79.3722634947559 , 462.875364979743 -141.380641034658 , 450.891233373437 -203.38901857456 , 438.90710176713 -369.387966028026 , 382.482286962823 -296.36473354266 , 202.360546308466 -223.341501057295 , 22.2388056541092 205.015279025251 , 119.286011758114 251.861713370517 , 303.00685586822 298.708147715783 , 486.727699978326 186.029639172304 , 552.166243179449 123.381553990426 , 680.38338065442 60.7334688085474 , 808.60051812939 -6.31454797275697 , 956.150399778565 -131.952542785193 , 879.377738736873 -257.590537597629 , 802.60507769518 -168.894343451864 , 683.177679169528 -105.676991444167 , 572.830614671662 -42.4596394364694 , 462.483550173797 -99.1400890303549 , 270.34308167973 -113.075197079639 , 220.081915074487 -127.010305128924 , 169.820748469244 -187.062091861998 , -57.8274880384135 0 , -57.8274880384135 Z "
       id="path11975"
       inkscape:connector-curvature="0"
       sodipodi:nodetypes="zzzzzzzzzzzzzzz" />
  </g>
</svg>
