<?xml version="1.0" encoding="UTF-8" standalone="no"?>
<!-- Created with Inkscape (http://www.inkscape.org/) -->

<svg
   xmlns:dc="http://purl.org/dc/elements/1.1/"
   xmlns:cc="http://creativecommons.org/ns#"
   xmlns:rdf="http://www.w3.org/1999/02/22-rdf-syntax-ns#"
   xmlns:svg="http://www.w3.org/2000/svg"
   xmlns="http://www.w3.org/2000/svg"
   xmlns:sodipodi="http://sodipodi.sourceforge.net/DTD/sodipodi-0.dtd"
   xmlns:inkscape="http://www.inkscape.org/namespaces/inkscape"
   width="210mm"
   height="297mm"
   viewBox="0 0 744.09448819 1052.3622047"
   id="svg12005"
   version="1.1"
   inkscape:version="0.91 r13725"
   sodipodi:docname="8_14.svg">
  <defs
     id="defs12007" />
  <sodipodi:namedview
     id="base"
     pagecolor="#ffffff"
     bordercolor="#666666"
     borderopacity="1.0"
     inkscape:pageopacity="0.0"
     inkscape:pageshadow="2"
     inkscape:zoom="0.91929541"
     inkscape:cx="273.05251"
     inkscape:cy="459.25455"
     inkscape:document-units="px"
     inkscape:current-layer="layer1"
     showgrid="false"
     inkscape:window-width="2560"
     inkscape:window-height="1315"
     inkscape:window-x="1001"
     inkscape:window-y="192"
     inkscape:window-maximized="0" />
  <metadata
     id="metadata12010">
    <rdf:RDF>
      <cc:Work
         rdf:about="">
        <dc:format>image/svg+xml</dc:format>
        <dc:type
           rdf:resource="http://purl.org/dc/dcmitype/StillImage" />
        <dc:title />
      </cc:Work>
    </rdf:RDF>
  </metadata>
  <g
     inkscape:label="Layer 1"
     inkscape:groupmode="layer"
     id="layer1">
    <path
       style="fill:none;fill-rule:evenodd;stroke:#000000;stroke-width:9.59008503px;stroke-linecap:butt;stroke-linejoin:miter;stroke-opacity:1"
       d="M  -290.466529941354 , 590.031184743089 C  -414.244067498115 , 293.542740209159 -101.70259663571 , 278.466512601323 -17.6586589377941 , 308.054581720098 66.3852787601217 , 337.642650838874 58.2632030726486 , 363.699847773222 130.166324678461 , 402.04851605201 202.069446284274 , 440.397184330797 217.080000877096 , 438.40355679765 282.31895733736 , 470.9693268752 347.557913797623 , 503.53509695275 390.610907062272 , 507.744743801698 432.753990071878 , 565.922944606999 474.897073081484 , 624.1011454123 482.367787837861 , 741.618335568047 375.460079025215 , 788.999936732364 268.552370212569 , 836.38153789668 186.586849497292 , 753.819650701065 130.039571762036 , 695.143588721952 73.4922940267796 , 636.467526742839 41.8810362735503 , 558.831639054839 -62.9767788905317 , 600.288703211196 -167.834594054614 , 641.745767367552 -178.672428462256 , 853.092871015677 -3.18967302298413 , 878.289980713998 172.293082416288 , 903.487090412318 230.868354191574 , 741.249075403209 296.53798887445 , 631.928939768813 362.207623557326 , 522.608804134417 444.248836509283 , 396.322495080114 365.268199153054 , 296.7357290154 286.287561796826 , 197.148962950686 186.054608022211 , 244.969613540569 126.135173837908 , 295.23313693128 66.215739653605 , 345.496660321992 25.14996702412 , 440.550030144562 -99.1892457855532 , 397.687862564849 -223.528458595226 , 354.825694985135 -209.536188773907 , 110.238840527241 0 , 110.238840527241 209.536188773907 , 110.238840527241 226.587707518157 , 288.770301720026 225.971509966509 , 338.710000762129 225.355312414861 , 388.649699804231 217.93652151223 , 430.248179904032 168.594414718516 , 516.769250430494 119.252307924802 , 603.290320956956 -166.688992384594 , 886.51962927702 -290.466529941354 , 590.031184743089 Z "
       id="path12564"
       inkscape:connector-curvature="0"
       sodipodi:nodetypes="zzzzzzzzzzzzzzzzz" />
  </g>
</svg>
