<?xml version="1.0" encoding="UTF-8" standalone="no"?>
<!-- Created with Inkscape (http://www.inkscape.org/) -->

<svg
   xmlns:dc="http://purl.org/dc/elements/1.1/"
   xmlns:cc="http://creativecommons.org/ns#"
   xmlns:rdf="http://www.w3.org/1999/02/22-rdf-syntax-ns#"
   xmlns:svg="http://www.w3.org/2000/svg"
   xmlns="http://www.w3.org/2000/svg"
   xmlns:sodipodi="http://sodipodi.sourceforge.net/DTD/sodipodi-0.dtd"
   xmlns:inkscape="http://www.inkscape.org/namespaces/inkscape"
   width="210mm"
   height="297mm"
   viewBox="0 0 744.09448819 1052.3622047"
   id="svg12005"
   version="1.1"
   inkscape:version="0.91 r13725"
   sodipodi:docname="8_14.svg">
  <defs
     id="defs12007" />
  <sodipodi:namedview
     id="base"
     pagecolor="#ffffff"
     bordercolor="#666666"
     borderopacity="1.0"
     inkscape:pageopacity="0.0"
     inkscape:pageshadow="2"
     inkscape:zoom="0.91929541"
     inkscape:cx="273.05251"
     inkscape:cy="459.25455"
     inkscape:document-units="px"
     inkscape:current-layer="layer1"
     showgrid="false"
     inkscape:window-width="2560"
     inkscape:window-height="1315"
     inkscape:window-x="1001"
     inkscape:window-y="192"
     inkscape:window-maximized="0" />
  <metadata
     id="metadata12010">
    <rdf:RDF>
      <cc:Work
         rdf:about="">
        <dc:format>image/svg+xml</dc:format>
        <dc:type
           rdf:resource="http://purl.org/dc/dcmitype/StillImage" />
        <dc:title />
      </cc:Work>
    </rdf:RDF>
  </metadata>
  <g
     inkscape:label="Layer 1"
     inkscape:groupmode="layer"
     id="layer1">
    <path
       style="fill:none;fill-rule:evenodd;stroke:#000000;stroke-width:9.59008503px;stroke-linecap:butt;stroke-linejoin:miter;stroke-opacity:1"
       d="M  -344.203847753389 , 464.223137789065 C  -339.547230722835 , 451.187788720593 -324.038957642071 , 410.116319998217 -284.35076977983 , 369.454231793721 -244.662581917589 , 328.792143589225 -159.459093193099 , 273.824281948758 -60.9750824528272 , 292.829410772232 37.5089282874446 , 311.834539595706 33.917127178846 , 352.453307022984 110.69452391098 , 397.065951373569 187.471920643114 , 441.678595724154 207.177121222678 , 438.439755001774 287.741362607364 , 479.516851789159 368.30560399205 , 520.593948576544 413.557394090295 , 536.104526100452 443.296036085042 , 591.839223172383 473.034678079789 , 647.573920244314 455.282915667659 , 695.198219455868 451.316444438613 , 705.269680453507 447.349973209567 , 715.341141451146 422.158206891702 , 776.930593428901 344.128922345607 , 785.34314197994 266.099637799512 , 793.755690530979 208.877915858076 , 740.749921130866 149.957833813657 , 688.371743858243 91.037751769238 , 635.99356658562 33.7261037258277 , 561.500008765717 -47.5154197242618 , 616.453124632459 -128.756943174351 , 671.406240499201 -88.1935469353601 , 775.727722776489 -51.0475189044213 , 813.923261036993 -13.9014908734825 , 852.118799297497 28.8707612994412 , 858.119265761445 39.8026430126512 , 859.496890288708 50.7345247258612 , 860.874514815971 100.525168487442 , 866.568715685584 156.463331003855 , 832.411942868392 212.401493520268 , 798.2551700512 234.681276339554 , 753.905315167213 303.14264788029 , 639.230633797303 371.604019421026 , 524.555952427393 398.562842719654 , 491.066962721789 400.964353647017 , 427.398460561729 403.36586457438 , 363.729958401669 373.737098697645 , 323.22685797472 366.656058253595 , 313.83816525566 359.575017809545 , 304.4494725366 338.123364925324 , 277.696075432261 298.983101845234 , 261.324215244164 259.842838765144 , 244.952355056067 201.000800332316 , 237.636565926716 118.966279964116 , 283.644246916453 36.931759595916 , 329.65192790619 36.7493601771822 , 384.157606495981 -59.7813152392366 , 392.764977822892 -156.311990655655 , 401.372349149803 -242.124521607244 , 296.311040791439 -190.034611250834 , 185.304223266244 -137.944700894424 , 74.297405741049 -14.7970617214219 , 73.7410034333502 0 , 73.7410034333502 14.7970617214219 , 73.7410034333502 84.6668756589821 , 74.7865837981841 144.943202349602 , 134.713521508445 205.219529040222 , 194.640459218706 213.635238799445 , 276.889077467747 208.32712903529 , 340.157017666588 203.019019271135 , 403.424957865429 193.07663010847 , 425.356772438145 149.244207688066 , 519.115529428556 105.411785267662 , 612.874286418967 -64.6719144901719 , 830.314512261275 -233.647221330709 , 728.996592270589 -402.622528171246 , 627.678672279903 -348.860464783943 , 477.258486857537 -344.203847753389 , 464.223137789065 Z "
       id="path12564"
       inkscape:connector-curvature="0"
       sodipodi:nodetypes="zzzzzzzzzzzzzzzzzzzzzzzzzz" />
  </g>
</svg>
