<?xml version="1.0" encoding="UTF-8" standalone="no"?>
<!-- Created with Inkscape (http://www.inkscape.org/) -->

<svg
   xmlns:dc="http://purl.org/dc/elements/1.1/"
   xmlns:cc="http://creativecommons.org/ns#"
   xmlns:rdf="http://www.w3.org/1999/02/22-rdf-syntax-ns#"
   xmlns:svg="http://www.w3.org/2000/svg"
   xmlns="http://www.w3.org/2000/svg"
   xmlns:sodipodi="http://sodipodi.sourceforge.net/DTD/sodipodi-0.dtd"
   xmlns:inkscape="http://www.inkscape.org/namespaces/inkscape"
   width="210mm"
   height="297mm"
   viewBox="0 0 744.09448819 1052.3622047"
   id="svg12594"
   version="1.1"
   inkscape:version="0.91 r13725"
   sodipodi:docname="8_15.svg">
  <defs
     id="defs12596" />
  <sodipodi:namedview
     id="base"
     pagecolor="#ffffff"
     bordercolor="#666666"
     borderopacity="1.0"
     inkscape:pageopacity="0.0"
     inkscape:pageshadow="2"
     inkscape:zoom="0.41995484"
     inkscape:cx="431.7945"
     inkscape:cy="561.2416"
     inkscape:document-units="px"
     inkscape:current-layer="layer1"
     showgrid="false"
     inkscape:window-width="2560"
     inkscape:window-height="1315"
     inkscape:window-x="0"
     inkscape:window-y="1"
     inkscape:window-maximized="1" />
  <metadata
     id="metadata12599">
    <rdf:RDF>
      <cc:Work
         rdf:about="">
        <dc:format>image/svg+xml</dc:format>
        <dc:type
           rdf:resource="http://purl.org/dc/dcmitype/StillImage" />
        <dc:title />
      </cc:Work>
    </rdf:RDF>
  </metadata>
  <g
     inkscape:label="Layer 1"
     inkscape:groupmode="layer"
     id="layer1">
    <path
       style="fill:none;fill-rule:evenodd;stroke:#000000;stroke-width:12.54376698px;stroke-linecap:butt;stroke-linejoin:miter;stroke-opacity:1"
       d="M  236.565642268893 , -2.27483959436617 C  395.210573340984 , 148.228116210279 319.357228380778 , 337.266062067334 267.99012049774 , 401.39584773112 216.623012614702 , 465.525633394906 126.82147357001 , 545.804171659374 0 , 545.804171659374 -126.82147357001 , 545.804171659374 -216.623012614702 , 465.525633394906 -267.99012049774 , 401.39584773112 -319.357228380778 , 337.266062067334 -395.210573340984 , 148.228116210279 -236.565642268893 , -2.27483959436617 -77.920711196802 , -152.777795399011 49.9648816071036 , -16.5085312149306 44.8794117235275 , 77.4135223168362 39.7939418399514 , 171.335575848603 -5.58847531339993 , 172.440724424072 -51.0694200021461 , 244.316291700184 -96.5503646908923 , 316.191858976296 -171.029464418123 , 529.346406367639 -287.661515422754 , 562.65134629027 -404.293566427385 , 595.956286212901 -483.340649446203 , 488.177197197928 -447.549011299457 , 393.972315177151 -411.757373152711 , 299.767433156374 -303.324777891986 , 261.539110936124 -209.920581083296 , 292.15469193398 -116.516384274606 , 322.770272931836 -89.0162681355056 , 364.191081548082 0 , 364.191081548082 89.0162681355056 , 364.191081548082 116.516384274606 , 322.770272931836 209.920581083296 , 292.15469193398 303.324777891986 , 261.539110936124 411.757373152711 , 299.767433156374 447.549011299457 , 393.972315177151 483.340649446203 , 488.177197197928 404.293566427385 , 595.956286212901 287.661515422754 , 562.65134629027 171.029464418123 , 529.346406367639 96.5503646908923 , 316.191858976296 51.0694200021461 , 244.316291700184 5.58847531339993 , 172.440724424072 -39.7939418399514 , 171.335575848603 -44.8794117235275 , 77.4135223168362 -49.9648816071036 , -16.5085312149306 77.920711196802 , -152.777795399011 236.565642268893 , -2.27483959436617 Z "
       id="path13153"
       inkscape:connector-curvature="0"
       sodipodi:nodetypes="zzzzzzzzzzzzzzzzz" />
  </g>
</svg>
