<?xml version="1.0" encoding="UTF-8" standalone="no"?>
<!-- Created with Inkscape (http://www.inkscape.org/) -->

<svg
   xmlns:dc="http://purl.org/dc/elements/1.1/"
   xmlns:cc="http://creativecommons.org/ns#"
   xmlns:rdf="http://www.w3.org/1999/02/22-rdf-syntax-ns#"
   xmlns:svg="http://www.w3.org/2000/svg"
   xmlns="http://www.w3.org/2000/svg"
   xmlns:sodipodi="http://sodipodi.sourceforge.net/DTD/sodipodi-0.dtd"
   xmlns:inkscape="http://www.inkscape.org/namespaces/inkscape"
   width="210mm"
   height="297mm"
   viewBox="0 0 744.09448819 1052.3622047"
   id="svg12594"
   version="1.1"
   inkscape:version="0.91 r13725"
   sodipodi:docname="8_15.svg">
  <defs
     id="defs12596" />
  <sodipodi:namedview
     id="base"
     pagecolor="#ffffff"
     bordercolor="#666666"
     borderopacity="1.0"
     inkscape:pageopacity="0.0"
     inkscape:pageshadow="2"
     inkscape:zoom="0.41995484"
     inkscape:cx="431.7945"
     inkscape:cy="561.2416"
     inkscape:document-units="px"
     inkscape:current-layer="layer1"
     showgrid="false"
     inkscape:window-width="2560"
     inkscape:window-height="1315"
     inkscape:window-x="0"
     inkscape:window-y="1"
     inkscape:window-maximized="1" />
  <metadata
     id="metadata12599">
    <rdf:RDF>
      <cc:Work
         rdf:about="">
        <dc:format>image/svg+xml</dc:format>
        <dc:type
           rdf:resource="http://purl.org/dc/dcmitype/StillImage" />
        <dc:title />
      </cc:Work>
    </rdf:RDF>
  </metadata>
  <g
     inkscape:label="Layer 1"
     inkscape:groupmode="layer"
     id="layer1">
    <path
       style="fill:none;fill-rule:evenodd;stroke:#000000;stroke-width:12.54376698px;stroke-linecap:butt;stroke-linejoin:miter;stroke-opacity:1"
       d="M 262.5256,-66.515063 C 527.76178,8.518863 410.14265,265.46198 358.42871,410.86908 306.71477,556.27615 167.02187,689.15679 19.57128,690.05356 -127.87931,690.9503 -266.31897,548.11317 -327.8109,410.86908 -389.30282,273.62498 -424.47051,40.828092 -304.36797,-45.203193 -184.26542,-131.2345 129.55791,-84.101918 132.52363,50.699912 135.48948,185.50163 49.665029,202.9125 -31.577182,289.39186 -112.81927,375.87122 -311.6209,573.81159 -378.95923,532.34629 -446.29756,490.88099 -491.80833,484.23205 -466.33761,404.47552 -440.86686,324.71898 -358.12379,234.98453 -263.87557,244.63707 -169.62735,254.28963 -87.135154,425.70759 8.9153498,427.91844 104.96585,430.12927 203.89327,250.31865 285.96864,251.03063 368.044,251.74263 458.71399,320.30973 476.15359,356.3101 493.59306,392.31031 506.9109,433.60152 426.62654,530.21497 346.34215,626.82844 150.6071,380.09646 81.37542,291.52305 12.143614,202.94951 -50.95454,166.6866 -66.568395,75.020781 -82.182248,-16.645063 -2.7105891,-141.54899 262.5256,-66.515063 Z"
       id="path13153"
       inkscape:connector-curvature="0"
       sodipodi:nodetypes="zzzzzzzzzzzzzzzzz" />
  </g>
</svg>
