<?xml version="1.0" encoding="UTF-8" standalone="no"?>
<!-- Created with Inkscape (http://www.inkscape.org/) -->

<svg
   xmlns:dc="http://purl.org/dc/elements/1.1/"
   xmlns:cc="http://creativecommons.org/ns#"
   xmlns:rdf="http://www.w3.org/1999/02/22-rdf-syntax-ns#"
   xmlns:svg="http://www.w3.org/2000/svg"
   xmlns="http://www.w3.org/2000/svg"
   xmlns:sodipodi="http://sodipodi.sourceforge.net/DTD/sodipodi-0.dtd"
   xmlns:inkscape="http://www.inkscape.org/namespaces/inkscape"
   width="210mm"
   height="297mm"
   viewBox="0 0 744.09448819 1052.3622047"
   id="svg13183"
   version="1.1"
   inkscape:version="0.91 r13725"
   sodipodi:docname="8_16.svg">
  <defs
     id="defs13185" />
  <sodipodi:namedview
     id="base"
     pagecolor="#ffffff"
     bordercolor="#666666"
     borderopacity="1.0"
     inkscape:pageopacity="0.0"
     inkscape:pageshadow="2"
     inkscape:zoom="1.4420126"
     inkscape:cx="-63.248121"
     inkscape:cy="466.88167"
     inkscape:document-units="px"
     inkscape:current-layer="layer1"
     showgrid="false"
     inkscape:window-width="2560"
     inkscape:window-height="1315"
     inkscape:window-x="0"
     inkscape:window-y="1"
     inkscape:window-maximized="1" />
  <metadata
     id="metadata13188">
    <rdf:RDF>
      <cc:Work
         rdf:about="">
        <dc:format>image/svg+xml</dc:format>
        <dc:type
           rdf:resource="http://purl.org/dc/dcmitype/StillImage" />
        <dc:title />
      </cc:Work>
    </rdf:RDF>
  </metadata>
  <g
     inkscape:label="Layer 1"
     inkscape:groupmode="layer"
     id="layer1">
    <path
       style="fill:none;fill-rule:evenodd;stroke:#000000;stroke-width:10.2963438px;stroke-linecap:butt;stroke-linejoin:miter;stroke-opacity:1"
       d="M  206.120957635405 , 269.084409254541 C  217.593118130154 , 279.287235849676 254.451537479558 , 314.354852082724 267.228538646892 , 382.103086755342 280.005539814226 , 449.85132142796 266.541116778651 , 529.094065554603 203.293762553309 , 665.89450833406 140.046408327967 , 802.694951113517 111.190024627883 , 834.746704305894 76.4607133130876 , 855.753954146189 41.7314019982921 , 876.761203986484 9.63528732794021 , 877.453558288831 0 , 877.453558288831 -9.63528732794021 , 877.453558288831 -41.7314019982921 , 876.761203986484 -76.4607133130876 , 855.753954146189 -111.190024627883 , 834.746704305894 -140.046408327967 , 802.694951113517 -203.293762553309 , 665.89450833406 -266.541116778651 , 529.094065554603 -280.005539814226 , 449.85132142796 -267.228538646892 , 382.103086755342 -254.451537479558 , 314.354852082724 -217.593118130154 , 279.287235849676 -206.120957635405 , 269.084409254541 -194.648797140656 , 258.881582659406 -153.379859317113 , 224.587173981653 -92.2314762392794 , 229.531884382712 -31.0830931614458 , 234.476594783771 12.06434766395 , 274.895181686809 60.9021798788805 , 353.295444062125 109.740012093811 , 431.695706437441 114.018767657794 , 504.766625367311 75.727915144772 , 592.229639906599 37.4370626317496 , 679.692654445887 -148.693612311446 , 842.442345969157 -253.508327804024 , 851.263355268588 -358.323043296602 , 860.084364568019 -402.602095427822 , 788.328885128483 -408.8670816051 , 778.041654268551 -415.132067782378 , 767.754423408619 -467.733069668844 , 680.600133183669 -385.142363680555 , 584.602248733445 -302.551657692266 , 488.604364283221 -42.1684599729308 , 490.564876082907 0 , 490.564876082907 42.1684599729308 , 490.564876082907 302.551657692266 , 488.604364283221 385.142363680555 , 584.602248733445 467.733069668844 , 680.600133183669 415.132067782378 , 767.754423408619 408.8670816051 , 778.041654268551 402.602095427822 , 788.328885128483 358.323043296602 , 860.084364568019 253.508327804024 , 851.263355268588 148.693612311446 , 842.442345969157 -37.4370626317496 , 679.692654445887 -75.727915144772 , 592.229639906599 -114.018767657794 , 504.766625367311 -109.740012093811 , 431.695706437441 -60.9021798788805 , 353.295444062125 -12.06434766395 , 274.895181686809 31.0830931614458 , 234.476594783771 92.2314762392794 , 229.531884382712 153.379859317113 , 224.587173981653 194.648797140656 , 258.881582659406 206.120957635405 , 269.084409254541 Z "
       id="path13742"
       inkscape:connector-curvature="0"
       sodipodi:nodetypes="zzzzzzzzzzzzzzzzzzzzzzz" />
  </g>
</svg>
