<?xml version="1.0" encoding="UTF-8" standalone="no"?>
<!-- Created with Inkscape (http://www.inkscape.org/) -->

<svg
   xmlns:dc="http://purl.org/dc/elements/1.1/"
   xmlns:cc="http://creativecommons.org/ns#"
   xmlns:rdf="http://www.w3.org/1999/02/22-rdf-syntax-ns#"
   xmlns:svg="http://www.w3.org/2000/svg"
   xmlns="http://www.w3.org/2000/svg"
   xmlns:sodipodi="http://sodipodi.sourceforge.net/DTD/sodipodi-0.dtd"
   xmlns:inkscape="http://www.inkscape.org/namespaces/inkscape"
   width="210mm"
   height="297mm"
   viewBox="0 0 744.09448819 1052.3622047"
   id="svg13183"
   version="1.1"
   inkscape:version="0.91 r13725"
   sodipodi:docname="8_16.svg">
  <defs
     id="defs13185" />
  <sodipodi:namedview
     id="base"
     pagecolor="#ffffff"
     bordercolor="#666666"
     borderopacity="1.0"
     inkscape:pageopacity="0.0"
     inkscape:pageshadow="2"
     inkscape:zoom="0.3157872"
     inkscape:cx="151.72919"
     inkscape:cy="-198.85452"
     inkscape:document-units="px"
     inkscape:current-layer="layer1"
     showgrid="false"
     inkscape:window-width="2560"
     inkscape:window-height="1315"
     inkscape:window-x="0"
     inkscape:window-y="1"
     inkscape:window-maximized="1" />
  <metadata
     id="metadata13188">
    <rdf:RDF>
      <cc:Work
         rdf:about="">
        <dc:format>image/svg+xml</dc:format>
        <dc:type
           rdf:resource="http://purl.org/dc/dcmitype/StillImage" />
        <dc:title />
      </cc:Work>
    </rdf:RDF>
  </metadata>
  <g
     inkscape:label="Layer 1"
     inkscape:groupmode="layer"
     id="layer1">
    <path
       style="fill:none;fill-rule:evenodd;stroke:#000000;stroke-width:10.2963438px;stroke-linecap:butt;stroke-linejoin:miter;stroke-opacity:1"
       d="M  199.368552020518 , 260.520938373604 C  341.232933744701 , 367.897397479362 243.433436295863 , 582.092180982235 192.289928036337 , 686.882328434488 141.146419776812 , 791.672475886741 107.554454096973 , 882.729467228943 0 , 882.729467228943 -107.554454096973 , 882.729467228943 -141.146419776812 , 791.672475886741 -192.289928036337 , 686.882328434488 -243.433436295863 , 582.092180982235 -341.232933744701 , 367.897397479362 -199.368552020518 , 260.520938373604 -57.5041702963354 , 153.144479267846 41.8486053461352 , 313.082982679734 74.2003738671221 , 376.778530628917 106.552142388109 , 440.4740785781 115.183283436335 , 508.646166004383 78.7452992165123 , 593.997840496794 42.3073149966892 , 679.349514989205 -146.532647966973 , 861.032853061445 -273.643878957922 , 851.849136769721 -400.75510994887 , 842.665420477997 -466.671571362788 , 703.605123339961 -385.620793660353 , 596.900759446417 -304.570015957918 , 490.196395552873 -48.0279669134429 , 495.425330768442 0 , 495.425330768442 48.0279669134429 , 495.425330768442 304.570015957918 , 490.196395552873 385.620793660353 , 596.900759446417 466.671571362788 , 703.605123339961 400.75510994887 , 842.665420477997 273.643878957922 , 851.849136769721 146.532647966973 , 861.032853061445 -42.3073149966892 , 679.349514989205 -78.7452992165123 , 593.997840496794 -115.183283436335 , 508.646166004383 -106.552142388109 , 440.4740785781 -74.2003738671221 , 376.778530628917 -41.8486053461352 , 313.082982679734 57.5041702963354 , 153.144479267846 199.368552020518 , 260.520938373604 Z "
       id="path13742"
       inkscape:connector-curvature="0"
       sodipodi:nodetypes="zzzzzzzzzzzzzzz" />
  </g>
</svg>
