<?xml version="1.0" encoding="UTF-8" standalone="no"?>
<!-- Created with Inkscape (http://www.inkscape.org/) -->

<svg
   xmlns:dc="http://purl.org/dc/elements/1.1/"
   xmlns:cc="http://creativecommons.org/ns#"
   xmlns:rdf="http://www.w3.org/1999/02/22-rdf-syntax-ns#"
   xmlns:svg="http://www.w3.org/2000/svg"
   xmlns="http://www.w3.org/2000/svg"
   xmlns:sodipodi="http://sodipodi.sourceforge.net/DTD/sodipodi-0.dtd"
   xmlns:inkscape="http://www.inkscape.org/namespaces/inkscape"
   width="210mm"
   height="297mm"
   viewBox="0 0 744.09448819 1052.3622047"
   id="svg4142"
   version="1.1"
   inkscape:version="0.91 r13725"
   sodipodi:docname="8_17.svg">
  <defs
     id="defs4144" />
  <sodipodi:namedview
     id="base"
     pagecolor="#ffffff"
     bordercolor="#666666"
     borderopacity="1.0"
     inkscape:pageopacity="0.0"
     inkscape:pageshadow="2"
     inkscape:zoom="0.58611872"
     inkscape:cx="324.60084"
     inkscape:cy="921.20323"
     inkscape:document-units="px"
     inkscape:current-layer="layer1"
     showgrid="false"
     inkscape:window-width="1215"
     inkscape:window-height="748"
     inkscape:window-x="311"
     inkscape:window-y="529"
     inkscape:window-maximized="0" />
  <metadata
     id="metadata4147">
    <rdf:RDF>
      <cc:Work
         rdf:about="">
        <dc:format>image/svg+xml</dc:format>
        <dc:type
           rdf:resource="http://purl.org/dc/dcmitype/StillImage" />
        <dc:title />
      </cc:Work>
    </rdf:RDF>
  </metadata>
  <g
     inkscape:label="Layer 1"
     inkscape:groupmode="layer"
     id="layer1">
    <path
       style="fill:none;stroke:#000000;stroke-width:9.72444248px;stroke-linecap:butt;stroke-linejoin:miter;stroke-opacity:1"
       d="M  -178.23229390763 , -284.37651920888 C  -95.5211976144194 , -287.534674892632 -27.7816173957245 , -230.695699525022 17.7670303113929 , -184.866254370323 63.3156780185102 , -139.036809215625 90.1245662208754 , -90.8410068165544 116.302463662704 , 10.023330737282 142.480361104533 , 110.887668291118 118.643123817555 , 177.0021062442 83.684578304462 , 211.41154454986 48.7260327913691 , 245.820982855519 9.68816660538042 , 246.660896699186 0 , 246.660896699186 -9.68816660538042 , 246.660896699186 -53.9369491159322 , 245.667510114312 -86.547753846229 , 200.31669221717 -119.158558576526 , 154.965874320027 -111.836581624302 , 111.13295584944 -110.478493910998 , 31.5279900665393 -109.120406197694 , -48.0769757163619 -127.751646531157 , -60.5327192022775 -103.029979660467 , -153.566425346635 -78.3083127897762 , -246.600131490993 -34.2964026021035 , -306.593759683347 36.7979926299885 , -322.996451702815 107.892387862081 , -339.399143722282 179.053833755193 , -306.444358147881 219.998927728983 , -246.319253091144 260.944021702773 , -186.194148034406 262.709013235563 , -122.640001564821 249.635690832859 , 18.0307549414507 236.562368430156 , 158.701511447723 252.633263522013 , 239.13903406028 140.047885669341 , 326.409971716285 27.4625078166685 , 413.68090937229 -94.2781108175775 , 386.625681652106 -140.058471719641 , 370.627154125506 -185.838832621705 , 354.628626598907 -268.808750619461 , 311.317385204915 -297.845567994688 , 214.990220879341 -326.882385369915 , 118.663056553767 -275.766335111659 , 37.9648547368914 -206.796255611485 , -6.63079507993516 -137.826176111311 , -51.2264448967618 -113.029648448836 , -33.0579091088229 -17.1843423721024 , -57.2401296173341 78.6609637046316 , -81.4223501258453 87.0917099360293 , -99.2340346964679 166.271623071717 , -120.177286294597 245.451536207404 , -141.120537892727 316.685557956846 , -146.157172771533 374.837887719334 , -105.339906573814 432.990217481822 , -64.5226403760948 437.564003789374 , -7.04929296414031 438.311848217624 , 3.74919254710395 439.059692645875 , 14.5476780583482 444.532725454537 , 98.6771610703802 353.79623161421 , 144.54840289119 263.059737773883 , 190.419644711999 113.454726522093 , 124.936825094205 -3.16942334974688 , 116.113767612918 -119.793573221587 , 107.290710131632 -128.144636820402 , 120.684436226359 -198.754134745122 , 100.169633751863 -269.363632669841 , 79.6548312773668 -328.725037366819 , 42.758354273034 -354.19327346 , -27.2955082551645 -379.661509553181 , -97.3493707833629 -358.351181377588 , -158.281503313558 -335.405777467403 , -194.233108284067 -312.460373557218 , -230.184713254577 -260.94339020084 , -281.218363525127 -178.23229390763 , -284.37651920888 Z "
       id="path4710"
       inkscape:connector-curvature="0"
       sodipodi:nodetypes="zzzzzzzzzzzzzzzzzzzzzzzzz" />
  </g>
</svg>
