<?xml version="1.0" encoding="UTF-8" standalone="no"?>
<!-- Created with Inkscape (http://www.inkscape.org/) -->

<svg
   xmlns:dc="http://purl.org/dc/elements/1.1/"
   xmlns:cc="http://creativecommons.org/ns#"
   xmlns:rdf="http://www.w3.org/1999/02/22-rdf-syntax-ns#"
   xmlns:svg="http://www.w3.org/2000/svg"
   xmlns="http://www.w3.org/2000/svg"
   xmlns:sodipodi="http://sodipodi.sourceforge.net/DTD/sodipodi-0.dtd"
   xmlns:inkscape="http://www.inkscape.org/namespaces/inkscape"
   width="210mm"
   height="297mm"
   viewBox="0 0 744.09448819 1052.3622047"
   id="svg4142"
   version="1.1"
   inkscape:version="0.48.4 r9939"
   sodipodi:docname="8_17.svg">
  <defs
     id="defs4144" />
  <sodipodi:namedview
     id="base"
     pagecolor="#ffffff"
     bordercolor="#666666"
     borderopacity="1.0"
     inkscape:pageopacity="0.0"
     inkscape:pageshadow="2"
     inkscape:zoom="0.47232004"
     inkscape:cx="7.1954051"
     inkscape:cy="1047.0879"
     inkscape:document-units="px"
     inkscape:current-layer="layer1"
     showgrid="false"
     inkscape:window-width="1594"
     inkscape:window-height="817"
     inkscape:window-x="595"
     inkscape:window-y="103"
     inkscape:window-maximized="0" />
  <metadata
     id="metadata4147">
    <rdf:RDF>
      <cc:Work
         rdf:about="">
        <dc:format>image/svg+xml</dc:format>
        <dc:type
           rdf:resource="http://purl.org/dc/dcmitype/StillImage" />
        <dc:title />
      </cc:Work>
    </rdf:RDF>
  </metadata>
  <g
     inkscape:label="Layer 1"
     inkscape:groupmode="layer"
     id="layer1">
    <path
       style="fill:none;stroke:#000000;stroke-width:9.72444248px;stroke-linecap:butt;stroke-linejoin:miter;stroke-opacity:1"
       d="M  -285.755807591296 , -270.845655039279 C  -137.861482607871 , -355.278837851866 -20.4326994537872 , -248.460220241477 52.0532374963908 , -183.046683286444 124.539174446569 , -117.633146331411 141.247211847845 , -28.3739841999211 145.227343570992 , -0.11121899004464 149.20747529414 , 28.1515462198318 168.607985599106 , 216.621575363445 0 , 216.621575363445 -168.607985599106 , 216.621575363445 -101.155429119924 , -123.723154297295 -86.3352131364887 , -175.70072960299 -71.5149971530531 , -227.678304908684 -17.6906197508932 , -374.483423838724 126.571447197106 , -314.356691583561 270.833514145106 , -254.229959328398 267.062918757776 , -88.2278008339097 265.091280070119 , -1.87923618107083 263.119641382462 , 84.4693284717681 262.875366653093 , 236.756194229055 140.000275639297 , 312.53048005077 17.1251846255002 , 388.304765872484 -137.58772393799 , 354.311128054571 -210.001516794927 , 247.894008521277 -282.415309651864 , 141.476888987982 -242.976090454311 , 31.0697362773044 -182.105276320173 , -8.6243866564781 -121.234462186035 , -48.3185095902606 -103.069100960381 , -12.62920473659 2.83443051792618 , -42.8903248920854 108.737961996233 , -73.1514450475808 273.016706379015 , -186.555624130343 389.687547944545 , -114.019788625016 506.358389510075 , -41.4839531196893 472.678932761438 , 101.732080435993 370.180736902044 , 140.165238205628 267.68254104265 , 178.598395975263 141.340744856555 , 96.7373645809283 15.9340300512368 , 90.8520452602881 -109.472684754082 , 84.9667259396479 -257.280608414008 , 148.013303797958 -351.565024605926 , 55.8752696153456 -445.849440797844 , -36.2627645672665 -433.650132574721 , -186.412472226692 -285.755807591296 , -270.845655039279 Z "
       id="path4710"
       inkscape:connector-curvature="0"
       sodipodi:nodetypes="zzzzzzzzzzzzzzzz" />
  </g>
</svg>
