<?xml version="1.0" encoding="UTF-8" standalone="no"?>
<!-- Created with Inkscape (http://www.inkscape.org/) -->

<svg
   xmlns:dc="http://purl.org/dc/elements/1.1/"
   xmlns:cc="http://creativecommons.org/ns#"
   xmlns:rdf="http://www.w3.org/1999/02/22-rdf-syntax-ns#"
   xmlns:svg="http://www.w3.org/2000/svg"
   xmlns="http://www.w3.org/2000/svg"
   xmlns:sodipodi="http://sodipodi.sourceforge.net/DTD/sodipodi-0.dtd"
   xmlns:inkscape="http://www.inkscape.org/namespaces/inkscape"
   width="744.09448819"
   height="1052.3622047"
   id="svg2983"
   version="1.1"
   inkscape:version="0.91 r13725"
   sodipodi:docname="8_18.svg">
  <defs
     id="defs2985" />
  <sodipodi:namedview
     id="base"
     pagecolor="#ffffff"
     bordercolor="#666666"
     borderopacity="1.0"
     inkscape:pageopacity="0.0"
     inkscape:pageshadow="2"
     inkscape:zoom="1.5494213"
     inkscape:cx="-27.504642"
     inkscape:cy="1056.6896"
     inkscape:document-units="px"
     inkscape:current-layer="layer1"
     showgrid="false"
     inkscape:window-width="2560"
     inkscape:window-height="1315"
     inkscape:window-x="295"
     inkscape:window-y="163"
     inkscape:window-maximized="0" />
  <metadata
     id="metadata2988">
    <rdf:RDF>
      <cc:Work
         rdf:about="">
        <dc:format>image/svg+xml</dc:format>
        <dc:type
           rdf:resource="http://purl.org/dc/dcmitype/StillImage" />
        <dc:title />
      </cc:Work>
    </rdf:RDF>
  </metadata>
  <g
     inkscape:label="Layer 1"
     inkscape:groupmode="layer"
     id="layer1">
    <path
       style="fill:none;stroke:#000000;stroke-width:1px;stroke-linecap:butt;stroke-linejoin:miter;stroke-opacity:1"
       d="M  207.22984052426 , -279.247775725883 C  129.841660887316 , -289.386925960941 31.6051544946034 , -256.351605902329 -22.8744121857558 , -198.401771273265 -77.353978866115 , -140.451936644201 -68.8559693153911 , -102.748864517679 -82.6583788478646 , -39.0058829662056 -96.4607883803381 , 24.7370985852678 -171.748182624625 , 320.840719511685 10.1244873700304 , 382.229727527601 191.997157364686 , 443.618735543517 269.108625490825 , 284.618020161204 279.247775725883 , 207.22984052426 289.386925960941 , 129.841660887316 256.351605902329 , 31.6051544946034 198.401771273265 , -22.8744121857558 140.451936644201 , -77.353978866115 102.748864517679 , -68.8559693153911 39.0058829662056 , -82.6583788478646 -24.7370985852678 , -96.4607883803381 -320.840719511685 , -171.748182624625 -382.229727527601 , 10.1244873700305 -443.618735543517 , 191.997157364686 -284.618020161204 , 269.108625490825 -207.22984052426 , 279.247775725883 -129.841660887316 , 289.386925960941 -31.6051544946034 , 256.351605902329 22.8744121857558 , 198.401771273265 77.353978866115 , 140.451936644201 68.8559693153911 , 102.748864517679 82.6583788478646 , 39.0058829662056 96.4607883803381 , -24.7370985852678 171.748182624625 , -320.840719511685 -10.1244873700304 , -382.229727527601 -191.997157364686 , -443.618735543517 -269.108625490825 , -284.618020161204 -279.247775725883 , -207.22984052426 -289.386925960941 , -129.841660887316 -256.351605902329 , -31.6051544946034 -198.401771273265 , 22.8744121857558 -140.451936644201 , 77.353978866115 -102.748864517679 , 68.8559693153911 -39.0058829662056 , 82.6583788478646 24.7370985852678 , 96.4607883803381 320.840719511685 , 171.748182624625 382.229727527601 , -10.1244873700304 443.618735543517 , -191.997157364686 284.618020161204 , -269.108625490825 207.22984052426 , -279.247775725883 Z "
       id="path2991"
       inkscape:connector-curvature="0"
       sodipodi:nodetypes="zzzzzzzzzzzzzzzzz" />
  </g>
</svg>
