<?xml version="1.0" encoding="UTF-8" standalone="no"?>
<!-- Created with Inkscape (http://www.inkscape.org/) -->

<svg
   xmlns:dc="http://purl.org/dc/elements/1.1/"
   xmlns:cc="http://creativecommons.org/ns#"
   xmlns:rdf="http://www.w3.org/1999/02/22-rdf-syntax-ns#"
   xmlns:svg="http://www.w3.org/2000/svg"
   xmlns="http://www.w3.org/2000/svg"
   xmlns:sodipodi="http://sodipodi.sourceforge.net/DTD/sodipodi-0.dtd"
   xmlns:inkscape="http://www.inkscape.org/namespaces/inkscape"
   width="210mm"
   height="297mm"
   viewBox="0 0 744.09448819 1052.3622047"
   id="svg2"
   version="1.1"
   inkscape:version="0.48.4 r9939"
   sodipodi:docname="8_19.svg">
  <defs
     id="defs4" />
  <sodipodi:namedview
     id="base"
     pagecolor="#ffffff"
     bordercolor="#666666"
     borderopacity="1.0"
     inkscape:pageopacity="0.0"
     inkscape:pageshadow="2"
     inkscape:zoom="0.7416992"
     inkscape:cx="93.170878"
     inkscape:cy="910.90965"
     inkscape:document-units="px"
     inkscape:current-layer="layer1"
     showgrid="false"
     inkscape:window-width="1600"
     inkscape:window-height="824"
     inkscape:window-x="-3"
     inkscape:window-y="-3"
     inkscape:window-maximized="1" />
  <metadata
     id="metadata7">
    <rdf:RDF>
      <cc:Work
         rdf:about="">
        <dc:format>image/svg+xml</dc:format>
        <dc:type
           rdf:resource="http://purl.org/dc/dcmitype/StillImage" />
        <dc:title />
      </cc:Work>
    </rdf:RDF>
  </metadata>
  <g
     inkscape:label="Layer 1"
     inkscape:groupmode="layer"
     id="layer1">
    <path
       style="fill:none;stroke:#000000;stroke-width:2.01427126px;stroke-linecap:butt;stroke-linejoin:miter;stroke-opacity:1"
       d="M  182.772435057093 , 167.568156255972 C  85.1599528766119 , 148.317700614866 63.0553326421661 , 135.161195787134 0 , 135.161195787134 -63.0553326421661 , 135.161195787134 -85.1599528766119 , 148.317700614866 -182.772435057093 , 167.568156255972 -280.384917237573 , 186.818611897078 -370.342597403689 , 210.202616529644 -402.644128490631 , 297.241984007129 -434.945659577573 , 384.281351484614 -375.138053428409 , 467.046401916691 -289.729945242898 , 473.279215232468 -204.321837057387 , 479.512028548245 -161.725604843836 , 426.549607062023 -84.4037386206951 , 360.386950881696 -7.08187239755443 , 294.224294701369 139.357307323344 , 176.534367565992 74.0794316604002 , 13.9374235501358 8.80155599745609 , -148.65952046572 -81.9751951833735 , -158.70492510895 -135.730066682331 , -152.407309720332 -189.484938181288 , -146.109694331714 -275.395810243817 , -107.616554066775 -308.355216656292 , 7.77583182183806 -341.314623068766 , 123.168217710451 -290.008708264371 , 223.272052675675 -235.206494728181 , 318.335299675929 -180.40428119199 , 413.398546676182 -126.861540588056 , 509.619454023377 0 , 509.619454023377 126.861540588056 , 509.619454023377 180.40428119199 , 413.398546676182 235.206494728181 , 318.335299675929 290.008708264371 , 223.272052675675 341.314623068766 , 123.168217710451 308.355216656292 , 7.77583182183806 275.395810243817 , -107.616554066775 189.484938181288 , -146.109694331714 135.730066682331 , -152.407309720332 81.9751951833735 , -158.70492510895 -8.80155599745609 , -148.65952046572 -74.0794316604002 , 13.9374235501358 -139.357307323344 , 176.534367565992 7.08187239755443 , 294.224294701369 84.4037386206951 , 360.386950881696 161.725604843836 , 426.549607062023 204.321837057387 , 479.512028548245 289.729945242898 , 473.279215232468 375.138053428409 , 467.046401916691 434.945659577573 , 384.281351484614 402.644128490631 , 297.241984007129 370.342597403689 , 210.202616529644 280.384917237573 , 186.818611897078 182.772435057093 , 167.568156255972 Z "
       id="path4138"
       inkscape:connector-curvature="0"
       sodipodi:nodetypes="zzzzzzzzzzzzzzzzzzz" />
  </g>
</svg>
