<?xml version="1.0" encoding="UTF-8" standalone="no"?>
<!-- Created with Inkscape (http://www.inkscape.org/) -->

<svg
   xmlns:dc="http://purl.org/dc/elements/1.1/"
   xmlns:cc="http://creativecommons.org/ns#"
   xmlns:rdf="http://www.w3.org/1999/02/22-rdf-syntax-ns#"
   xmlns:svg="http://www.w3.org/2000/svg"
   xmlns="http://www.w3.org/2000/svg"
   xmlns:sodipodi="http://sodipodi.sourceforge.net/DTD/sodipodi-0.dtd"
   xmlns:inkscape="http://www.inkscape.org/namespaces/inkscape"
   width="210mm"
   height="297mm"
   viewBox="0 0 744.09448819 1052.3622047"
   id="svg2"
   version="1.1"
   inkscape:version="0.48.4 r9939"
   sodipodi:docname="8_2.svg">
  <defs
     id="defs4" />
  <sodipodi:namedview
     id="base"
     pagecolor="#ffffff"
     bordercolor="#666666"
     borderopacity="1.0"
     inkscape:pageopacity="0.0"
     inkscape:pageshadow="2"
     inkscape:zoom="0.49788407"
     inkscape:cx="-46.237628"
     inkscape:cy="760.81256"
     inkscape:document-units="px"
     inkscape:current-layer="layer1"
     showgrid="false"
     inkscape:window-width="1600"
     inkscape:window-height="824"
     inkscape:window-x="-3"
     inkscape:window-y="-3"
     inkscape:window-maximized="1" />
  <metadata
     id="metadata7">
    <rdf:RDF>
      <cc:Work
         rdf:about="">
        <dc:format>image/svg+xml</dc:format>
        <dc:type
           rdf:resource="http://purl.org/dc/dcmitype/StillImage" />
        <dc:title />
      </cc:Work>
    </rdf:RDF>
  </metadata>
  <g
     inkscape:label="Layer 1"
     inkscape:groupmode="layer"
     id="layer1">
    <path
       style="fill:none;stroke:#000000;stroke-width:9.99359798px;stroke-linecap:butt;stroke-linejoin:miter;stroke-opacity:1"
       d="M  0 , -343.90079806215 C  179.706662224794 , -343.90079806215 116.607898349755 , -127.112513371061 57.9654357803621 , -53.8402855483458 -0.677026789031103 , 19.431942274369 -28.9437262531204 , 48.5217301889076 -116.939873287347 , 88.5854576509262 -204.936020321575 , 128.649185112945 -349.035650578379 , 149.842127078057 -332.203512321504 , 291.668879202605 -315.37137406463 , 433.495631327153 -208.930625552249 , 402.10201185137 -105.812536642696 , 471.919834617551 -2.69444773314385 , 541.737657383733 51.1834459431388 , 679.779885875976 180.191969226752 , 591.782563431249 309.200492510366 , 503.785240986522 197.495699217165 , 405.260448031313 197.450895590356 , 267.391180280852 197.406091963547 , 129.52191253039 277.739310216933 , 108.594508746488 239.566833318125 , -32.006077936031 201.394356419318 , -172.60666461855 57.8240487106111 , -174.969689056419 0 , -174.969689056419 -57.8240487106111 , -174.969689056419 -201.394356419318 , -172.60666461855 -239.566833318125 , -32.006077936031 -277.739310216933 , 108.594508746488 -197.406091963547 , 129.52191253039 -197.450895590356 , 267.391180280852 -197.495699217165 , 405.260448031313 -309.200492510366 , 503.785240986522 -180.191969226752 , 591.782563431249 -51.1834459431388 , 679.779885875976 2.69444773314385 , 541.737657383733 105.812536642696 , 471.919834617551 208.930625552249 , 402.10201185137 315.37137406463 , 433.495631327153 332.203512321504 , 291.668879202605 349.035650578379 , 149.842127078057 204.936020321575 , 128.649185112945 116.939873287347 , 88.5854576509262 28.9437262531204 , 48.5217301889076 0.677026789031095 , 19.431942274369 -57.9654357803621 , -53.8402855483458 -116.607898349755 , -127.112513371061 -179.706662224794 , -343.90079806215 0 , -343.90079806215 Z "
       id="path5468"
       inkscape:connector-curvature="0"
       sodipodi:nodetypes="zzzzzzzzzzzzzzzzz" />
  </g>
</svg>
