<?xml version="1.0" encoding="UTF-8" standalone="no"?>
<!-- Created with Inkscape (http://www.inkscape.org/) -->

<svg
   xmlns:dc="http://purl.org/dc/elements/1.1/"
   xmlns:cc="http://creativecommons.org/ns#"
   xmlns:rdf="http://www.w3.org/1999/02/22-rdf-syntax-ns#"
   xmlns:svg="http://www.w3.org/2000/svg"
   xmlns="http://www.w3.org/2000/svg"
   xmlns:sodipodi="http://sodipodi.sourceforge.net/DTD/sodipodi-0.dtd"
   xmlns:inkscape="http://www.inkscape.org/namespaces/inkscape"
   width="210mm"
   height="297mm"
   viewBox="0 0 744.09448819 1052.3622047"
   id="svg4775"
   version="1.1"
   inkscape:version="0.91 r13725"
   sodipodi:docname="8_20.svg">
  <defs
     id="defs4777" />
  <sodipodi:namedview
     id="base"
     pagecolor="#ffffff"
     bordercolor="#666666"
     borderopacity="1.0"
     inkscape:pageopacity="0.0"
     inkscape:pageshadow="2"
     inkscape:zoom="0.53925122"
     inkscape:cx="729.16287"
     inkscape:cy="625.58802"
     inkscape:document-units="px"
     inkscape:current-layer="layer1"
     showgrid="false"
     inkscape:window-width="928"
     inkscape:window-height="1028"
     inkscape:window-x="992"
     inkscape:window-y="24"
     inkscape:window-maximized="0" />
  <metadata
     id="metadata4780">
    <rdf:RDF>
      <cc:Work
         rdf:about="">
        <dc:format>image/svg+xml</dc:format>
        <dc:type
           rdf:resource="http://purl.org/dc/dcmitype/StillImage" />
        <dc:title />
      </cc:Work>
    </rdf:RDF>
  </metadata>
  <g
     inkscape:label="Layer 1"
     inkscape:groupmode="layer"
     id="layer1">
    <path
       style="fill:none;stroke:#000000;stroke-width:9.77774429px;stroke-linecap:butt;stroke-linejoin:miter;stroke-opacity:1"
       d="M  207.670656445323 , -155.123966568059 C  399.543003739817 , -134.258709240216 363.543515589099 , 19.8716272215703 352.90428210629 , 50.5341347959646 342.265048623482 , 81.196642370359 320.099021734949 , 117.567670412822 236.056556358081 , 178.012093460811 152.014090981213 , 238.4565165088 81.8256011795562 , 254.071497169935 12.4778864562985 , 251.991375658754 -56.8698282669592 , 249.911254147573 -119.224998790149 , 218.395713317407 -151.390671005802 , 173.639508334395 -183.556343221454 , 128.883303351383 -182.74748466709 , 80.2308807294958 -164.25386225731 , 44.6714440274116 -145.76023984753 , 9.11200732532745 -108.728649046371 , -13.7581195395701 -66.6726543859839 , -14.8745861719355 -24.6166597255969 , -15.9910528043009 146.599898175598 , 21.6212989157344 198.172726555793 , 41.7309617134941 249.745554935988 , 61.8406245112538 350.120808144917 , 121.647531958471 361.67180046088 , 212.48254661009 373.222792776843 , 303.31756126171 315.761354540064 , 370.856410498273 255.436995220639 , 402.726764024503 195.112635901215 , 434.597117550733 124.138773532663 , 438.724592264796 -1.42410782959566 , 414.73587744309 -126.986989191855 , 390.747162621384 -201.120585809324 , 381.030467809677 -273.1611278937 , 283.801342058259 -345.201669978075 , 186.572216306842 -345.238239490035 , 80.6158315762921 -338.163780938936 , 26.1589195197891 -331.089322387838 , -28.297992536714 -312.002625866493 , -67.9646837251423 -305.97449599804 , -79.9862085444596 -299.946366129586 , -92.0077333637769 -222.926633835453 , -245.687814793263 -27.9919584561821 , -195.091466302823 166.942716923089 , -144.495117812383 100.816032366106 , 21.3235631119216 92.6979865095335 , 113.605213716784 84.5799406529615 , 205.886864321646 111.875637260181 , 255.652589292689 126.802270562237 , 339.103718206573 141.728903864293 , 422.554847120457 142.638041903367 , 486.208225441018 103.195972295723 , 537.650519694864 63.7539026880784 , 589.092813948711 11.9693485116396 , 590.406832859948 0 , 590.406832859948 -11.9693485116396 , 590.406832859948 -81.415385469982 , 589.162478741748 -119.718323238513 , 515.636462806259 -158.021261007043 , 442.11044687077 -126.062401268796 , 374.781070082925 -102.076313406606 , 311.976419187043 -78.0902255444155 , 249.17176829116 -67.2845903741067 , 232.861885833589 -25.1268898029575 , 117.132757868198 17.0308107681917 , 1.40362990280619 15.7983091508292 , -175.989223895902 207.670656445323 , -155.123966568059 Z "
       id="path5334"
       inkscape:connector-curvature="0"
       sodipodi:nodetypes="zzzzzzzzzzzzzzzzzzzzzzz" />
  </g>
</svg>
