<?xml version="1.0" encoding="UTF-8" standalone="no"?>
<!-- Created with Inkscape (http://www.inkscape.org/) -->

<svg
   xmlns:dc="http://purl.org/dc/elements/1.1/"
   xmlns:cc="http://creativecommons.org/ns#"
   xmlns:rdf="http://www.w3.org/1999/02/22-rdf-syntax-ns#"
   xmlns:svg="http://www.w3.org/2000/svg"
   xmlns="http://www.w3.org/2000/svg"
   xmlns:sodipodi="http://sodipodi.sourceforge.net/DTD/sodipodi-0.dtd"
   xmlns:inkscape="http://www.inkscape.org/namespaces/inkscape"
   width="210mm"
   height="297mm"
   viewBox="0 0 744.09448819 1052.3622047"
   id="svg4775"
   version="1.1"
   inkscape:version="0.91 r13725"
   sodipodi:docname="8_20.svg">
  <defs
     id="defs4777" />
  <sodipodi:namedview
     id="base"
     pagecolor="#ffffff"
     bordercolor="#666666"
     borderopacity="1.0"
     inkscape:pageopacity="0.0"
     inkscape:pageshadow="2"
     inkscape:zoom="0.53925122"
     inkscape:cx="107.93108"
     inkscape:cy="625.58802"
     inkscape:document-units="px"
     inkscape:current-layer="layer1"
     showgrid="false"
     inkscape:window-width="2560"
     inkscape:window-height="1315"
     inkscape:window-x="0"
     inkscape:window-y="1"
     inkscape:window-maximized="1" />
  <metadata
     id="metadata4780">
    <rdf:RDF>
      <cc:Work
         rdf:about="">
        <dc:format>image/svg+xml</dc:format>
        <dc:type
           rdf:resource="http://purl.org/dc/dcmitype/StillImage" />
        <dc:title />
      </cc:Work>
    </rdf:RDF>
  </metadata>
  <g
     inkscape:label="Layer 1"
     inkscape:groupmode="layer"
     id="layer1">
    <path
       style="fill:none;stroke:#000000;stroke-width:10.12727737px;stroke-linecap:butt;stroke-linejoin:miter;stroke-opacity:1"
       d="M  191.786276140013 , -163.292482004207 C  472.255427174987 , -81.3305653599252 302.629113712655 , 159.639904350933 225.481996755618 , 207.923983787398 148.334879798581 , 256.208063223864 68.8223917838559 , 250.864195111628 0 , 250.864195111628 -68.8223917838559 , 250.864195111628 -264.222735017556 , 232.086387397916 -221.610024966529 , 105.714419622635 -178.997314915501 , -20.657548152646 -71.6016137652256 , 56.2685529245709 0 , 56.2685529245709 71.6016137652256 , 56.2685529245709 135.141186494386 , 29.7361677719887 217.919067298907 , 54.0627157834242 300.696948103427 , 78.3892637948596 464.122121447873 , 152.097095811291 379.603524656639 , 283.500475225205 295.084927865405 , 414.903854639119 -235.103902168798 , 505.273297068542 -358.896156603826 , 287.841927235206 -482.688411038853 , 70.4105574018692 -304.403637065246 , -119.143065047738 -173.623637191041 , -141.384885792237 -42.8436373168364 , -163.626706536736 27.0284762166848 , -94.5311683109899 60.0770914908714 , -40.3497943894334 93.1257067650579 , 13.8315795321232 105.159834860603 , 37.9982512629784 103.239324922941 , 142.961655099367 101.31881498528 , 247.925058935756 159.510301103877 , 451.606081749954 125.16224982949 , 517.198019216568 90.8141985551036 , 582.789956683183 -3.06754148350046 , 608.283617744444 -77.2675778079701 , 540.265391225409 -151.46761413244 , 472.247164706373 -130.902630536208 , 414.62167176907 -124.855297903776 , 351.911233954162 -118.807965271344 , 289.200796139254 -88.6828748949613 , -245.254398648489 191.786276140013 , -163.292482004207 Z "
       id="path5334"
       inkscape:connector-curvature="0"
       sodipodi:nodetypes="zzzzzzzzzzzzzzz" />
  </g>
</svg>
