<?xml version="1.0" encoding="UTF-8" standalone="no"?>
<!-- Created with Inkscape (http://www.inkscape.org/) -->

<svg
   xmlns:dc="http://purl.org/dc/elements/1.1/"
   xmlns:cc="http://creativecommons.org/ns#"
   xmlns:rdf="http://www.w3.org/1999/02/22-rdf-syntax-ns#"
   xmlns:svg="http://www.w3.org/2000/svg"
   xmlns="http://www.w3.org/2000/svg"
   xmlns:sodipodi="http://sodipodi.sourceforge.net/DTD/sodipodi-0.dtd"
   xmlns:inkscape="http://www.inkscape.org/namespaces/inkscape"
   width="210mm"
   height="297mm"
   viewBox="0 0 744.09448819 1052.3622047"
   id="svg5355"
   version="1.1"
   inkscape:version="0.48.4 r9939"
   sodipodi:docname="8_21.svg">
  <defs
     id="defs5357" />
  <sodipodi:namedview
     id="base"
     pagecolor="#ffffff"
     bordercolor="#666666"
     borderopacity="1.0"
     inkscape:pageopacity="0.0"
     inkscape:pageshadow="2"
     inkscape:zoom="0.47595828"
     inkscape:cx="146.82015"
     inkscape:cy="415.79698"
     inkscape:document-units="px"
     inkscape:current-layer="layer1"
     showgrid="false"
     inkscape:window-width="1594"
     inkscape:window-height="817"
     inkscape:window-x="59"
     inkscape:window-y="40"
     inkscape:window-maximized="0" />
  <metadata
     id="metadata5360">
    <rdf:RDF>
      <cc:Work
         rdf:about="">
        <dc:format>image/svg+xml</dc:format>
        <dc:type
           rdf:resource="http://purl.org/dc/dcmitype/StillImage" />
        <dc:title />
      </cc:Work>
    </rdf:RDF>
  </metadata>
  <g
     inkscape:label="Layer 1"
     inkscape:groupmode="layer"
     id="layer1">
    <path
       style="fill:none;stroke:#000000;stroke-width:10.29625607px;stroke-linecap:butt;stroke-linejoin:miter;stroke-opacity:1"
       d="M  134.234406147601 , 12.1732759168682 C  303.795439599928 , 54.0795517934522 249.491789114849 , 186.178106922134 257.869992860703 , 295.994214826454 266.248196606558 , 405.810322730775 339.925666134947 , 577.869361450427 179.285099535069 , 680.498661788044 18.6445329351915 , 783.127962125662 -127.34123360446 , 748.67804558315 -211.343731174633 , 631.708421043688 -295.346228744806 , 514.738796504225 -253.950594891279 , 310.83655072433 -164.804318868689 , 240.404691591106 -75.6580428460992 , 169.972832457881 -56.7979762288478 , 216.525658663045 25.2675667789507 , 204.41894599346 107.333109786749 , 192.312233323876 87.8910231996949 , 190.169876918537 162.063127398934 , 176.614520708987 236.235231598173 , 163.059164499437 408.616075564479 , 146.369177473092 417.078280931448 , 294.593437935207 425.540486298418 , 442.817698397323 233.562637346819 , 440.062854767275 223.04317506505 , 439.809596436059 212.52371278328 , 439.556338104843 -336.823738025373 , 426.00694435345 -394.090315752461 , 275.07895611495 -451.356893479549 , 124.150967876449 -316.205107097064 , -2.79021197857406 -125.649104904766 , 0.501875696865765 64.9068972875312 , 3.79396337230559 105.254506486078 , 201.598856645753 108.433248048725 , 301.505349854322 111.611989611373 , 401.411843062891 128.091178953828 , 545.82983023129 0 , 545.82983023129 -128.091178953828 , 545.82983023129 -83.567035326528 , 381.46502689831 -72.2863038429742 , 311.838521551924 -61.0055723594204 , 242.212016205537 -35.3266273047269 , -29.7329999597158 134.234406147601 , 12.1732759168682 Z "
       id="path5923"
       inkscape:connector-curvature="0"
       sodipodi:nodetypes="zzzzzzzzzzzzzzz" />
  </g>
</svg>
