<?xml version="1.0" encoding="UTF-8" standalone="no"?>
<!-- Created with Inkscape (http://www.inkscape.org/) -->

<svg
   xmlns:dc="http://purl.org/dc/elements/1.1/"
   xmlns:cc="http://creativecommons.org/ns#"
   xmlns:rdf="http://www.w3.org/1999/02/22-rdf-syntax-ns#"
   xmlns:svg="http://www.w3.org/2000/svg"
   xmlns="http://www.w3.org/2000/svg"
   xmlns:sodipodi="http://sodipodi.sourceforge.net/DTD/sodipodi-0.dtd"
   xmlns:inkscape="http://www.inkscape.org/namespaces/inkscape"
   width="210mm"
   height="297mm"
   viewBox="0 0 744.09448819 1052.3622047"
   id="svg5355"
   version="1.1"
   inkscape:version="0.91 r13725"
   sodipodi:docname="8_21.svg">
  <defs
     id="defs5357" />
  <sodipodi:namedview
     id="base"
     pagecolor="#ffffff"
     bordercolor="#666666"
     borderopacity="1.0"
     inkscape:pageopacity="0.0"
     inkscape:pageshadow="2"
     inkscape:zoom="0.47595828"
     inkscape:cx="146.82015"
     inkscape:cy="667.91992"
     inkscape:document-units="px"
     inkscape:current-layer="layer1"
     showgrid="false"
     inkscape:window-width="1215"
     inkscape:window-height="776"
     inkscape:window-x="65"
     inkscape:window-y="24"
     inkscape:window-maximized="1" />
  <metadata
     id="metadata5360">
    <rdf:RDF>
      <cc:Work
         rdf:about="">
        <dc:format>image/svg+xml</dc:format>
        <dc:type
           rdf:resource="http://purl.org/dc/dcmitype/StillImage" />
        <dc:title />
      </cc:Work>
    </rdf:RDF>
  </metadata>
  <g
     inkscape:label="Layer 1"
     inkscape:groupmode="layer"
     id="layer1">
    <path
       style="fill:none;stroke:#000000;stroke-width:10.29625607px;stroke-linecap:butt;stroke-linejoin:miter;stroke-opacity:1"
       d="M  72.2148324042698 , 12.6602165170447 C  213.241277210312 , -23.712060139395 260.419131343228 , 79.5403458662974 267.390712440383 , 95.3062928357745 274.362293537538 , 111.072239805252 292.58795812732 , 153.886061188708 285.750240939164 , 311.236819250547 278.912523751008 , 468.587577312386 288.688350277361 , 538.110168132763 205.886794772413 , 619.149367511742 123.085239267465 , 700.188566890721 19.116934287608 , 700.903923883174 0 , 700.903923883174 -19.116934287608 , 700.903923883174 -181.338061232551 , 700.463961162026 -269.237712557136 , 557.141950682178 -357.137363881721 , 413.81994020233 -253.168421887527 , 297.420239245255 -173.412328768089 , 259.521375917813 -93.656235648651 , 221.622512590371 -77.0886292886787 , 255.693208029844 8.26769978721113 , 242.863883465265 93.624028863101 , 230.034558900686 91.0072158829489 , 204.114638949251 186.224033887517 , 179.909512415105 281.440851892085 , 155.704385880959 332.939135853754 , 152.372677946489 384.652253038118 , 179.800426270119 436.365370222482 , 207.228174593749 461.95113403463 , 254.788662925564 466.914308168916 , 299.038190254732 471.877482303202 , 343.2877175839 457.177387001029 , 408.020371907134 393.239140893658 , 447.813933493636 329.300894786287 , 487.607495080138 269.023182287394 , 472.265775827475 205.360378525276 , 460.591934616395 141.697574763158 , 448.918093405315 122.168311429874 , 440.608907131105 13.5998813151421 , 420.554866803915 -94.9685487995898 , 400.500826476725 -108.664026335174 , 415.959771202781 -189.558649032 , 386.11797482062 -270.453271728826 , 356.276178438459 -315.725371471641 , 320.137996398289 -335.755300861163 , 266.84862995167 -355.785230250685 , 213.559263505051 -341.069092859734 , 169.619785514552 -336.469182734146 , 156.992985964374 -331.869272608558 , 144.366186414196 -295.922760233339 , 45.8150783119994 -149.101170907978 , 45.893711488376 -2.27958158261703 , 45.9723446647526 119.980114979611 , 211.071438552547 136.757566751129 , 334.745814593703 153.535018522647 , 458.420190634859 111.308175079693 , 509.623163395658 78.7461005094542 , 531.88550896427 46.1840259392154 , 554.147854532882 14.852792953456 , 552.090736802275 3.73389503762516 , 550.744432328279 -7.38500287820568 , 549.398127854283 -50.753164351765 , 542.594348549989 -77.9590344853584 , 494.565456559648 -105.164904618952 , 446.536564569307 -94.5237274481724 , 402.759496626733 -88.6063112003429 , 338.477119476881 -82.6888949525134 , 274.194742327029 -68.8116124017722 , 49.0324931734844 72.2148324042698 , 12.6602165170447 Z "
       id="path5923"
       inkscape:connector-curvature="0"
       sodipodi:nodetypes="zzzzzzzzzzzzzzzzzzzzzzzz" />
  </g>
</svg>
