<?xml version="1.0" encoding="UTF-8" standalone="no"?>
<!-- Created with Inkscape (http://www.inkscape.org/) -->

<svg
   xmlns:dc="http://purl.org/dc/elements/1.1/"
   xmlns:cc="http://creativecommons.org/ns#"
   xmlns:rdf="http://www.w3.org/1999/02/22-rdf-syntax-ns#"
   xmlns:svg="http://www.w3.org/2000/svg"
   xmlns="http://www.w3.org/2000/svg"
   xmlns:sodipodi="http://sodipodi.sourceforge.net/DTD/sodipodi-0.dtd"
   xmlns:inkscape="http://www.inkscape.org/namespaces/inkscape"
   width="210mm"
   height="297mm"
   viewBox="0 0 744.09448819 1052.3622047"
   id="svg5472"
   version="1.1"
   inkscape:version="0.48.4 r9939"
   sodipodi:docname="8_3.svg">
  <defs
     id="defs5474" />
  <sodipodi:namedview
     id="base"
     pagecolor="#ffffff"
     bordercolor="#666666"
     borderopacity="1.0"
     inkscape:pageopacity="0.0"
     inkscape:pageshadow="2"
     inkscape:zoom="0.4058658"
     inkscape:cx="-5.703683"
     inkscape:cy="979.92953"
     inkscape:document-units="px"
     inkscape:current-layer="layer1"
     showgrid="false"
     inkscape:window-width="1594"
     inkscape:window-height="817"
     inkscape:window-x="0"
     inkscape:window-y="0"
     inkscape:window-maximized="0" />
  <metadata
     id="metadata5477">
    <rdf:RDF>
      <cc:Work
         rdf:about="">
        <dc:format>image/svg+xml</dc:format>
        <dc:type
           rdf:resource="http://purl.org/dc/dcmitype/StillImage" />
      </cc:Work>
    </rdf:RDF>
  </metadata>
  <g
     inkscape:label="Layer 1"
     inkscape:groupmode="layer"
     id="layer1">
    <path
       style="fill:none;stroke:#000000;stroke-width:8.23243332px;stroke-linecap:butt;stroke-linejoin:miter;stroke-opacity:1"
       d="M  168.903258598597 , -413.784151535765 C  282.293787958781 , -338.925872366643 301.734895265465 , -173.683446908638 261.461732288631 , 14.3309679866298 221.188569311798 , 202.345382881897 158.287021040104 , 216.653022651526 128.756108166862 , 325.893940552397 99.2251952936194 , 435.134858453267 138.659132124645 , 582.498072004845 0 , 582.498072004845 -138.659132124645 , 582.498072004845 -99.2251952936194 , 435.134858453267 -128.756108166862 , 325.893940552397 -158.287021040104 , 216.653022651526 -221.188569311798 , 202.345382881897 -261.461732288631 , 14.3309679866298 -301.734895265465 , -173.683446908638 -282.293787958781 , -338.925872366643 -168.903258598597 , -413.784151535765 -55.5127292384136 , -488.642430704886 39.8255236453772 , -402.182143436362 36.238513143541 , -319.150188708879 32.6515026417048 , -236.118233981397 -40.3722220837546 , -243.080043526251 -40.0718467916278 , -144.435503698555 -39.771471499501 , -45.7909638708591 30.6007497339008 , -51.2594248971395 36.5233081381581 , 26.9157159098155 42.4458665424154 , 105.09085671677 -20.0485045220583 , 146.842062057563 -82.1878596105563 , 178.63942946447 -144.327214699054 , 210.436796871377 -279.227402468401 , 261.034910185349 -240.135743182314 , 381.140398946547 -201.044083896226 , 501.245887707745 -95.8019939850704 , 453.450233127956 0 , 453.450233127956 95.8019939850704 , 453.450233127956 201.044083896226 , 501.245887707745 240.135743182314 , 381.140398946547 279.227402468401 , 261.034910185349 144.327214699054 , 210.436796871377 82.1878596105563 , 178.63942946447 20.0485045220583 , 146.842062057563 -42.4458665424154 , 105.09085671677 -36.5233081381581 , 26.9157159098155 -30.6007497339008 , -51.2594248971395 39.771471499501 , -45.7909638708591 40.0718467916278 , -144.435503698555 40.3722220837546 , -243.080043526251 -32.6515026417048 , -236.118233981397 -36.238513143541 , -319.150188708879 -39.8255236453772 , -402.182143436362 55.5127292384136 , -488.642430704886 168.903258598597 , -413.784151535765 Z "
       id="path6040"
       inkscape:connector-curvature="0"
       sodipodi:nodetypes="zzzzzzzzzzzzzzzzzzz" />
  </g>
</svg>
