<?xml version="1.0" encoding="UTF-8" standalone="no"?>
<!-- Created with Inkscape (http://www.inkscape.org/) -->

<svg
   xmlns:dc="http://purl.org/dc/elements/1.1/"
   xmlns:cc="http://creativecommons.org/ns#"
   xmlns:rdf="http://www.w3.org/1999/02/22-rdf-syntax-ns#"
   xmlns:svg="http://www.w3.org/2000/svg"
   xmlns="http://www.w3.org/2000/svg"
   xmlns:sodipodi="http://sodipodi.sourceforge.net/DTD/sodipodi-0.dtd"
   xmlns:inkscape="http://www.inkscape.org/namespaces/inkscape"
   width="210mm"
   height="297mm"
   viewBox="0 0 744.09448819 1052.3622047"
   id="svg6080"
   version="1.1"
   inkscape:version="0.91 r13725"
   sodipodi:docname="8_4.svg">
  <defs
     id="defs6082" />
  <sodipodi:namedview
     id="base"
     pagecolor="#ffffff"
     bordercolor="#666666"
     borderopacity="1.0"
     inkscape:pageopacity="0.0"
     inkscape:pageshadow="2"
     inkscape:zoom="0.47160517"
     inkscape:cx="-82.540632"
     inkscape:cy="820.27839"
     inkscape:document-units="px"
     inkscape:current-layer="layer1"
     showgrid="false"
     inkscape:window-width="1215"
     inkscape:window-height="776"
     inkscape:window-x="65"
     inkscape:window-y="24"
     inkscape:window-maximized="1" />
  <metadata
     id="metadata6085">
    <rdf:RDF>
      <cc:Work
         rdf:about="">
        <dc:format>image/svg+xml</dc:format>
        <dc:type
           rdf:resource="http://purl.org/dc/dcmitype/StillImage" />
        <dc:title />
      </cc:Work>
    </rdf:RDF>
  </metadata>
  <g
     inkscape:label="Layer 1"
     inkscape:groupmode="layer"
     id="layer1">
    <path
       style="fill:none;stroke:#ed0000;stroke-width:10.23769665px;stroke-linecap:butt;stroke-linejoin:miter;stroke-opacity:1"
       d="M  188.416712613697 , -28.439831828869 C  342.072675777604 , 24.2629124617486 471.255988658114 , 234.991542783964 405.74886877226 , 376.971873066822 340.241748886407 , 518.95220334968 229.090717413244 , 455.0808645976 221.875713695655 , 450.903394684637 214.660709978066 , 446.725924771674 171.811130139 , 421.387542391944 167.6862271103 , 362.218651827103 163.5613240816 , 303.049761262262 190.61448373251 , 286.616759335166 188.399650863513 , 234.978593162575 186.184817994516 , 183.340426989983 157.329518623998 , 146.543984536018 116.810973438103 , 129.368441532575 76.2924282522083 , 112.192898529133 56.7568813178404 , 123.260454189935 0 , 123.260454189935 -56.7568813178404 , 123.260454189935 -80.459145703606 , 106.270257286499 -123.837721772048 , 123.694627139089 -167.21629784049 , 141.118996991679 -191.453139003754 , 184.910993167359 -180.044922812721 , 229.910586340352 -168.636706621688 , 274.910179513345 -144.40056198714 , 290.390378538196 -131.281477761022 , 326.230924168207 -118.162393534904 , 362.071469798218 -114.626883297281 , 387.864537989929 -124.841055895768 , 428.913849458996 -135.055228494255 , 469.963160928064 -153.220524004701 , 481.906452156058 -160.477239949439 , 521.832380957429 -167.733955894176 , 561.758309758799 -155.994063926924 , 591.329066825468 -152.091521279113 , 600.667238644541 -148.188978631302 , 610.005410463614 -114.539182901459 , 689.17191583027 -19.5462024988737 , 706.464240609075 75.446777903711 , 723.756565387879 175.789273614655 , 683.896246553761 241.283873442308 , 596.133942442784 306.778473269962 , 508.371638331807 281.902280148562 , 416.630536817558 278.821519853447 , 405.448405834723 275.740759558332 , 394.266274851889 264.854704786971 , 356.330300309463 227.074950125053 , 324.828019996818 189.295195463135 , 293.325739684172 163.8550599277 , 296.135105683911 129.942413685358 , 268.923822080397 96.0297674430152 , 241.712538476883 80.9078906037537 , 217.435842553526 66.3085344631834 , 177.652398214848 51.7091783226131 , 137.868953876169 58.812808012897 , 111.3214300965 40.2934956932915 , 64.2624770975885 21.774183373686 , 17.2035240986772 -49.1951430939298 , -85.9966424591099 -194.980957118138 , -1.04219205164953 -340.766771142346 , 83.9122583558108 -374.663894691905 , 276.208085251588 -381.03660780804 , 331.843558384759 -387.409320924176 , 387.479031517931 -397.569200813614 , 586.827950323463 -266.080148384041 , 658.679036659179 -134.591095954468 , 730.530122994895 -89.1287287491173 , 626.703754420613 -82.3967071999203 , 604.909146762907 -75.6646856507232 , 583.1145391052 -72.9834013367012 , 547.07786162079 -100.693828111429 , 510.609242961517 -128.404254886157 , 474.140624302244 -155.399977682196 , 476.393745272101 -186.438770205091 , 436.756287854622 -217.477562727986 , 397.118830437143 -214.460084459103 , 351.116094485111 -193.40363662685 , 317.408789787963 -172.347188794597 , 283.701485090814 -148.454020519483 , 278.878707023023 -118.412221968808 , 245.989954101773 -88.3704234181321 , 213.101201180523 -80.8075592250882 , 196.38901246432 -69.6768247252202 , 166.143794370825 -58.5460902253523 , 135.898576277329 -59.690810491293 , 105.642783103568 -41.8616547092424 , 62.6623509383152 -24.0324989271918 , 19.6819187730622 34.7607494497907 , -81.1425761194866 188.416712613697 , -28.439831828869 Z "
       id="path6639"
       inkscape:connector-curvature="0"
       sodipodi:nodetypes="zzzzzzzzzzzzzzzzzzzzzzzzzzzzzzz" />
  </g>
</svg>
