<?xml version="1.0" encoding="UTF-8" standalone="no"?>
<!-- Created with Inkscape (http://www.inkscape.org/) -->

<svg
   xmlns:dc="http://purl.org/dc/elements/1.1/"
   xmlns:cc="http://creativecommons.org/ns#"
   xmlns:rdf="http://www.w3.org/1999/02/22-rdf-syntax-ns#"
   xmlns:svg="http://www.w3.org/2000/svg"
   xmlns="http://www.w3.org/2000/svg"
   xmlns:sodipodi="http://sodipodi.sourceforge.net/DTD/sodipodi-0.dtd"
   xmlns:inkscape="http://www.inkscape.org/namespaces/inkscape"
   width="210mm"
   height="297mm"
   viewBox="0 0 744.09448819 1052.3622047"
   id="svg6080"
   version="1.1"
   inkscape:version="0.48.4 r9939"
   sodipodi:docname="8_4.svg">
  <defs
     id="defs6082" />
  <sodipodi:namedview
     id="base"
     pagecolor="#ffffff"
     bordercolor="#666666"
     borderopacity="1.0"
     inkscape:pageopacity="0.0"
     inkscape:pageshadow="2"
     inkscape:zoom="0.64479645"
     inkscape:cx="245.29015"
     inkscape:cy="751.90145"
     inkscape:document-units="px"
     inkscape:current-layer="layer1"
     showgrid="false"
     inkscape:window-width="1594"
     inkscape:window-height="817"
     inkscape:window-x="0"
     inkscape:window-y="0"
     inkscape:window-maximized="0" />
  <metadata
     id="metadata6085">
    <rdf:RDF>
      <cc:Work
         rdf:about="">
        <dc:format>image/svg+xml</dc:format>
        <dc:type
           rdf:resource="http://purl.org/dc/dcmitype/StillImage" />
        <dc:title />
      </cc:Work>
    </rdf:RDF>
  </metadata>
  <g
     inkscape:label="Layer 1"
     inkscape:groupmode="layer"
     id="layer1">
    <path
       style="fill:none;stroke:#ed0000;stroke-width:10.23769665px;stroke-linecap:butt;stroke-linejoin:miter;stroke-opacity:1"
       d="M  200.3019223279 , -35.8190226224874 C  353.486703532069 , 17.9531849574551 466.029658669257 , 219.296111845207 410.325816686481 , 360.416847954834 354.621974703704 , 501.53758406446 206.08615642229 , 478.700888690728 173.888448548038 , 389.659079371943 141.690740673785 , 300.617270053158 210.780022657767 , 275.845976427221 168.583705756061 , 193.591580506499 126.387388854354 , 111.337184585777 56.8618707422511 , 131.601826915589 0 , 131.601826915589 -56.8618707422511 , 131.601826915589 -134.669109416277 , 109.677407281898 -166.104687907309 , 192.967009651016 -197.540266398342 , 276.256612020134 -121.331970765499 , 288.667306768953 -118.465176610977 , 383.15066735611 -115.598382456455 , 477.634027943267 -171.460537747033 , 474.581968654486 -157.774850418953 , 561.221076643051 -144.089163090872 , 647.860184631616 -66.2101684764428 , 694.644800319886 -1.60915033062543 , 701.706985617285 62.9918678151919 , 708.769170914684 148.039977609539 , 687.159789541293 216.253920047435 , 609.094054639221 284.467862485331 , 531.028319737149 296.495079898098 , 420.124896825936 245.694191277943 , 348.218304234479 194.893302657788 , 276.311711643023 151.987723770819 , 311.031226658545 97.7461171762237 , 236.660313791638 43.5045105816285 , 162.289400924732 71.429046766505 , 122.869696507631 47.9370623348633 , 66.9825944087788 24.4450779032216 , 11.0954923099269 -53.9088493589658 , -106.977142539307 -216.35814435301 , 1.31259340134584 -378.807439347055 , 109.602329341999 -453.809065231354 , 479.577380961717 -315.647922967798 , 625.896370302594 -177.486780704242 , 772.215359643471 -50.3075455227715 , 644.488128814718 -79.9079664110726 , 550.933506344606 -109.508387299374 , 457.378883874494 -190.623863303869 , 483.89952947507 -198.259818634787 , 385.586168948642 -205.895773965705 , 287.272808422213 -131.032989382436 , 299.087565867507 -89.5586281144522 , 221.02166944806 -48.084266846468 , 142.955773028614 -74.6016991500484 , 123.823774045588 -47.4128723318467 , 65.0423192778423 -20.2240455136451 , 6.26086451009616 47.1171411237313 , -89.5912302024299 200.3019223279 , -35.8190226224874 Z "
       id="path6639"
       inkscape:connector-curvature="0"
       sodipodi:nodetypes="zzzzzzzszzzzzzzzzzzz" />
  </g>
</svg>
