<?xml version="1.0" encoding="UTF-8" standalone="no"?>
<!-- Created with Inkscape (http://www.inkscape.org/) -->

<svg
   xmlns:dc="http://purl.org/dc/elements/1.1/"
   xmlns:cc="http://creativecommons.org/ns#"
   xmlns:rdf="http://www.w3.org/1999/02/22-rdf-syntax-ns#"
   xmlns:svg="http://www.w3.org/2000/svg"
   xmlns="http://www.w3.org/2000/svg"
   xmlns:sodipodi="http://sodipodi.sourceforge.net/DTD/sodipodi-0.dtd"
   xmlns:inkscape="http://www.inkscape.org/namespaces/inkscape"
   width="210mm"
   height="297mm"
   viewBox="0 0 744.09448819 1052.3622047"
   id="svg6679"
   version="1.1"
   inkscape:version="0.48.4 r9939"
   sodipodi:docname="8_5.svg">
  <defs
     id="defs6681" />
  <sodipodi:namedview
     id="base"
     pagecolor="#ffffff"
     bordercolor="#666666"
     borderopacity="1.0"
     inkscape:pageopacity="0.0"
     inkscape:pageshadow="2"
     inkscape:zoom="0.73104309"
     inkscape:cx="229.00159"
     inkscape:cy="674.96322"
     inkscape:document-units="px"
     inkscape:current-layer="layer1"
     showgrid="false"
     inkscape:window-width="1594"
     inkscape:window-height="817"
     inkscape:window-x="0"
     inkscape:window-y="0"
     inkscape:window-maximized="0" />
  <metadata
     id="metadata6684">
    <rdf:RDF>
      <cc:Work
         rdf:about="">
        <dc:format>image/svg+xml</dc:format>
        <dc:type
           rdf:resource="http://purl.org/dc/dcmitype/StillImage" />
        <dc:title />
      </cc:Work>
    </rdf:RDF>
  </metadata>
  <g
     inkscape:label="Layer 1"
     inkscape:groupmode="layer"
     id="layer1">
    <path
       style="fill:none;stroke:#000000;stroke-width:9.27754116px;stroke-linecap:butt;stroke-linejoin:miter;stroke-opacity:1"
       d="M  0 , -75.3106370790866 C  264.313687182421 , -75.3106370790866 209.558963244936 , 176.660886051841 200.488992041828 , 218.486945451703 191.41902083872 , 260.313004851564 166.08806678677 , 350.694216134623 82.803928338023 , 351.899660793415 -0.480210110723988 , 353.105105452206 7.33602721320974 , 297.807189339465 -73.0186743209624 , 275.544962163182 -153.373375855135 , 253.282734986899 -220.364770824774 , 316.887980422078 -234.46075106821 , 330.238045636583 -248.556731311646 , 343.588110851088 -414.544340003499 , 500.721362566994 -238.521606688822 , 621.799037579266 -62.4988733741442 , 742.876712591538 -0.824673968396013 , 574.320665089139 120.237454816491 , 491.537468567257 241.299583601378 , 408.754272045376 403.624596285981 , 370.329542729142 357.899035241799 , 217.997919984257 312.173474197618 , 65.666297239373 166.199543170517 , 127.236247474394 0 , 127.236247474394 -166.199543170517 , 127.236247474394 -312.173474197618 , 65.666297239373 -357.899035241799 , 217.997919984257 -403.624596285981 , 370.329542729142 -241.299583601378 , 408.754272045376 -120.237454816491 , 491.537468567257 0.824673968396013 , 574.320665089139 62.4988733741442 , 742.876712591538 238.521606688822 , 621.799037579266 414.544340003499 , 500.721362566994 248.556731311646 , 343.588110851088 234.46075106821 , 330.238045636583 220.364770824774 , 316.887980422078 153.373375855135 , 253.282734986899 73.0186743209624 , 275.544962163182 -7.33602721320972 , 297.807189339465 0.480210110723989 , 353.105105452206 -82.803928338023 , 351.899660793415 -166.08806678677 , 350.694216134623 -191.41902083872 , 260.313004851564 -200.488992041828 , 218.486945451703 -209.558963244936 , 176.660886051841 -264.313687182421 , -75.3106370790866 0 , -75.3106370790866 Z "
       id="path7247"
       inkscape:connector-curvature="0"
       sodipodi:nodetypes="zzzzzzzzzzzzzzzzz" />
  </g>
</svg>
