<?xml version="1.0" encoding="UTF-8" standalone="no"?>
<!-- Created with Inkscape (http://www.inkscape.org/) -->

<svg
   xmlns:dc="http://purl.org/dc/elements/1.1/"
   xmlns:cc="http://creativecommons.org/ns#"
   xmlns:rdf="http://www.w3.org/1999/02/22-rdf-syntax-ns#"
   xmlns:svg="http://www.w3.org/2000/svg"
   xmlns="http://www.w3.org/2000/svg"
   xmlns:sodipodi="http://sodipodi.sourceforge.net/DTD/sodipodi-0.dtd"
   xmlns:inkscape="http://www.inkscape.org/namespaces/inkscape"
   width="210mm"
   height="297mm"
   viewBox="0 0 744.09448819 1052.3622047"
   id="svg7268"
   version="1.1"
   inkscape:version="0.91 r13725"
   sodipodi:docname="8_6.svg">
  <defs
     id="defs7270" />
  <sodipodi:namedview
     id="base"
     pagecolor="#ffffff"
     bordercolor="#666666"
     borderopacity="1.0"
     inkscape:pageopacity="0.0"
     inkscape:pageshadow="2"
     inkscape:zoom="0.8773763"
     inkscape:cx="319.68391"
     inkscape:cy="756.84399"
     inkscape:document-units="px"
     inkscape:current-layer="layer1"
     showgrid="false"
     inkscape:window-width="2560"
     inkscape:window-height="1315"
     inkscape:window-x="1841"
     inkscape:window-y="659"
     inkscape:window-maximized="0" />
  <metadata
     id="metadata7273">
    <rdf:RDF>
      <cc:Work
         rdf:about="">
        <dc:format>image/svg+xml</dc:format>
        <dc:type
           rdf:resource="http://purl.org/dc/dcmitype/StillImage" />
        <dc:title />
      </cc:Work>
    </rdf:RDF>
  </metadata>
  <g
     inkscape:label="Layer 1"
     inkscape:groupmode="layer"
     id="layer1">
    <path
       style="fill:none;fill-rule:evenodd;stroke:#000000;stroke-width:10.83273029px;stroke-linecap:butt;stroke-linejoin:miter;stroke-opacity:1"
       d="M  113.670548852883 , -93.4490351075999 C  157.418850309962 , 8.7579916388429 94.1512769063628 , 97.7067425872492 50.3712919123685 , 146.665358664528 6.5913069183743 , 195.623974741807 -50.927177082432 , 226.355023156884 -39.4101148481326 , 307.732435539153 -27.8930526138333 , 389.109847921422 34.2377387111523 , 382.163940259201 43.9666530706382 , 475.408634877324 53.695567430124 , 568.653329495447 -33.6363365847336 , 619.568644986218 -75.8032458668812 , 648.553903731141 -117.970155149029 , 677.539162476063 -270.864816263512 , 779.995110292961 -171.072918557366 , 885.719345180163 -71.2810208512203 , 991.443580067365 23.3145188083257 , 853.849732136397 81.8131874720083 , 779.503402830903 140.311856135691 , 705.15707352541 193.111224427893 , 681.783979347344 235.996679942957 , 555.268641272763 278.882135458021 , 428.753303198182 268.369704965614 , 299.950512861736 220.393702137659 , 200.337737069441 172.417699309704 , 100.724961277146 89.7142221127094 , 47.311275595021 0 , 47.311275595021 -89.7142221127094 , 47.311275595021 -172.417699309704 , 100.724961277146 -220.393702137659 , 200.337737069441 -268.369704965614 , 299.950512861736 -278.882135458021 , 428.753303198182 -235.996679942957 , 555.268641272763 -193.111224427893 , 681.783979347344 -140.311856135691 , 705.15707352541 -81.8131874720083 , 779.503402830903 -23.3145188083257 , 853.849732136397 71.2810208512203 , 991.443580067365 171.072918557366 , 885.719345180163 270.864816263512 , 779.995110292961 117.970155149029 , 677.539162476063 75.8032458668812 , 648.553903731141 33.6363365847336 , 619.568644986218 -53.695567430124 , 568.653329495447 -43.9666530706382 , 475.408634877324 -34.2377387111523 , 382.163940259201 27.8930526138333 , 389.109847921422 39.4101148481326 , 307.732435539153 50.927177082432 , 226.355023156884 -6.5913069183743 , 195.623974741807 -50.3712919123685 , 146.665358664528 -94.1512769063628 , 97.7067425872492 -157.418850309962 , 8.7579916388429 -113.670548852883 , -93.4490351075999 -69.9222473958042 , -195.656061854043 69.9222473958042 , -195.656061854043 113.670548852883 , -93.4490351075999 Z "
       id="path7836"
       inkscape:connector-curvature="0"
       sodipodi:nodetypes="zzzzzzzzzzzzzzzzzzzz" />
  </g>
</svg>
