<?xml version="1.0" encoding="UTF-8" standalone="no"?>
<!-- Created with Inkscape (http://www.inkscape.org/) -->

<svg
   xmlns:dc="http://purl.org/dc/elements/1.1/"
   xmlns:cc="http://creativecommons.org/ns#"
   xmlns:rdf="http://www.w3.org/1999/02/22-rdf-syntax-ns#"
   xmlns:svg="http://www.w3.org/2000/svg"
   xmlns="http://www.w3.org/2000/svg"
   xmlns:sodipodi="http://sodipodi.sourceforge.net/DTD/sodipodi-0.dtd"
   xmlns:inkscape="http://www.inkscape.org/namespaces/inkscape"
   width="210mm"
   height="297mm"
   viewBox="0 0 744.09448819 1052.3622047"
   id="svg7857"
   version="1.1"
   inkscape:version="0.91 r13725"
   sodipodi:docname="8_7.svg">
  <defs
     id="defs7859" />
  <sodipodi:namedview
     id="base"
     pagecolor="#ffffff"
     bordercolor="#666666"
     borderopacity="1.0"
     inkscape:pageopacity="0.0"
     inkscape:pageshadow="2"
     inkscape:zoom="0.86994658"
     inkscape:cx="317.82055"
     inkscape:cy="417.64634"
     inkscape:document-units="px"
     inkscape:current-layer="layer1"
     showgrid="false"
     inkscape:window-width="2560"
     inkscape:window-height="1315"
     inkscape:window-x="1594"
     inkscape:window-y="173"
     inkscape:window-maximized="0" />
  <metadata
     id="metadata7862">
    <rdf:RDF>
      <cc:Work
         rdf:about="">
        <dc:format>image/svg+xml</dc:format>
        <dc:type
           rdf:resource="http://purl.org/dc/dcmitype/StillImage" />
        <dc:title />
      </cc:Work>
    </rdf:RDF>
  </metadata>
  <g
     inkscape:label="Layer 1"
     inkscape:groupmode="layer"
     id="layer1">
    <path
       style="fill:none;fill-rule:evenodd;stroke:#000000;stroke-width:10.51641083px;stroke-linecap:butt;stroke-linejoin:miter;stroke-opacity:1"
       d="M  68.7765563912491 , 38.5477617208631 C  -183.192357551255 , -46.4116839946353 -198.012521510873 , 211.286739484611 -101.371361134829 , 267.589439907393 -4.73020075878568 , 323.892140330175 22.428026931459 , 275.074785685233 106.705062253452 , 275.784991083866 190.982097575446 , 276.4951964825 286.75513013925 , 313.587445413957 296.763832795253 , 437.273529758431 306.772535451256 , 560.959614102906 230.422720171113 , 587.055482223176 177.421248670969 , 702.042060765776 124.419777170824 , 817.028639308376 133.270627005637 , 941.42554912222 0 , 941.42554912222 -133.270627005637 , 941.42554912222 -128.858104002317 , 817.040328127367 -169.738542737181 , 702.18159570459 -210.618981472045 , 587.322863281813 -325.651637676853 , 461.982547349938 -290.833351017015 , 300.707749623627 -256.015064357176 , 139.432951897315 -107.445940191195 , 145.618953400327 -38.5132738120562 , 199.153848217389 30.4193925670822 , 252.688743034451 14.9679666528518 , 291.219832257 47.883875491755 , 360.700992124804 80.7997843306581 , 430.182151992608 111.522223581558 , 467.736483098934 175.213625096437 , 529.485340285666 238.905026611316 , 591.234197472398 285.389887076964 , 600.343802327988 309.033732144111 , 671.537422820323 332.677577211258 , 742.731043312657 296.403336957995 , 822.009988916906 218.187962156355 , 842.859237788881 139.972587354715 , 863.708486660856 120.716643485386 , 817.317304044306 -2.11902586071228 , 815.247699555168 -124.954695206811 , 813.178095066031 -143.361053647108 , 858.672675415411 -223.75739231269 , 835.269792489126 -304.153730978273 , 811.866909562841 -342.273734830998 , 727.398907525552 -311.366465114713 , 652.370363964514 -280.459195398428 , 577.341820403476 -211.505675770951 , 555.3527211739 -77.1439673043437 , 510.444024480952 57.2177411622632 , 465.535327788004 110.904451405703 , 421.895630534087 144.518177808695 , 383.093523235304 178.131904211687 , 344.291415936521 320.745470333753 , 123.507207436361 68.7765563912491 , 38.5477617208631 Z "
       id="path8425"
       inkscape:connector-curvature="0"
       sodipodi:nodetypes="zzzzzzzzzzzzzzzzzzz" />
  </g>
</svg>
