<?xml version="1.0" encoding="UTF-8" standalone="no"?>
<!-- Created with Inkscape (http://www.inkscape.org/) -->

<svg
   xmlns:dc="http://purl.org/dc/elements/1.1/"
   xmlns:cc="http://creativecommons.org/ns#"
   xmlns:rdf="http://www.w3.org/1999/02/22-rdf-syntax-ns#"
   xmlns:svg="http://www.w3.org/2000/svg"
   xmlns="http://www.w3.org/2000/svg"
   xmlns:sodipodi="http://sodipodi.sourceforge.net/DTD/sodipodi-0.dtd"
   xmlns:inkscape="http://www.inkscape.org/namespaces/inkscape"
   width="210mm"
   height="297mm"
   viewBox="0 0 744.09448819 1052.3622047"
   id="svg8455"
   version="1.1"
   inkscape:version="0.91 r13725"
   sodipodi:docname="8_8.svg">
  <defs
     id="defs8457" />
  <sodipodi:namedview
     id="base"
     pagecolor="#ffffff"
     bordercolor="#666666"
     borderopacity="1.0"
     inkscape:pageopacity="0.0"
     inkscape:pageshadow="2"
     inkscape:zoom="1.1230219"
     inkscape:cx="261.66572"
     inkscape:cy="420.27794"
     inkscape:document-units="px"
     inkscape:current-layer="layer1"
     showgrid="false"
     inkscape:window-width="2560"
     inkscape:window-height="1315"
     inkscape:window-x="90"
     inkscape:window-y="5"
     inkscape:window-maximized="0" />
  <metadata
     id="metadata8460">
    <rdf:RDF>
      <cc:Work
         rdf:about="">
        <dc:format>image/svg+xml</dc:format>
        <dc:type
           rdf:resource="http://purl.org/dc/dcmitype/StillImage" />
        <dc:title />
      </cc:Work>
    </rdf:RDF>
  </metadata>
  <g
     inkscape:label="Layer 1"
     inkscape:groupmode="layer"
     id="layer1">
    <path
       style="fill:none;fill-rule:evenodd;stroke:#000000;stroke-width:9.40422821px;stroke-linecap:butt;stroke-linejoin:miter;stroke-opacity:1"
       d="M  -118.083516087352 , 293.765188393769 C  -87.6598024007088 , 231.279334039133 -10.0774885779453 , 203.157225070035 55.964449576035 , 244.049774771351 122.006387730015 , 284.942324472667 112.815730149018 , 336.114759526018 175.5956451745 , 447.57060024484 238.375560199983 , 559.026440963662 280.363040840691 , 566.03428807471 330.238673521568 , 652.868370811856 380.114306202445 , 739.702453549003 391.802590388876 , 859.252863025283 303.803140205489 , 924.935151995716 215.803690022103 , 990.617440966149 80.4241495559985 , 928.233599270842 94.6719331881813 , 780.655217208312 108.919716820364 , 633.076835145782 298.803036134313 , 575.785875860499 318.028755062185 , 465.5745854387 337.254473990057 , 355.363295016901 253.105496245031 , 305.859355656364 192.085496295889 , 302.35423597035 131.065496346747 , 298.849116284336 110.166898079385 , 325.983146654047 -5.98165145830503 , 363.025374255809 -122.130200995995 , 400.06760185757 -175.285504082018 , 382.557258680926 -242.662811379962 , 455.430045032556 -310.040118677906 , 528.302831384185 -297.69797058908 , 612.279695730602 -260.207890376021 , 729.350766864142 -222.717810162963 , 846.421837997681 -155.747284429707 , 897.377239209986 -132.257222624583 , 913.365378366865 -108.76716081946 , 929.353517523745 -63.47305025729 , 955.281162358413 0 , 955.281162358413 63.47305025729 , 955.281162358413 168.197996210901 , 915.491806170849 192.973282209221 , 797.746252894908 217.748568207541 , 680.000699618967 117.294970554569 , 626.098351216439 38.2070123612832 , 606.15918354142 -40.8809458320029 , 586.220015866401 -118.704856744997 , 591.162905955088 -198.008364541921 , 594.740055153027 -277.311872338845 , 598.317204350966 -353.558393176049 , 590.591609372439 -410.269978208299 , 657.478565304602 -466.981563240549 , 724.365521236765 -449.217242053013 , 830.875650869936 -357.981661003085 , 866.491078143077 -266.746079953156 , 902.106505416218 -169.232069229782 , 838.396877471184 -129.474684452143 , 748.365260635403 -89.7172996745032 , 658.333643799621 -94.1764331612401 , 566.227839094182 -109.209849055173 , 482.424245767075 -124.243264949105 , 398.620652439968 -148.507229773995 , 356.251042748406 -118.083516087352 , 293.765188393769 Z "
       id="path9014"
       inkscape:connector-curvature="0"
       sodipodi:nodetypes="zzzzzzzzzzzzzzzzzzzzz" />
  </g>
</svg>
