<?xml version="1.0" encoding="UTF-8" standalone="no"?>
<!-- Created with Inkscape (http://www.inkscape.org/) -->

<svg
   xmlns:dc="http://purl.org/dc/elements/1.1/"
   xmlns:cc="http://creativecommons.org/ns#"
   xmlns:rdf="http://www.w3.org/1999/02/22-rdf-syntax-ns#"
   xmlns:svg="http://www.w3.org/2000/svg"
   xmlns="http://www.w3.org/2000/svg"
   xmlns:sodipodi="http://sodipodi.sourceforge.net/DTD/sodipodi-0.dtd"
   xmlns:inkscape="http://www.inkscape.org/namespaces/inkscape"
   width="210mm"
   height="297mm"
   viewBox="0 0 744.09448819 1052.3622047"
   id="svg8455"
   version="1.1"
   inkscape:version="0.91 r13725"
   sodipodi:docname="8_8.svg">
  <defs
     id="defs8457" />
  <sodipodi:namedview
     id="base"
     pagecolor="#ffffff"
     bordercolor="#666666"
     borderopacity="1.0"
     inkscape:pageopacity="0.0"
     inkscape:pageshadow="2"
     inkscape:zoom="1.1230219"
     inkscape:cx="261.66572"
     inkscape:cy="277.80521"
     inkscape:document-units="px"
     inkscape:current-layer="layer1"
     showgrid="false"
     inkscape:window-width="2560"
     inkscape:window-height="1315"
     inkscape:window-x="1229"
     inkscape:window-y="56"
     inkscape:window-maximized="0" />
  <metadata
     id="metadata8460">
    <rdf:RDF>
      <cc:Work
         rdf:about="">
        <dc:format>image/svg+xml</dc:format>
        <dc:type
           rdf:resource="http://purl.org/dc/dcmitype/StillImage" />
        <dc:title />
      </cc:Work>
    </rdf:RDF>
  </metadata>
  <g
     inkscape:label="Layer 1"
     inkscape:groupmode="layer"
     id="layer1">
    <path
       style="fill:none;fill-rule:evenodd;stroke:#000000;stroke-width:9.40422821px;stroke-linecap:butt;stroke-linejoin:miter;stroke-opacity:1"
       d="M  -34.4494703769398 , 229.902810324764 C  116.462340604738 , 204.914963884338 106.778805409735 , 352.764482616552 160.98200659396 , 459.508092387182 215.185207778185 , 566.251702157811 380.641299113422 , 621.93973229204 355.517564610148 , 810.389800458475 330.393830106875 , 998.839868624911 102.970963529936 , 977.022053509219 87.4831562575884 , 805.143480062063 71.9953489852404 , 633.264906614906 346.384783829526 , 580.653404805153 290.566209636325 , 415.060663569615 234.747635443124 , 249.467922334077 93.2040028946259 , 341.68020868868 -15.0887977007048 , 375.96202577163 -123.381598296036 , 410.24384285458 -188.912622480971 , 381.012223455746 -263.748134698519 , 473.427983390685 -338.583646916067 , 565.843743325623 -292.869828805591 , 650.792571246639 -256.527371438794 , 750.685802339351 -220.184914071997 , 850.579033432064 -152.046237061617 , 1002.27239801234 0 , 1002.27239801234 152.046237061617 , 1002.27239801234 199.031627397363 , 861.483711317599 190.39823618898 , 778.887127573098 181.764844980598 , 696.290543828597 122.094483618685 , 646.968047102851 39.6738436842056 , 624.545775070501 -42.7467962502743 , 602.123503038152 -128.33519329598 , 612.859759476256 -186.453379314155 , 618.999318601249 -244.57156533233 , 625.138877726242 -457.352113180297 , 645.251492045743 -409.477779842422 , 811.97562604363 -361.603446504548 , 978.699760041517 -145.692997419552 , 910.900907217153 -108.43690710557 , 764.547269843666 -71.1808167915879 , 618.19363247018 -102.018576851105 , 520.973156040137 -113.086359504795 , 484.640158747335 -124.154142158486 , 448.307161454534 -185.361281358617 , 254.890656765191 -34.4494703769398 , 229.902810324764 Z "
       id="path9014"
       inkscape:connector-curvature="0"
       sodipodi:nodetypes="zzzzzzzzzzzzzzzz" />
  </g>
</svg>
