<?xml version="1.0" encoding="UTF-8" standalone="no"?>
<!-- Created with Inkscape (http://www.inkscape.org/) -->

<svg
   xmlns:dc="http://purl.org/dc/elements/1.1/"
   xmlns:cc="http://creativecommons.org/ns#"
   xmlns:rdf="http://www.w3.org/1999/02/22-rdf-syntax-ns#"
   xmlns:svg="http://www.w3.org/2000/svg"
   xmlns="http://www.w3.org/2000/svg"
   xmlns:sodipodi="http://sodipodi.sourceforge.net/DTD/sodipodi-0.dtd"
   xmlns:inkscape="http://www.inkscape.org/namespaces/inkscape"
   width="210mm"
   height="297mm"
   viewBox="0 0 744.09448819 1052.3622047"
   id="svg9035"
   version="1.1"
   inkscape:version="0.91 r13725"
   sodipodi:docname="8_9.svg">
  <defs
     id="defs9037" />
  <sodipodi:namedview
     id="base"
     pagecolor="#ffffff"
     bordercolor="#666666"
     borderopacity="1.0"
     inkscape:pageopacity="0.0"
     inkscape:pageshadow="2"
     inkscape:zoom="0.9122779"
     inkscape:cx="248.43553"
     inkscape:cy="999.39352"
     inkscape:document-units="px"
     inkscape:current-layer="layer1"
     showgrid="false"
     inkscape:window-width="2560"
     inkscape:window-height="1315"
     inkscape:window-x="155"
     inkscape:window-y="75"
     inkscape:window-maximized="0" />
  <metadata
     id="metadata9040">
    <rdf:RDF>
      <cc:Work
         rdf:about="">
        <dc:format>image/svg+xml</dc:format>
        <dc:type
           rdf:resource="http://purl.org/dc/dcmitype/StillImage" />
        <dc:title />
      </cc:Work>
    </rdf:RDF>
  </metadata>
  <g
     inkscape:label="Layer 1"
     inkscape:groupmode="layer"
     id="layer1">
    <path
       style="fill:none;fill-rule:evenodd;stroke:#000000;stroke-width:10.41655731px;stroke-linecap:butt;stroke-linejoin:miter;stroke-opacity:1"
       d="M  -275.082875688074 , -141.322428601667 C  -239.954888746673 , -159.962289989281 -146.518378606987 , -201.854497650171 -64.8305453692223 , -167.547309053517 16.8572878685424 , -133.240120456864 26.3671982428066 , -51.1374364588848 104.404980940424 , 115.948062767338 182.442763638041 , 283.033561993561 271.871490981641 , 283.041053847532 308.586460499563 , 278.005013483324 345.301430017485 , 272.968973119116 432.659989605825 , 234.981452215965 417.64065057332 , 133.36121186462 402.621311540815 , 31.7409715132755 319.217097450604 , 31.8294399042403 243.908840534496 , -75.8717866011855 168.600583618389 , -183.573013106611 180.723290541347 , -223.014632888402 125.09676005821 , -284.61084993117 69.4702295750725 , -346.207066973937 -60.602636478214 , -395.925159630772 -133.094396860658 , -283.062409182553 -205.586157243103 , -170.199658734334 -87.381395628861 , -51.8649815954481 -126.979828733236 , 37.1951472048772 -166.57826183761 , 126.255276005203 -221.780096767121 , 88.8676196878298 -273.074198217444 , 169.266695941339 -324.368299667767 , 249.665772194847 -289.278466696289 , 340.297930583593 -214.419372583593 , 387.73019243686 -139.560278470897 , 435.162454290127 -19.380072488241 , 434.601182698552 77.6559974079646 , 365.87809929616 174.69206730417 , 297.155015893768 219.171331481741 , 221.447478177596 285.433514604306 , 127.182980239595 351.695697726872 , 32.9184823015947 381.611984865761 , 26.0521543217282 390.113980491241 , -45.5318314619833 398.61597611672 , -117.115817245695 353.270538404267 , -186.794167374683 284.195557885242 , -207.183394038073 215.120577366218 , -227.572620701463 165.605259335412 , -196.070973450809 89.9056134514388 , -157.788148360883 14.2059675674659 , -119.505323270956 3.57692381101959 , -100.200054642778 -59.0735764988176 , -79.9215633195035 -121.724076808655 , -59.6430719962286 -185.108957711178 , -59.1789198957555 -204.206986191994 , 16.0448405562406 -223.305014672809 , 91.2686010082368 -181.396909694614 , 113.749925662062 -188.262260730975 , 169.652133097713 -195.127611767336 , 225.554340533365 -237.248824108204 , 248.204113221684 -243.534505002383 , 251.584729830398 -249.820185896561 , 254.965346439112 -381.027287262831 , 325.557236358003 -436.0009825653 , 158.601139109884 -490.97467786777 , -8.35495813823547 -310.210862629474 , -122.682567214054 -275.082875688074 , -141.322428601667 Z "
       id="path9603"
       inkscape:connector-curvature="0"
       sodipodi:nodetypes="zzzzzzzzzzzzzzzzzzzzzz" />
  </g>
</svg>
