<?xml version="1.0" encoding="UTF-8" standalone="no"?>
<!-- Created with Inkscape (http://www.inkscape.org/) -->

<svg
   xmlns:dc="http://purl.org/dc/elements/1.1/"
   xmlns:cc="http://creativecommons.org/ns#"
   xmlns:rdf="http://www.w3.org/1999/02/22-rdf-syntax-ns#"
   xmlns:svg="http://www.w3.org/2000/svg"
   xmlns="http://www.w3.org/2000/svg"
   xmlns:sodipodi="http://sodipodi.sourceforge.net/DTD/sodipodi-0.dtd"
   xmlns:inkscape="http://www.inkscape.org/namespaces/inkscape"
   width="210mm"
   height="297mm"
   viewBox="0 0 744.09448819 1052.3622047"
   id="svg2"
   version="1.1"
   inkscape:version="0.91 r13725"
   sodipodi:docname="9_10.svg">
  <defs
     id="defs4" />
  <sodipodi:namedview
     id="base"
     pagecolor="#ffffff"
     bordercolor="#666666"
     borderopacity="1.0"
     inkscape:pageopacity="0.0"
     inkscape:pageshadow="2"
     inkscape:zoom="1.5982422"
     inkscape:cx="308.67714"
     inkscape:cy="520"
     inkscape:document-units="px"
     inkscape:current-layer="layer1"
     showgrid="false"
     inkscape:window-width="2560"
     inkscape:window-height="1315"
     inkscape:window-x="0"
     inkscape:window-y="1"
     inkscape:window-maximized="1" />
  <metadata
     id="metadata7">
    <rdf:RDF>
      <cc:Work
         rdf:about="">
        <dc:format>image/svg+xml</dc:format>
        <dc:type
           rdf:resource="http://purl.org/dc/dcmitype/StillImage" />
        <dc:title></dc:title>
      </cc:Work>
    </rdf:RDF>
  </metadata>
  <g
     inkscape:label="Layer 1"
     inkscape:groupmode="layer"
     id="layer1">
    <path
       style="fill:none;fill-rule:evenodd;stroke:#000000;stroke-width:3.24445605px;stroke-linecap:butt;stroke-linejoin:miter;stroke-opacity:1"
       d="M  129.965212102016 , -166.372823349155 C  209.947797994899 , -142.143011605763 220.250388765599 , -56.698445052021 188.923255312371 , -4.70245188204166 157.596121859142 , 47.2935412879376 108.950021150901 , 65.8653749763422 60.8777639534989 , 99.79269817135 12.8055067560969 , 133.720021366358 -48.9322775950085 , 175.497898428349 -37.3372432214871 , 253.182140601898 -25.7422088479657 , 330.866382775447 23.3446373408365 , 324.937109172741 35.630405925798 , 395.764551134041 47.9161745107594 , 466.591993095342 -3.82205144639417 , 508.939684731063 -60.838408835956 , 547.339832966089 -117.854766225518 , 585.739981201115 -175.327042193868 , 605.710213376345 -196.156682747446 , 676.459951944035 -216.986323301024 , 747.209690511724 -164.801084624604 , 813.651296243985 -92.2250839318855 , 811.556126097725 -19.6490832391665 , 809.460955951464 21.6424065982509 , 746.406364764129 71.5562880963606 , 679.242054699516 121.47016959447 , 612.077744634903 188.754018922006 , 528.436146182069 205.121797590212 , 429.531735812391 221.489576258417 , 330.627325442714 214.566335781798 , 267.819704129591 189.379648900712 , 178.084162556508 164.192962019626 , 88.3486209834256 131.198237552686 , 56.1119503475512 70.1079650632321 , -36.0793170532101 9.0176925737785 , -128.270584453971 -49.9826262091328 , -190.602635092547 -129.965212102016 , -166.372823349155 -209.947797994899 , -142.143011605763 -220.250388765599 , -56.698445052021 -188.923255312371 , -4.70245188204166 -157.596121859142 , 47.2935412879376 -108.950021150901 , 65.8653749763422 -60.8777639534989 , 99.79269817135 -12.8055067560969 , 133.720021366358 48.9322775950085 , 175.497898428349 37.3372432214871 , 253.182140601898 25.7422088479657 , 330.866382775447 -23.3446373408365 , 324.937109172741 -35.630405925798 , 395.764551134041 -47.9161745107594 , 466.591993095342 3.82205144639417 , 508.939684731063 60.838408835956 , 547.339832966089 117.854766225518 , 585.739981201115 175.327042193868 , 605.710213376345 196.156682747446 , 676.459951944035 216.986323301024 , 747.209690511724 164.801084624604 , 813.651296243985 92.2250839318855 , 811.556126097725 19.6490832391665 , 809.460955951464 -21.6424065982509 , 746.406364764129 -71.5562880963606 , 679.242054699516 -121.47016959447 , 612.077744634903 -188.754018922006 , 528.436146182069 -205.121797590212 , 429.531735812391 -221.489576258417 , 330.627325442714 -214.566335781798 , 267.819704129591 -189.379648900712 , 178.084162556508 -164.192962019626 , 88.3486209834256 -131.198237552686 , 56.1119503475512 -70.1079650632321 , -36.0793170532101 -9.0176925737785 , -128.270584453971 49.9826262091328 , -190.602635092547 129.965212102016 , -166.372823349155 Z "
       id="path4209"
       inkscape:connector-curvature="0"
       sodipodi:nodetypes="zzzzzzzzzzzzzzzzzzzzzzzzz" />
  </g>
</svg>
