<?xml version="1.0" encoding="UTF-8" standalone="no"?>
<!-- Created with Inkscape (http://www.inkscape.org/) -->

<svg
   xmlns:dc="http://purl.org/dc/elements/1.1/"
   xmlns:cc="http://creativecommons.org/ns#"
   xmlns:rdf="http://www.w3.org/1999/02/22-rdf-syntax-ns#"
   xmlns:svg="http://www.w3.org/2000/svg"
   xmlns="http://www.w3.org/2000/svg"
   xmlns:sodipodi="http://sodipodi.sourceforge.net/DTD/sodipodi-0.dtd"
   xmlns:inkscape="http://www.inkscape.org/namespaces/inkscape"
   width="210mm"
   height="297mm"
   viewBox="0 0 744.09448819 1052.3622047"
   id="svg2"
   version="1.1"
   inkscape:version="0.91 r13725"
   sodipodi:docname="9_13.svg">
  <defs
     id="defs4" />
  <sodipodi:namedview
     id="base"
     pagecolor="#ffffff"
     bordercolor="#666666"
     borderopacity="1.0"
     inkscape:pageopacity="0.0"
     inkscape:pageshadow="2"
     inkscape:zoom="1.5982422"
     inkscape:cx="277.70561"
     inkscape:cy="520"
     inkscape:document-units="px"
     inkscape:current-layer="layer1"
     showgrid="false"
     inkscape:window-width="2560"
     inkscape:window-height="1315"
     inkscape:window-x="0"
     inkscape:window-y="1"
     inkscape:window-maximized="1" />
  <metadata
     id="metadata7">
    <rdf:RDF>
      <cc:Work
         rdf:about="">
        <dc:format>image/svg+xml</dc:format>
        <dc:type
           rdf:resource="http://purl.org/dc/dcmitype/StillImage" />
        <dc:title></dc:title>
      </cc:Work>
    </rdf:RDF>
  </metadata>
  <g
     inkscape:label="Layer 1"
     inkscape:groupmode="layer"
     id="layer1">
    <path
       style="fill:none;fill-rule:evenodd;stroke:#0000ff;stroke-width:12.55928326;stroke-linecap:butt;stroke-linejoin:miter;stroke-miterlimit:4;stroke-dasharray:none;stroke-opacity:1"
       d="M  0 , 14.9092161170985 C  83.585908850141 , 14.9092161170985 80.8205841463483 , 43.3987899678609 186.404838210929 , 78.7443343746475 291.98909227551 , 114.089878781434 340.98060531333 , 95.5659305166752 385.956190288051 , 155.562520314455 430.931775262772 , 215.559110112236 401.623680297709 , 276.599831231154 374.547899530292 , 302.61826420692 347.472118762875 , 328.636697182685 275.041777129883 , 373.039177707436 127.239631826649 , 278.690210192194 -20.5625134765848 , 184.341242676952 -123.320867019296 , 39.8099665824043 -212.459296237231 , 29.4866854724271 -301.597725455167 , 19.16340436245 -357.448233971973 , 105.770800342716 -324.317144915522 , 181.622083270793 -291.186055859071 , 257.47336619887 -204.871376184927 , 280.366826729161 -156.409570677717 , 292.899440064289 -107.947765170507 , 305.432053399416 -7.15238905928687 , 325.003924913194 2.62765329898104 , 409.89373667456 12.4076956572489 , 494.783548435926 -33.9963568949546 , 489.135776933186 -39.2024050115179 , 580.070880662125 -44.4084531280813 , 671.005984391064 54.4276196366743 , 755.901489931581 161.588331630863 , 695.142040142079 268.749043625052 , 634.382590352577 279.329160967416 , 489.430950104095 282.267799792004 , 442.566685771923 285.206438616592 , 395.702421439752 281.557913718848 , 312.87641004889 289.792090056151 , 213.798192527618 298.026266393455 , 114.719975006346 324.280203344643 , 84.5466000984668 299.054044516516 , 27.7002980994877 273.827885688389 , -29.1460038994913 209.640687936285 , -52.6515215370019 152.511997435754 , -26.595524514554 95.3833069352218 , -0.539527492106089 92.1165689544 , 41.515901906843 44.9006165942979 , 108.154223941879 -2.31533576580415 , 174.792545976915 -21.9176249976901 , 183.523257072786 -53.9382516346951 , 240.319775324537 -85.9588782717001 , 297.116293576288 -119.951504908324 , 358.182184620597 -77.7813651072697 , 431.582272688555 -35.6112253062158 , 504.982360756514 33.9963568949546 , 489.135776933186 39.2024050115179 , 580.070880662125 44.4084531280813 , 671.005984391064 -54.4276196366743 , 755.901489931581 -161.588331630863 , 695.142040142079 -268.749043625052 , 634.382590352577 -287.225513328854 , 482.391777166592 -278.75521741586 , 405.526618948714 -270.284921502866 , 328.661460730837 -235.518993130711 , 250.853374230481 -180.159546297372 , 165.254636783963 -124.800099464033 , 79.6558993374457 -83.585908850141 , 14.9092161170985 0 , 14.9092161170985 Z "
       id="path4201"
       inkscape:connector-curvature="0"
       sodipodi:nodetypes="zzzzzzzzzzzzzzzzzzzzzzz" />
  </g>
</svg>
