<?xml version="1.0" encoding="UTF-8" standalone="no"?>
<!-- Created with Inkscape (http://www.inkscape.org/) -->

<svg
   xmlns:dc="http://purl.org/dc/elements/1.1/"
   xmlns:cc="http://creativecommons.org/ns#"
   xmlns:rdf="http://www.w3.org/1999/02/22-rdf-syntax-ns#"
   xmlns:svg="http://www.w3.org/2000/svg"
   xmlns="http://www.w3.org/2000/svg"
   xmlns:sodipodi="http://sodipodi.sourceforge.net/DTD/sodipodi-0.dtd"
   xmlns:inkscape="http://www.inkscape.org/namespaces/inkscape"
   width="210mm"
   height="297mm"
   viewBox="0 0 744.09448819 1052.3622047"
   id="svg4222"
   version="1.1"
   inkscape:version="0.91 r13725"
   sodipodi:docname="9_17.svg">
  <defs
     id="defs4224" />
  <sodipodi:namedview
     id="base"
     pagecolor="#ffffff"
     bordercolor="#666666"
     borderopacity="1.0"
     inkscape:pageopacity="0.0"
     inkscape:pageshadow="2"
     inkscape:zoom="1.5982422"
     inkscape:cx="208.56715"
     inkscape:cy="845.35745"
     inkscape:document-units="px"
     inkscape:current-layer="layer1"
     showgrid="false"
     inkscape:window-width="2560"
     inkscape:window-height="1315"
     inkscape:window-x="0"
     inkscape:window-y="1"
     inkscape:window-maximized="1" />
  <metadata
     id="metadata4227">
    <rdf:RDF>
      <cc:Work
         rdf:about="">
        <dc:format>image/svg+xml</dc:format>
        <dc:type
           rdf:resource="http://purl.org/dc/dcmitype/StillImage" />
        <dc:title></dc:title>
      </cc:Work>
    </rdf:RDF>
  </metadata>
  <g
     inkscape:label="Layer 1"
     inkscape:groupmode="layer"
     id="layer1">
    <path
       style="fill:none;fill-rule:evenodd;stroke:#ffeb08;stroke-width:8.43244076;stroke-linecap:butt;stroke-linejoin:miter;stroke-miterlimit:4;stroke-dasharray:none;stroke-opacity:1"
       d="M  0 , -375.043627427774 C  67.4992623472269 , -375.043627427774 159.508541413845 , -365.10127707744 238.515155541992 , -310.220804732879 317.521769670138 , -255.340332388317 346.898667628711 , -166.723418095239 322.337374060828 , -95.555015502342 297.776080492946 , -24.3866129094455 259.576468548825 , -24.1282443695114 212.247871033626 , 19.377464469494 164.919273518427 , 62.8831733084994 148.324063997761 , 113.97065878718 71.9752138390157 , 104.890662941086 -4.37363631973011 , 95.810667094992 0.451433496470645 , 38.1971063113902 -77.011964883032 , 34.9644202361438 -154.475363262535 , 31.7317341608975 -165.11495651873 , 76.5172151133403 -225.439633750501 , 105.393670622999 -285.764310982272 , 134.270126132657 -345.734462092551 , 139.498500064243 -407.621748951309 , 102.638406002013 -469.509035810067 , 65.7783119397828 -551.053008406697 , -52.989675869452 -458.119451562569 , -160.313483216204 -365.18589471844 , -267.637290562956 -279.308923982077 , -188.312736855459 -264.68066605251 , -171.947280709927 -250.052408122943 , -155.581824564395 -229.715701403764 , -122.920060205803 -239.333192462821 , -72.3236916582747 -248.950683521879 , -21.727323110746 -273.961448645523 , -14.4516246214334 -289.30024305603 , 50.3070816303843 -304.639037466537 , 115.065787882202 -288.49413006561 , 189.197656618403 -224.928303408808 , 242.873395400029 -161.362476752006 , 296.549134181655 -78.6036398013656 , 316.635763745007 0 , 316.635763745007 78.6036398013656 , 316.635763745007 161.362476752006 , 296.549134181655 224.928303408808 , 242.873395400029 288.49413006561 , 189.197656618403 304.639037466537 , 115.065787882202 289.30024305603 , 50.3070816303843 273.961448645523 , -14.4516246214334 248.950683521879 , -21.727323110746 239.333192462821 , -72.3236916582747 229.715701403764 , -122.920060205803 250.052408122943 , -155.581824564395 264.68066605251 , -171.947280709927 279.308923982077 , -188.312736855459 365.18589471844 , -267.637290562956 458.119451562569 , -160.313483216204 551.053008406697 , -52.989675869452 469.509035810067 , 65.7783119397828 407.621748951309 , 102.638406002013 345.734462092551 , 139.498500064243 285.764310982272 , 134.270126132657 225.439633750501 , 105.393670622999 165.11495651873 , 76.5172151133403 154.475363262535 , 31.7317341608975 77.011964883032 , 34.9644202361438 -0.451433496470628 , 38.1971063113902 4.37363631973011 , 95.810667094992 -71.9752138390157 , 104.890662941086 -148.324063997761 , 113.97065878718 -164.919273518427 , 62.8831733084994 -212.247871033626 , 19.377464469494 -259.576468548825 , -24.1282443695114 -297.776080492946 , -24.3866129094455 -322.337374060828 , -95.555015502342 -346.898667628711 , -166.723418095239 -317.521769670138 , -255.340332388317 -238.515155541992 , -310.220804732879 -159.508541413845 , -365.10127707744 -67.4992623472269 , -375.043627427774 0 , -375.043627427774 Z "
       id="path4835"
       inkscape:connector-curvature="0"
       sodipodi:nodetypes="zzzzzzzzzzzzzzzzzzzzzzzzzzz" />
  </g>
</svg>
