<?xml version="1.0" encoding="UTF-8" standalone="no"?>
<!-- Created with Inkscape (http://www.inkscape.org/) -->

<svg
   xmlns:dc="http://purl.org/dc/elements/1.1/"
   xmlns:cc="http://creativecommons.org/ns#"
   xmlns:rdf="http://www.w3.org/1999/02/22-rdf-syntax-ns#"
   xmlns:svg="http://www.w3.org/2000/svg"
   xmlns="http://www.w3.org/2000/svg"
   xmlns:sodipodi="http://sodipodi.sourceforge.net/DTD/sodipodi-0.dtd"
   xmlns:inkscape="http://www.inkscape.org/namespaces/inkscape"
   width="210mm"
   height="297mm"
   viewBox="0 0 744.09448819 1052.3622047"
   id="svg4222"
   version="1.1"
   inkscape:version="0.91 r13725"
   sodipodi:docname="9_17.svg">
  <defs
     id="defs4224" />
  <sodipodi:namedview
     id="base"
     pagecolor="#ffffff"
     bordercolor="#666666"
     borderopacity="1.0"
     inkscape:pageopacity="0.0"
     inkscape:pageshadow="2"
     inkscape:zoom="1.5982422"
     inkscape:cx="208.56715"
     inkscape:cy="845.35745"
     inkscape:document-units="px"
     inkscape:current-layer="layer1"
     showgrid="false"
     inkscape:window-width="2560"
     inkscape:window-height="1315"
     inkscape:window-x="0"
     inkscape:window-y="1"
     inkscape:window-maximized="1" />
  <metadata
     id="metadata4227">
    <rdf:RDF>
      <cc:Work
         rdf:about="">
        <dc:format>image/svg+xml</dc:format>
        <dc:type
           rdf:resource="http://purl.org/dc/dcmitype/StillImage" />
        <dc:title></dc:title>
      </cc:Work>
    </rdf:RDF>
  </metadata>
  <g
     inkscape:label="Layer 1"
     inkscape:groupmode="layer"
     id="layer1">
    <path
       style="fill:none;fill-rule:evenodd;stroke:#ffeb08;stroke-width:8.43244076;stroke-linecap:butt;stroke-linejoin:miter;stroke-miterlimit:4;stroke-dasharray:none;stroke-opacity:1"
       d="M  0 , -369.479283285516 C  23.6106204843836 , -369.479283285516 126.911906082797 , -368.747050996589 218.522118781506 , -313.008421545401 310.132331480215 , -257.269792094213 341.573900405192 , -168.22194174148 317.280007956974 , -95.9391119848655 292.986115508755 , -23.6562822282513 261.790781123525 , -27.8861458858759 216.539512586307 , 19.5537118743303 171.288244049088 , 66.9935696345366 155.377402840779 , 123.843359236949 75.6237119974265 , 116.678242769724 -4.12997884592619 , 109.513126302498 1.41528396034793 , 50.6148501352238 -77.7900855325568 , 43.9277570244081 -156.995455025462 , 37.2406639135924 -169.909006095872 , 79.2091066903214 -231.181805371325 , 104.962658285506 -292.454604646778 , 130.716209880691 -363.575671218695 , 136.812118910305 -429.500588251864 , 81.2422388293435 -495.425505285033 , 25.6723587483816 -530.495366583193 , -99.3768611636914 -442.575795402798 , -177.087704328599 -354.656224222402 , -254.798547493507 -281.357236890325 , -192.79797866228 -264.601522791533 , -174.416960050717 -247.845808692741 , -156.035941439154 -227.643960353622 , -121.08105124127 -238.928401085997 , -72.1372962154955 -250.212841818372 , -23.1935411897212 -275.956419887392 , -15.2820994341258 -293.964048854998 , 45.7018582481708 -311.971677822603 , 106.685815930467 -308.495680661661 , 185.44665125918 -229.134980898659 , 250.685922864762 -149.774281135657 , 315.925194470344 -47.9375163676921 , 324.09318892863 0 , 324.09318892863 47.9375163676921 , 324.09318892863 149.774281135657 , 315.925194470344 229.134980898659 , 250.685922864762 308.495680661661 , 185.44665125918 311.971677822603 , 106.685815930467 293.964048854998 , 45.7018582481708 275.956419887392 , -15.2820994341258 250.212841818372 , -23.1935411897212 238.928401085997 , -72.1372962154955 227.643960353622 , -121.08105124127 247.845808692741 , -156.035941439154 264.601522791533 , -174.416960050717 281.357236890325 , -192.79797866228 354.656224222402 , -254.798547493507 442.575795402798 , -177.087704328599 530.495366583193 , -99.3768611636914 495.425505285033 , 25.6723587483816 429.500588251864 , 81.2422388293435 363.575671218695 , 136.812118910305 292.454604646778 , 130.716209880691 231.181805371325 , 104.962658285506 169.909006095872 , 79.2091066903214 156.995455025462 , 37.2406639135924 77.7900855325568 , 43.9277570244081 -1.41528396034795 , 50.6148501352238 4.12997884592621 , 109.513126302498 -75.6237119974265 , 116.678242769724 -155.377402840779 , 123.843359236949 -171.288244049088 , 66.9935696345366 -216.539512586307 , 19.5537118743303 -261.790781123525 , -27.8861458858759 -292.986115508755 , -23.6562822282513 -317.280007956974 , -95.9391119848655 -341.573900405192 , -168.22194174148 -310.132331480215 , -257.269792094213 -218.522118781506 , -313.008421545401 -126.911906082797 , -368.747050996589 -23.6106204843836 , -369.479283285516 0 , -369.479283285516 Z "
       id="path4835"
       inkscape:connector-curvature="0"
       sodipodi:nodetypes="zzzzzzzzzzzzzzzzzzzzzzzzzzz" />
  </g>
</svg>
