<?xml version="1.0" encoding="UTF-8" standalone="no"?>
<!-- Created with Inkscape (http://www.inkscape.org/) -->

<svg
   xmlns:dc="http://purl.org/dc/elements/1.1/"
   xmlns:cc="http://creativecommons.org/ns#"
   xmlns:rdf="http://www.w3.org/1999/02/22-rdf-syntax-ns#"
   xmlns:svg="http://www.w3.org/2000/svg"
   xmlns="http://www.w3.org/2000/svg"
   xmlns:sodipodi="http://sodipodi.sourceforge.net/DTD/sodipodi-0.dtd"
   xmlns:inkscape="http://www.inkscape.org/namespaces/inkscape"
   width="210mm"
   height="297mm"
   viewBox="0 0 744.09448819 1052.3622047"
   id="svg2"
   version="1.1"
   inkscape:version="0.91 r13725"
   sodipodi:docname="9_18.svg">
  <defs
     id="defs4" />
  <sodipodi:namedview
     id="base"
     pagecolor="#ffffff"
     bordercolor="#666666"
     borderopacity="1.0"
     inkscape:pageopacity="0.0"
     inkscape:pageshadow="2"
     inkscape:zoom="1.1171305"
     inkscape:cx="440.72776"
     inkscape:cy="580.96989"
     inkscape:document-units="px"
     inkscape:current-layer="layer1"
     showgrid="false"
     inkscape:window-width="1600"
     inkscape:window-height="835"
     inkscape:window-x="0"
     inkscape:window-y="0"
     inkscape:window-maximized="1" />
  <metadata
     id="metadata7">
    <rdf:RDF>
      <cc:Work
         rdf:about="">
        <dc:format>image/svg+xml</dc:format>
        <dc:type
           rdf:resource="http://purl.org/dc/dcmitype/StillImage" />
        <dc:title></dc:title>
      </cc:Work>
    </rdf:RDF>
  </metadata>
  <g
     inkscape:label="Layer 1"
     inkscape:groupmode="layer"
     id="layer1">
    <path
       style="fill:none;fill-rule:evenodd;stroke:#ff0000;stroke-width:9.37274361;stroke-linecap:butt;stroke-linejoin:miter;stroke-miterlimit:4;stroke-dasharray:none;stroke-opacity:1"
       d="M  0 , -142.370647063007 C  9.21369268571592 , -142.370647063007 52.8082417327965 , -142.290287494679 102.778801849146 , -119.942100232581 152.749361965496 , -97.5939129704824 214.359089984766 , -61.8891576531901 270.830809509853 , 17.8712592748953 327.30252903494 , 97.6316762029808 349.016467383698 , 148.294835221584 347.833977048606 , 210.831917920867 346.651486713515 , 273.36900062015 322.437926794301 , 353.557979465383 245.146096164022 , 415.921919728878 167.854265533743 , 478.285859992372 102.500526225957 , 476.054256945988 0 , 476.054256945988 -102.500526225957 , 476.054256945988 -167.854265533743 , 478.285859992372 -245.146096164022 , 415.921919728878 -322.437926794301 , 353.557979465383 -355.386931957949 , 270.992705853378 -367.056002136952 , 229.767310853924 -378.725072315955 , 188.541915854469 -407.01535667614 , 48.4925635209255 -305.661330819232 , -22.7681656711393 -204.307304962323 , -94.0288948632042 -136.751835286211 , -6.70248422161997 -130.934344213525 , 0.961696090745473 -125.116853140839 , 8.62587640311092 -98.2224407073953 , 45.6509762343825 -112.684381799826 , 95.9147175626076 -127.146322892256 , 146.178458890833 -156.346303906485 , 151.037089176444 -171.241090691727 , 204.448533979314 -186.135877476969 , 257.859978782184 -162.901667895292 , 294.353353537589 -142.986624041975 , 312.735071902502 -123.071580188657 , 331.116790267415 -89.6575938737464 , 351.439346679587 0.322646467066003 , 351.179170757736 90.3028868078784 , 350.918994835885 123.071580188657 , 331.116790267415 142.986624041975 , 312.735071902502 162.901667895292 , 294.353353537589 186.525277495601 , 261.713181942437 186.153983162521 , 213.362143279194 185.782688829442 , 165.011104615951 165.57433942531 , 140.510476449501 158.846840132721 , 86.6096288140698 152.119340840131 , 32.7087811786389 160.597765241002 , 3.04076739291998 163.544890352289 , -6.91954635296842 166.492015463575 , -16.8798600988568 192.505815117347 , -103.404156302743 279.538424220127 , -113.74269662046 366.571033322907 , -124.081236938177 415.885395194723 , -45.9504080168523 395.960616116664 , 21.0982455916037 376.035837038605 , 88.1468992000597 317.096261377957 , 108.566909396179 251.705675044336 , 132.065790570032 186.315088710714 , 155.564671743885 131.296770479405 , 156.103881972303 95.4082040591005 , 225.400239701754 59.5196376387961 , 294.696597431205 86.343211029196 , 353.123091322253 98.436208916719 , 409.808003488363 110.529206804242 , 466.492915654473 120.543727265029 , 516.172879531666 88.5847686361935 , 563.402328957173 56.625810007358 , 610.63177838268 10.1007445734281 , 611.806270932168 0 , 611.806270932168 -10.1007445734281 , 611.806270932168 -56.625810007358 , 610.63177838268 -88.5847686361935 , 563.402328957173 -120.543727265029 , 516.172879531666 -110.529206804242 , 466.492915654473 -98.436208916719 , 409.808003488363 -86.343211029196 , 353.123091322253 -62.6960729524948 , 305.393496825819 -87.9720440655805 , 223.926244100976 -113.248015178666 , 142.458991376132 -165.357837032911 , 156.858566777114 -191.102985795366 , 65.1631631162863 -216.848134557822 , -26.5322405445413 -152.749361965496 , -97.5939129704825 -102.778801849146 , -119.942100232581 -52.8082417327965 , -142.290287494679 -9.21369268571592 , -142.370647063007 0 , -142.370647063007 Z "
       id="path3401"
       inkscape:connector-curvature="0"
       sodipodi:nodetypes="zzzzzzzzzzzzzzzzzzzzzzzzzzzzzzz" />
  </g>
</svg>
