<?xml version="1.0" encoding="UTF-8" standalone="no"?>
<!-- Created with Inkscape (http://www.inkscape.org/) -->

<svg
   xmlns:dc="http://purl.org/dc/elements/1.1/"
   xmlns:cc="http://creativecommons.org/ns#"
   xmlns:rdf="http://www.w3.org/1999/02/22-rdf-syntax-ns#"
   xmlns:svg="http://www.w3.org/2000/svg"
   xmlns="http://www.w3.org/2000/svg"
   xmlns:sodipodi="http://sodipodi.sourceforge.net/DTD/sodipodi-0.dtd"
   xmlns:inkscape="http://www.inkscape.org/namespaces/inkscape"
   width="210mm"
   height="297mm"
   viewBox="0 0 744.09448819 1052.3622047"
   id="svg2"
   version="1.1"
   inkscape:version="0.91 r13725"
   sodipodi:docname="9_18.svg">
  <defs
     id="defs4" />
  <sodipodi:namedview
     id="base"
     pagecolor="#ffffff"
     bordercolor="#666666"
     borderopacity="1.0"
     inkscape:pageopacity="0.0"
     inkscape:pageshadow="2"
     inkscape:zoom="1.1171305"
     inkscape:cx="440.72776"
     inkscape:cy="580.96989"
     inkscape:document-units="px"
     inkscape:current-layer="layer1"
     showgrid="false"
     inkscape:window-width="1600"
     inkscape:window-height="835"
     inkscape:window-x="0"
     inkscape:window-y="0"
     inkscape:window-maximized="1" />
  <metadata
     id="metadata7">
    <rdf:RDF>
      <cc:Work
         rdf:about="">
        <dc:format>image/svg+xml</dc:format>
        <dc:type
           rdf:resource="http://purl.org/dc/dcmitype/StillImage" />
        <dc:title></dc:title>
      </cc:Work>
    </rdf:RDF>
  </metadata>
  <g
     inkscape:label="Layer 1"
     inkscape:groupmode="layer"
     id="layer1">
    <path
       style="fill:none;fill-rule:evenodd;stroke:#ff0000;stroke-width:9.37274361;stroke-linecap:butt;stroke-linejoin:miter;stroke-miterlimit:4;stroke-dasharray:none;stroke-opacity:1"
       d="M  0 , -141.407604516974 C  9.41962732053401 , -141.407604516974 52.3313875868802 , -141.319400665395 101.506167933507 , -119.631039898701 150.680948280133 , -97.9426791320076 212.26083234789 , -63.7134583809386 271.190021276909 , 19.8307164837426 330.119210205928 , 103.374891348424 348.667603646622 , 158.376938433383 346.99752050838 , 215.934643187951 345.327437370138 , 273.492347942519 324.223993893773 , 351.950916320692 246.047183005131 , 415.590239471019 167.870372116489 , 479.229562621347 99.3038941435099 , 476.032007496325 0 , 476.032007496325 -99.3038941435099 , 476.032007496325 -167.870372116489 , 479.229562621347 -246.047183005131 , 415.590239471019 -324.223993893773 , 351.950916320692 -356.765713917778 , 265.274537321858 -367.115509469555 , 228.195790014599 -377.465305021331 , 191.11704270734 -406.992260388149 , 52.7294486122898 -306.434176594702 , -20.7205478790381 -205.876092801254 , -94.1705443703661 -136.964759651509 , -6.68893731022131 -131.087427157011 , 0.918458758506602 -125.210094662513 , 8.52585482723451 -97.7858090965413 , 45.5636275401852 -112.437113530001 , 96.4280413022052 -127.08841796346 , 147.292455064225 -156.645285765718 , 151.883040941126 -171.586437229114 , 205.679645841533 -186.527588692509 , 259.476250741941 -162.438679627981 , 295.787950181773 -142.998926552819 , 313.657937062629 -123.559173477657 , 331.527923943484 -89.236305542698 , 352.616000263048 1.54454998724923 , 351.836351174018 92.3254055171965 , 351.056702084988 123.559173477657 , 331.527923943484 142.998926552819 , 313.657937062629 162.438679627981 , 295.787950181773 186.012737530679 , 263.774102348331 186.005966644125 , 215.291282864618 185.999195757572 , 166.808463380904 165.682018302633 , 141.579539285293 158.914911726867 , 87.2928652319354 152.147805151102 , 33.0061911785781 160.793883672458 , 3.00815150804229 163.489972924211 , -6.1353508143104 166.186062175965 , -15.2788531366631 192.392266786715 , -103.356611169532 281.797192489395 , -112.68428679865 371.202118192074 , -122.011962427769 419.444842119437 , -40.1799843352327 397.630179822097 , 26.7584065098228 375.815517524757 , 93.6967973548782 316.973443381321 , 112.482350509265 252.08872520114 , 134.616507225651 187.204007020958 , 156.750663942037 131.919947077715 , 157.355897712393 96.0045797585721 , 226.203720386643 60.0892124394296 , 295.051543060893 86.8142482915798 , 353.727191600512 98.6881693560015 , 410.185129715509 110.562090420423 , 466.643067830506 120.680975254891 , 515.143831370661 88.804081159311 , 562.631112280547 56.9271870637305 , 610.118393190432 10.0359972370622 , 611.303806490469 0 , 611.303806490469 -10.0359972370622 , 611.303806490469 -56.9271870637305 , 610.118393190432 -88.804081159311 , 562.631112280547 -120.680975254891 , 515.143831370661 -110.562090420423 , 466.643067830506 -98.6881693560015 , 410.185129715509 -86.8142482915798 , 353.727191600512 -63.2193907624761 , 307.534450773969 -88.3038768755926 , 225.325011184075 -113.388362988709 , 143.115571594181 -165.41262512914 , 158.473728671829 -190.968071533998 , 65.2609471503992 -216.523517938856 , -27.9518343710308 -150.680948280133 , -97.9426791320076 -101.506167933507 , -119.631039898701 -52.3313875868802 , -141.319400665395 -9.41962732053401 , -141.407604516974 0 , -141.407604516974 Z "
       id="path3401"
       inkscape:connector-curvature="0"
       sodipodi:nodetypes="zzzzzzzzzzzzzzzzzzzzzzzzzzzzzzz" />
  </g>
</svg>
