<?xml version="1.0" encoding="UTF-8" standalone="no"?>
<!-- Created with Inkscape (http://www.inkscape.org/) -->

<svg
   xmlns:dc="http://purl.org/dc/elements/1.1/"
   xmlns:cc="http://creativecommons.org/ns#"
   xmlns:rdf="http://www.w3.org/1999/02/22-rdf-syntax-ns#"
   xmlns:svg="http://www.w3.org/2000/svg"
   xmlns="http://www.w3.org/2000/svg"
   xmlns:sodipodi="http://sodipodi.sourceforge.net/DTD/sodipodi-0.dtd"
   xmlns:inkscape="http://www.inkscape.org/namespaces/inkscape"
   width="210mm"
   height="297mm"
   viewBox="0 0 744.09448819 1052.3622047"
   id="svg2"
   version="1.1"
   inkscape:version="0.91 r13725"
   sodipodi:docname="9_22.svg">
  <defs
     id="defs4" />
  <sodipodi:namedview
     id="base"
     pagecolor="#ffffff"
     bordercolor="#666666"
     borderopacity="1.0"
     inkscape:pageopacity="0.0"
     inkscape:pageshadow="2"
     inkscape:zoom="0.84223452"
     inkscape:cx="303.57143"
     inkscape:cy="796.78572"
     inkscape:document-units="px"
     inkscape:current-layer="layer1"
     showgrid="false"
     inkscape:window-width="1600"
     inkscape:window-height="835"
     inkscape:window-x="0"
     inkscape:window-y="0"
     inkscape:window-maximized="1" />
  <metadata
     id="metadata7">
    <rdf:RDF>
      <cc:Work
         rdf:about="">
        <dc:format>image/svg+xml</dc:format>
        <dc:type
           rdf:resource="http://purl.org/dc/dcmitype/StillImage" />
        <dc:title></dc:title>
      </cc:Work>
    </rdf:RDF>
  </metadata>
  <g
     inkscape:label="Layer 1"
     inkscape:groupmode="layer"
     id="layer1">
    <path
       style="fill:none;fill-rule:evenodd;stroke:#fa0000;stroke-width:13.69403267;stroke-linecap:butt;stroke-linejoin:miter;stroke-miterlimit:4;stroke-dasharray:none;stroke-opacity:1"
       d="M  -161.654800238261 , -123.831509851481 C  -71.4296336828423 , -129.444624637281 25.433941094239 , -48.6308872143002 73.2086160376714 , 11.2424706649717 120.983290981104 , 71.1158285442437 136.825474603291 , 147.356380474025 148.430078200249 , 245.619325560611 160.034681797207 , 343.882270647198 178.056463194107 , 381.788634899669 142.24436647731 , 437.658625041897 106.432269760513 , 493.528615184125 29.0075662209043 , 520.79126964633 -43.8984012042067 , 484.641268861341 -116.804368629318 , 448.491268076352 -129.22286056344 , 377.50684959035 -171.492263720559 , 275.96280934963 -213.761666877678 , 174.418769108909 -250.835333721412 , 126.079888967896 -302.64614561013 , 81.087532527882 -354.456957498847 , 36.0951760878677 -429.187669129246 , 5.15272158756851 -487.995497352683 , 49.8921535566134 -546.803325576119 , 94.6315855256583 -533.087164867163 , 173.809125591978 -480.637842837908 , 206.808234295882 -428.188520808652 , 239.807342999785 -363.655574414566 , 222.81806887015 -311.60305479986 , 188.847587934771 -259.550535185155 , 154.877106999391 -189.966531614748 , 92.4448736276853 -146.046576832978 , 63.0872271076883 -102.126622051208 , 33.7295805876913 -44.8852116935212 , 21.2723016685685 0 , 21.2723016685685 44.8852116935212 , 21.2723016685685 74.4131716251493 , 72.3961157392092 43.7141447849331 , 117.435102313006 13.0151179447169 , 162.474088886803 -21.6266059859254 , 163.629267847826 -44.8919859649493 , 197.341201776327 -68.1573659439732 , 231.053135704827 -60.4464426808939 , 260.737199961943 -55.9663335277105 , 273.033351497767 -51.4862243745271 , 285.329503033591 -28.2156283214654 , 341.277569323487 67.3148949857427 , 347.66124829099 162.845418292951 , 354.044927258493 235.034092902459 , 348.816533272445 282.067364598032 , 259.727697552036 329.100636293604 , 170.638861831626 315.657630682418 , -18.4123808237191 146.906688615967 , -114.841433275661 -21.8442534504844 , -211.270485727602 -66.54205095575 , -65.6667691295849 -73.3277334366348 , -27.5309571579288 -80.1134159175195 , 10.6048548137274 -69.4573919262677 , 48.865373549151 -52.8890415452085 , 82.1475040129796 -36.3206911641493 , 115.429634476808 -52.3209657502778 , 83.2886350179314 -35.4958317602804 , 117.086579586737 -18.6706977702831 , 150.884524155542 1.96220057665829 , 175.70239305562 8.89758991320684 , 205.607877309649 15.8329792497554 , 235.513361563677 11.6986114004947 , 256.801337142983 8.78947123747408 , 268.753471862207 5.88033107445346 , 280.70560658143 -7.48404124090078 , 329.089321254646 -58.5908489386378 , 369.034849223943 -109.697656636375 , 408.980377193241 -170.599694862811 , 441.88366235306 -251.900593142718 , 412.561557899275 -333.201491422625 , 383.23945344549 -367.154209996972 , 314.132002043142 -373.687136628092 , 300.301787368694 -380.220063259212 , 286.471572694246 -409.765541468814 , 221.479786243608 -396.562680985923 , 128.791850492997 -383.359820503033 , 36.1039147423862 -353.555793971813 , -9.31686528788953 -330.223989377364 , -36.953509087987 -306.892184782916 , -64.5901528880844 -251.879966793679 , -118.218395065681 -161.654800238261 , -123.831509851481 Z "
       id="path4201"
       inkscape:connector-curvature="0"
       sodipodi:nodetypes="zzzzzzzzzzzzzzzzzzzzzzzzzzzzz" />
  </g>
</svg>
