<?xml version="1.0" encoding="UTF-8" standalone="no"?>
<!-- Created with Inkscape (http://www.inkscape.org/) -->

<svg
   xmlns:dc="http://purl.org/dc/elements/1.1/"
   xmlns:cc="http://creativecommons.org/ns#"
   xmlns:rdf="http://www.w3.org/1999/02/22-rdf-syntax-ns#"
   xmlns:svg="http://www.w3.org/2000/svg"
   xmlns="http://www.w3.org/2000/svg"
   xmlns:sodipodi="http://sodipodi.sourceforge.net/DTD/sodipodi-0.dtd"
   xmlns:inkscape="http://www.inkscape.org/namespaces/inkscape"
   width="210mm"
   height="297mm"
   viewBox="0 0 744.09448819 1052.3622047"
   id="svg2"
   version="1.1"
   inkscape:version="0.91 r13725"
   sodipodi:docname="9_22.svg">
  <defs
     id="defs4" />
  <sodipodi:namedview
     id="base"
     pagecolor="#ffffff"
     bordercolor="#666666"
     borderopacity="1.0"
     inkscape:pageopacity="0.0"
     inkscape:pageshadow="2"
     inkscape:zoom="0.84223452"
     inkscape:cx="303.57143"
     inkscape:cy="796.78572"
     inkscape:document-units="px"
     inkscape:current-layer="layer1"
     showgrid="false"
     inkscape:window-width="1600"
     inkscape:window-height="835"
     inkscape:window-x="0"
     inkscape:window-y="0"
     inkscape:window-maximized="1" />
  <metadata
     id="metadata7">
    <rdf:RDF>
      <cc:Work
         rdf:about="">
        <dc:format>image/svg+xml</dc:format>
        <dc:type
           rdf:resource="http://purl.org/dc/dcmitype/StillImage" />
        <dc:title></dc:title>
      </cc:Work>
    </rdf:RDF>
  </metadata>
  <g
     inkscape:label="Layer 1"
     inkscape:groupmode="layer"
     id="layer1">
    <path
       style="fill:none;fill-rule:evenodd;stroke:#fa0000;stroke-width:13.69403267;stroke-linecap:butt;stroke-linejoin:miter;stroke-miterlimit:4;stroke-dasharray:none;stroke-opacity:1"
       d="M  -162.757597280163 , -127.215788637781 C  -70.8574377446757 , -134.91724025166 24.4578091166543 , -54.1298899168337 75.2162013715241 , 12.8432498265435 125.974593626394 , 79.8163895699206 140.014115161868 , 142.162116150326 151.036841057175 , 233.115711870696 162.059566952482 , 324.069307591065 188.769943157389 , 374.262685527647 145.259477025448 , 444.03202200206 101.749010893507 , 513.801358476473 5.66998236051779 , 536.185161044423 -63.3765706348391 , 492.137161323914 -132.423123630196 , 448.089161603406 -144.438678914144 , 360.794914933709 -175.481191397525 , 273.719081183782 -206.523703880906 , 186.643247433854 -248.110782426656 , 131.743920864711 -303.155635786033 , 90.1796400759262 -358.20048914541 , 48.6153592871412 -429.552079681358 , 27.8796429471424 -480.181151116449 , 73.1494094242635 -530.810222551541 , 118.419175901385 -516.576748001706 , 186.832463788089 -470.719075366093 , 216.840088511436 -424.861402730481 , 246.847713234783 -364.271530863234 , 234.562992697408 -308.658389780712 , 197.504424648894 -253.045248698189 , 160.445856600381 -186.936565999829 , 96.1035465983231 -141.674061633139 , 64.5438720383613 -96.4115572664494 , 32.9841974783995 -43.3943045303498 , 21.9486117952766 0 , 21.9486117952766 43.3943045303498 , 21.9486117952766 72.5450530052416 , 69.4966045407168 43.4429989013499 , 114.066205242078 14.3409447974583 , 158.635805943439 -21.6576146387381 , 163.33410852462 -42.7594841343296 , 193.681418905664 -63.8613536299212 , 224.028729286708 -61.6420217299959 , 251.017379292936 -54.5865419523417 , 271.718501029772 -47.5310621746876 , 292.419622766607 -22.1404531367888 , 341.977817459568 71.7271018115704 , 341.608402009192 165.59465675993 , 341.238986558816 234.413462871631 , 340.830124154252 281.333047407829 , 247.896655561964 328.252631944028 , 154.963186969676 321.284037489591 , -7.78669233040318 153.514673575503 , -112.086211940717 -14.2546903385855 , -216.385731551031 -63.350534166064 , -69.2862512765856 -72.2132406450894 , -28.7511086881331 -81.0759471241148 , 11.7840339003193 -69.4643917878418 , 48.850265563702 -52.8841871804714 , 82.1557278494265 -36.303982573101 , 115.461190135151 -52.3206295642644 , 83.2965080686764 -35.5214382303364 , 117.025070875289 -18.7222468964084 , 150.753633681902 1.11372841660518 , 173.168969411148 8.56962104099086 , 202.392285772618 16.0255136653766 , 231.615602134089 12.6289800426213 , 253.382423022246 9.07690561969682 , 268.961234190769 5.52483119677235 , 284.540045359292 -9.20828220971935 , 339.333941405424 -63.9852675438036 , 379.406694974868 -118.762252877888 , 419.479448544312 -180.653997464738 , 449.092475202715 -258.065709179806 , 416.484329778591 -335.477420894874 , 383.876184354467 -366.684423735001 , 319.307533372273 -377.061311269083 , 294.537766992193 -387.438198803165 , 269.768000612113 -404.712487881211 , 215.170027343979 -392.047694022935 , 138.876309032266 -379.382900164658 , 62.5825907205538 -358.774974174723 , 10.1779344891261 -331.74510443096 , -27.3327098893592 -304.715234687197 , -64.8433542678445 -254.65775681565 , -119.514337023902 -162.757597280163 , -127.215788637781 Z "
       id="path4201"
       inkscape:connector-curvature="0"
       sodipodi:nodetypes="zzzzzzzzzzzzzzzzzzzzzzzzzzzzz" />
  </g>
</svg>
