<?xml version="1.0" encoding="UTF-8" standalone="no"?>
<!-- Created with Inkscape (http://www.inkscape.org/) -->

<svg
   xmlns:dc="http://purl.org/dc/elements/1.1/"
   xmlns:cc="http://creativecommons.org/ns#"
   xmlns:rdf="http://www.w3.org/1999/02/22-rdf-syntax-ns#"
   xmlns:svg="http://www.w3.org/2000/svg"
   xmlns="http://www.w3.org/2000/svg"
   xmlns:sodipodi="http://sodipodi.sourceforge.net/DTD/sodipodi-0.dtd"
   xmlns:inkscape="http://www.inkscape.org/namespaces/inkscape"
   width="744.09448819"
   height="1052.3622047"
   id="svg2"
   version="1.1"
   inkscape:version="0.48.4 r9939"
   sodipodi:docname="9_23.svg">
  <defs
     id="defs4" />
  <sodipodi:namedview
     id="base"
     pagecolor="#ffffff"
     bordercolor="#666666"
     borderopacity="1.0"
     inkscape:pageopacity="0.0"
     inkscape:pageshadow="2"
     inkscape:zoom="0.49773862"
     inkscape:cx="-223.45145"
     inkscape:cy="726.47233"
     inkscape:document-units="px"
     inkscape:current-layer="layer1"
     showgrid="false"
     inkscape:window-width="1600"
     inkscape:window-height="824"
     inkscape:window-x="-3"
     inkscape:window-y="-3"
     inkscape:window-maximized="1" />
  <metadata
     id="metadata7">
    <rdf:RDF>
      <cc:Work
         rdf:about="">
        <dc:format>image/svg+xml</dc:format>
        <dc:type
           rdf:resource="http://purl.org/dc/dcmitype/StillImage" />
        <dc:title></dc:title>
      </cc:Work>
    </rdf:RDF>
  </metadata>
  <g
     inkscape:label="Layer 1"
     inkscape:groupmode="layer"
     id="layer1">
    <path
       style="fill:none;stroke:#0040ff;stroke-width:14.70778275;stroke-linecap:butt;stroke-linejoin:miter;stroke-miterlimit:4;stroke-opacity:1;stroke-dasharray:none"
       d="M  0 , -189.19512060326 C  94.2319430105021 , -189.19512060326 132.430409168551 , -127.322987548507 176.32876426652 , -74.645407177035 220.22711936449 , -21.9678268055634 255.501063443691 , 45.2692409966916 349.151757152677 , 45.4832351776918 442.802450861663 , 45.6972293586919 566.394616704594 , -90.3172275975001 409.006932518818 , -195.008035680662 251.619248333041 , -299.698843763825 85.8825754411425 , -95.4515067922408 52.9019104210086 , -56.6662934822078 19.9212454008747 , -17.8810801721747 -19.9212454008747 , 17.8810801721747 -52.9019104210086 , 56.6662934822078 -85.8825754411425 , 95.4515067922408 -251.619248333041 , 299.698843763825 -409.006932518818 , 195.008035680662 -566.394616704594 , 90.3172275975001 -442.802450861663 , -45.6972293586919 -349.151757152677 , -45.4832351776918 -255.501063443691 , -45.2692409966916 -220.22711936449 , 21.9678268055634 -176.32876426652 , 74.645407177035 -132.430409168551 , 127.322987548507 -94.2319430105021 , 189.19512060326 0 , 189.19512060326 94.2319430105021 , 189.19512060326 132.430409168551 , 127.322987548507 176.32876426652 , 74.645407177035 220.22711936449 , 21.9678268055634 255.501063443691 , -45.2692409966916 349.151757152677 , -45.4832351776918 442.802450861663 , -45.6972293586919 566.394616704594 , 90.3172275975001 409.006932518818 , 195.008035680662 251.619248333041 , 299.698843763825 85.8825754411425 , 95.4515067922408 52.9019104210086 , 56.6662934822078 19.9212454008747 , 17.8810801721747 -19.9212454008747 , -17.8810801721747 -52.9019104210086 , -56.6662934822078 -85.8825754411425 , -95.4515067922408 -251.619248333041 , -299.698843763825 -409.006932518818 , -195.008035680662 -566.394616704594 , -90.3172275975001 -442.802450861663 , 45.6972293586919 -349.151757152677 , 45.4832351776918 -255.501063443691 , 45.2692409966916 -220.22711936449 , -21.9678268055634 -176.32876426652 , -74.645407177035 -132.430409168551 , -127.322987548507 -94.2319430105021 , -189.19512060326 0 , -189.19512060326 Z "
       id="path3050"
       inkscape:connector-curvature="0"
       sodipodi:nodetypes="zzzzzzzzzzzzzzzzzzz" />
  </g>
</svg>
