<?xml version="1.0" encoding="UTF-8" standalone="no"?>
<!-- Created with Inkscape (http://www.inkscape.org/) -->

<svg
   xmlns:dc="http://purl.org/dc/elements/1.1/"
   xmlns:cc="http://creativecommons.org/ns#"
   xmlns:rdf="http://www.w3.org/1999/02/22-rdf-syntax-ns#"
   xmlns:svg="http://www.w3.org/2000/svg"
   xmlns="http://www.w3.org/2000/svg"
   xmlns:sodipodi="http://sodipodi.sourceforge.net/DTD/sodipodi-0.dtd"
   xmlns:inkscape="http://www.inkscape.org/namespaces/inkscape"
   width="744.09448819"
   height="1052.3622047"
   id="svg2"
   version="1.1"
   inkscape:version="0.48.4 r9939"
   sodipodi:docname="9_24.svg">
  <defs
     id="defs4" />
  <sodipodi:namedview
     id="base"
     pagecolor="#ffffff"
     bordercolor="#666666"
     borderopacity="1.0"
     inkscape:pageopacity="0.0"
     inkscape:pageshadow="2"
     inkscape:zoom="0.79673669"
     inkscape:cx="176.12813"
     inkscape:cy="889.22717"
     inkscape:document-units="px"
     inkscape:current-layer="layer1"
     showgrid="false"
     inkscape:window-width="1600"
     inkscape:window-height="824"
     inkscape:window-x="-3"
     inkscape:window-y="-3"
     inkscape:window-maximized="1" />
  <metadata
     id="metadata7">
    <rdf:RDF>
      <cc:Work
         rdf:about="">
        <dc:format>image/svg+xml</dc:format>
        <dc:type
           rdf:resource="http://purl.org/dc/dcmitype/StillImage" />
        <dc:title></dc:title>
      </cc:Work>
    </rdf:RDF>
  </metadata>
  <g
     inkscape:label="Layer 1"
     inkscape:groupmode="layer"
     id="layer1">
    <path
       style="fill:none;stroke:#26ff00;stroke-width:7.76344204;stroke-linecap:butt;stroke-linejoin:miter;stroke-miterlimit:4;stroke-opacity:1;stroke-dasharray:none"
       d="M -0.46208642,-204.32976 C -133.44315,-210.81255 -235.72962,-28.907291 -204.01919,5.5875287 -172.30877,40.08235 -29.522272,-73.72875 61.63597,-98.082766 152.79422,-122.43678 294.75723,-144.2384 342.4097,-61.366211 390.06216,21.505979 338.43812,196.65698 254.50259,210.75506 170.56707,224.85314 14.293205,80.336438 50.218954,27.949762 86.144705,-24.436901 202.07597,-7.1319934 267.43477,6.5378716 332.79357,20.207737 419.36511,206.81708 352.378,310.25198 285.39086,413.68687 -32.33969,462.15424 -146.38912,391.53348 -260.43856,320.91271 -310.2447,101.89519 -236.45606,86.922207 -162.66742,71.949224 -187.1154,314.78272 -110.04648,302.89446 -32.977565,291.0062 -58.482565,99.577161 -75.866756,13.475761 -93.250946,-72.625622 -160.14882,-158.79793 -268.81314,-113.20136 -377.47743,-67.604776 -394.84314,91.650691 -344.40605,156.77339 -293.96899,221.89609 -180.32702,199.03651 -115.52462,196.383 -50.722192,193.72948 39.578445,177.51061 73.066281,160.31545 106.55411,143.12034 141.89974,105.12039 161.22563,69.196455 180.55156,33.272484 188.29792,2.2291002 186.90426,-33.288811 185.5106,-68.806722 132.51898,-197.84697 -0.46208642,-204.32976 z"
       id="path3050"
       inkscape:connector-curvature="0"
       sodipodi:nodetypes="zzzzzzzzzzzzzzzzzzz" />
  </g>
</svg>
