<?xml version="1.0" encoding="UTF-8" standalone="no"?>
<!-- Created with Inkscape (http://www.inkscape.org/) -->

<svg
   xmlns:dc="http://purl.org/dc/elements/1.1/"
   xmlns:cc="http://creativecommons.org/ns#"
   xmlns:rdf="http://www.w3.org/1999/02/22-rdf-syntax-ns#"
   xmlns:svg="http://www.w3.org/2000/svg"
   xmlns="http://www.w3.org/2000/svg"
   xmlns:sodipodi="http://sodipodi.sourceforge.net/DTD/sodipodi-0.dtd"
   xmlns:inkscape="http://www.inkscape.org/namespaces/inkscape"
   width="210mm"
   height="297mm"
   viewBox="0 0 744.09448819 1052.3622047"
   id="svg2"
   version="1.1"
   inkscape:version="0.91 r13725"
   sodipodi:docname="9_31.svg">
  <defs
     id="defs4" />
  <sodipodi:namedview
     id="base"
     pagecolor="#ffffff"
     bordercolor="#666666"
     borderopacity="1.0"
     inkscape:pageopacity="0.0"
     inkscape:pageshadow="2"
     inkscape:zoom="1.5982422"
     inkscape:cx="209.19284"
     inkscape:cy="945.46743"
     inkscape:document-units="px"
     inkscape:current-layer="layer1"
     showgrid="false"
     inkscape:window-width="2560"
     inkscape:window-height="1315"
     inkscape:window-x="0"
     inkscape:window-y="1"
     inkscape:window-maximized="1" />
  <metadata
     id="metadata7">
    <rdf:RDF>
      <cc:Work
         rdf:about="">
        <dc:format>image/svg+xml</dc:format>
        <dc:type
           rdf:resource="http://purl.org/dc/dcmitype/StillImage" />
        <dc:title></dc:title>
      </cc:Work>
    </rdf:RDF>
  </metadata>
  <g
     inkscape:label="Layer 1"
     inkscape:groupmode="layer"
     id="layer1">
    <path
       style="fill:none;fill-rule:evenodd;stroke:#f20000;stroke-width:21.84212494;stroke-linecap:butt;stroke-linejoin:miter;stroke-miterlimit:4;stroke-dasharray:none;stroke-opacity:1"
       d="M 1.6565454,-161.53566 C 69.142166,-163.84352 155.89608,-125.75204 206.84927,-93.754356 257.80245,-61.756672 307.48429,-39.746051 331.79866,21.4334 356.11303,82.612849 384.17383,167.24277 316.17998,245.95187 248.18615,324.66097 159.07293,302.55727 93.613853,265.47521 28.154782,228.39315 -22.293935,219.19468 -74.136377,178.94205 -125.97882,138.68942 -180.74773,79.273625 -216.80736,23.385712 -252.86701,-32.502203 -263.28033,-100.62555 -261.71106,-177.70476 -260.1418,-254.78393 -202.64359,-273.56007 -141.21554,-208.39621 -79.787535,-143.23236 -61.655762,-100.89629 -76.239251,-7.8516484 -90.82277,85.192997 -174.65076,135.87979 -179.71301,212.76217 -184.77527,289.64455 -140.53929,433.92641 7.8381396,441.73575 156.2156,449.54512 233.87806,267.24139 210.75392,179.5725 187.62979,91.903616 81.99999,32.376898 81.899828,-29.327325 81.799666,-91.031548 123.52025,-168.93972 181.40725,-217.88774 239.29425,-266.83576 267.66963,-229.28996 273.22864,-144.51508 278.78762,-59.740208 250.55848,-13.309839 206.84927,40.956734 163.14005,95.223307 137.81821,140.49777 94.813452,172.98626 51.808691,205.47475 13.363807,235.41779 -57.450361,272.94397 -128.26454,310.47014 -241.30325,333.94156 -302.71008,275.23689 -364.11691,216.53221 -355.49195,115.80482 -330.69743,57.420611 -305.9029,-0.96360937 -236.26796,-53.599075 -184.65093,-102.74695 -133.0339,-151.89481 -65.829075,-159.2278 1.6565454,-161.53566 Z"
       id="path4217"
       inkscape:connector-curvature="0"
       sodipodi:nodetypes="zzzzzzzzzzzzzzzzzzzzzzz" />
  </g>
</svg>
