<?xml version="1.0" encoding="UTF-8" standalone="no"?>
<!-- Created with Inkscape (http://www.inkscape.org/) -->

<svg
   xmlns:dc="http://purl.org/dc/elements/1.1/"
   xmlns:cc="http://creativecommons.org/ns#"
   xmlns:rdf="http://www.w3.org/1999/02/22-rdf-syntax-ns#"
   xmlns:svg="http://www.w3.org/2000/svg"
   xmlns="http://www.w3.org/2000/svg"
   xmlns:sodipodi="http://sodipodi.sourceforge.net/DTD/sodipodi-0.dtd"
   xmlns:inkscape="http://www.inkscape.org/namespaces/inkscape"
   width="210mm"
   height="297mm"
   viewBox="0 0 744.09448819 1052.3622047"
   id="svg2"
   version="1.1"
   inkscape:version="0.91 r13725"
   sodipodi:docname="9_34.svg">
  <defs
     id="defs4" />
  <sodipodi:namedview
     id="base"
     pagecolor="#ffffff"
     bordercolor="#666666"
     borderopacity="1.0"
     inkscape:pageopacity="0.0"
     inkscape:pageshadow="2"
     inkscape:zoom="0.4816371"
     inkscape:cx="-919.98752"
     inkscape:cy="640.91628"
     inkscape:document-units="px"
     inkscape:current-layer="layer1"
     showgrid="false"
     inkscape:window-width="1600"
     inkscape:window-height="835"
     inkscape:window-x="0"
     inkscape:window-y="0"
     inkscape:window-maximized="1" />
  <metadata
     id="metadata7">
    <rdf:RDF>
      <cc:Work
         rdf:about="">
        <dc:format>image/svg+xml</dc:format>
        <dc:type
           rdf:resource="http://purl.org/dc/dcmitype/StillImage" />
        <dc:title />
      </cc:Work>
    </rdf:RDF>
  </metadata>
  <g
     inkscape:label="Layer 1"
     inkscape:groupmode="layer"
     id="layer1">
    <path
       style="fill:none;fill-rule:evenodd;stroke:#ff0000;stroke-width:18.3759861;stroke-linecap:butt;stroke-linejoin:miter;stroke-miterlimit:4;stroke-dasharray:none;stroke-opacity:1"
       d="M  0 , -47.963125492137 C  73.4358798551557 , -47.963125492137 175.61938299426 , -10.8828345396259 220.545388863828 , 85.0394119584657 265.471394733396 , 180.961658456557 202.324590593619 , 268.434364935568 178.266168604493 , 299.273369002383 154.207746615366 , 330.112373069198 105.267102910709 , 379.956112446251 36.8687734683554 , 372.512300030824 -31.5295559739979 , 365.068487615396 -57.243473071106 , 317.760761834487 -88.6968974569912 , 271.430611978965 -120.150321842877 , 225.100462123442 -134.091281501347 , 194.323725163577 -180.875282281238 , 159.01170617306 -227.65928306113 , 123.699687182543 -317.265197308881 , 84.6394664537492 -402.17699495483 , 146.708083738669 -487.088792600778 , 208.776701023589 -501.602890423656 , 327.740134654372 -437.894873674978 , 407.216876808519 -374.186856926301 , 486.693618962666 -279.389318518898 , 476.761989664357 -220.913024251461 , 453.834124256509 -162.436729984023 , 430.906258848662 -141.157469823515 , 403.146636358949 -97.6271676182317 , 363.173024541879 -54.0968654129479 , 323.19941272481 -34.0361801694132 , 304.537480078533 1.20917914058521 , 298.055559168847 36.4545384505836 , 291.573638259161 61.9563482581073 , 303.499693493697 72.2697129963294 , 309.146913660208 82.5830777345516 , 314.794133826718 136.786373498793 , 345.793114193611 140.899563262418 , 440.101327024935 145.012753026042 , 534.409539856258 127.742483480663 , 621.640382893369 31.6201637685983 , 666.615951132176 -64.5021559434663 , 711.591519370984 -182.03221137019 , 682.80253527933 -252.386350413716 , 606.971204255881 -322.740489457242 , 531.139873232433 -313.927723994098 , 437.188039997274 -287.820165536308 , 375.991033979387 -261.712607078518 , 314.794027961499 -229.485219301457 , 299.623033625371 -177.000508316481 , 260.488000969445 -124.515797331505 , 221.352968313519 -92.6051349078812 , 196.633349474408 -39.6054478426665 , 186.09951386247 13.3942392225481 , 175.565678250532 52.8139046369117 , 178.711175846734 124.490617819382 , 196.845731384579 196.167331001853 , 214.980286922424 289.445831704451 , 236.67719599073 320.423008737537 , 331.394253329637 351.400185770623 , 426.111310668543 296.190152163466 , 501.986931855074 239.197013631503 , 529.341262361632 182.203875099541 , 556.69559286819 134.737411632322 , 547.766397094371 10.9957418430176 , 502.81281847392 -112.745927946287 , 457.859239853469 -151.26927651207 , 397.702411851103 -189.496617669264 , 349.81654901793 -227.723958826458 , 301.930686184756 -259.107471097935 , 274.727382739154 -267.104298966266 , 205.680913187574 -275.101126834596 , 136.634443635995 -252.035497219935 , 65.8040331526299 -196.680629322465 , 18.3382758496976 -141.325761424995 , -29.1274814532348 -73.4358798551557 , -47.963125492137 0 , -47.963125492137 Z "
       id="path4201"
       inkscape:connector-curvature="0"
       sodipodi:nodetypes="zzzzzzzzzzzzzzzzzzzzzzzzzz" />
  </g>
</svg>
