<?xml version="1.0" encoding="UTF-8" standalone="no"?>
<!-- Created with Inkscape (http://www.inkscape.org/) -->

<svg
   xmlns:dc="http://purl.org/dc/elements/1.1/"
   xmlns:cc="http://creativecommons.org/ns#"
   xmlns:rdf="http://www.w3.org/1999/02/22-rdf-syntax-ns#"
   xmlns:svg="http://www.w3.org/2000/svg"
   xmlns="http://www.w3.org/2000/svg"
   xmlns:sodipodi="http://sodipodi.sourceforge.net/DTD/sodipodi-0.dtd"
   xmlns:inkscape="http://www.inkscape.org/namespaces/inkscape"
   width="210mm"
   height="297mm"
   viewBox="0 0 744.09448819 1052.3622047"
   id="svg2"
   version="1.1"
   inkscape:version="0.91 r13725"
   sodipodi:docname="9_34.svg">
  <defs
     id="defs4" />
  <sodipodi:namedview
     id="base"
     pagecolor="#ffffff"
     bordercolor="#666666"
     borderopacity="1.0"
     inkscape:pageopacity="0.0"
     inkscape:pageshadow="2"
     inkscape:zoom="1.4336814"
     inkscape:cx="59.173182"
     inkscape:cy="833.4905"
     inkscape:document-units="px"
     inkscape:current-layer="layer1"
     showgrid="false"
     inkscape:window-width="2560"
     inkscape:window-height="1315"
     inkscape:window-x="0"
     inkscape:window-y="1"
     inkscape:window-maximized="1" />
  <metadata
     id="metadata7">
    <rdf:RDF>
      <cc:Work
         rdf:about="">
        <dc:format>image/svg+xml</dc:format>
        <dc:type
           rdf:resource="http://purl.org/dc/dcmitype/StillImage" />
        <dc:title />
      </cc:Work>
    </rdf:RDF>
  </metadata>
  <g
     inkscape:label="Layer 1"
     inkscape:groupmode="layer"
     id="layer1">
    <path
       style="fill:none;fill-rule:evenodd;stroke:#ff0000;stroke-width:18.00291252;stroke-linecap:butt;stroke-linejoin:miter;stroke-miterlimit:4;stroke-dasharray:none;stroke-opacity:1"
       d="M  370.822038016924 , 361.258466095731 C  371.215012370153 , 379.094728272694 372.240619576113 , 474.022045081416 302.218785983088 , 544.086136522082 232.196952390062 , 614.150227962748 154.669836955713 , 604.614428638858 71.9274630248897 , 575.527439760268 -10.8149109059335 , 546.440450881677 -29.9774681669972 , 489.571540804136 -33.6857866736315 , 477.719937425048 -37.3941051802659 , 465.868334045961 -44.0296792389819 , 439.185104079785 -32.920019583096 , 404.947202077588 -21.8103599272101 , 370.709300075391 -0.772544855814189 , 351.556837917843 44.1513340171318 , 312.1444328289 89.0752128900777 , 272.732027739957 118.711235081733 , 254.510043516317 147.510726009905 , 199.871333717669 176.310216938076 , 145.232623919022 190.6502590124 , 65.7944550969064 139.214226294754 , 0.18888573567421 87.7781935771067 , -65.416683625558 15.6434023971184 , -67.0294379103445 0 , -67.0294379103445 -15.6434023971184 , -67.0294379103445 -87.7781935771067 , -65.416683625558 -139.214226294754 , 0.18888573567421 -190.6502590124 , 65.7944550969064 -176.310216938076 , 145.232623919022 -147.510726009905 , 199.871333717669 -118.711235081733 , 254.510043516317 -89.0752128900777 , 272.732027739957 -44.1513340171318 , 312.1444328289 0.772544855814189 , 351.556837917843 21.8103599272101 , 370.709300075391 32.920019583096 , 404.947202077588 44.0296792389819 , 439.185104079785 37.3941051802659 , 465.868334045961 33.6857866736315 , 477.719937425048 29.9774681669972 , 489.571540804136 10.8149109059334 , 546.440450881677 -71.9274630248897 , 575.527439760268 -154.669836955713 , 604.614428638858 -232.196952390062 , 614.150227962748 -302.218785983088 , 544.086136522082 -372.240619576113 , 474.022045081416 -371.215012370153 , 379.094728272694 -370.822038016924 , 361.258466095731 -370.429063663696 , 343.422203918768 -367.558305083582 , 256.46642290814 -300.791179562263 , 184.014099173658 -234.024054040945 , 111.561775439175 -144.477831015581 , 107.946754951631 -81.7882584058672 , 126.40191626757 -19.0986857961531 , 144.857077583508 0.785990476799157 , 175.193100255631 45.8140399294155 , 221.67567820225 90.8420893820318 , 268.158256148869 119.9666988813 , 296.25397447175 140.366559435208 , 350.751467308896 160.766419989115 , 405.248960146042 164.052316312307 , 443.664130004807 164.659233145165 , 511.507495678036 165.266149978023 , 579.350861351264 170.480694606058 , 652.227421678698 108.548652421571 , 706.830285558871 46.6166102370834 , 761.433149439045 -46.6166102370834 , 761.433149439045 -108.548652421571 , 706.830285558871 -170.480694606058 , 652.227421678698 -165.266149978023 , 579.350861351264 -164.659233145165 , 511.507495678036 -164.052316312307 , 443.664130004807 -160.766419989115 , 405.248960146042 -140.366559435208 , 350.751467308896 -119.9666988813 , 296.25397447175 -90.8420893820318 , 268.158256148869 -45.8140399294155 , 221.67567820225 -0.785990476799157 , 175.193100255631 19.0986857961531 , 144.857077583508 81.7882584058672 , 126.40191626757 144.477831015581 , 107.946754951631 234.024054040945 , 111.561775439175 300.791179562263 , 184.014099173658 367.558305083582 , 256.46642290814 370.429063663696 , 343.422203918768 370.822038016924 , 361.258466095731 Z "
       id="path4201"
       inkscape:connector-curvature="0"
       sodipodi:nodetypes="zzzzzzzzzzzzzzzzzzzzzzzzzzzzzz" />
  </g>
</svg>
