<?xml version="1.0" encoding="UTF-8" standalone="no"?>
<!-- Created with Inkscape (http://www.inkscape.org/) -->

<svg
   xmlns:dc="http://purl.org/dc/elements/1.1/"
   xmlns:cc="http://creativecommons.org/ns#"
   xmlns:rdf="http://www.w3.org/1999/02/22-rdf-syntax-ns#"
   xmlns:svg="http://www.w3.org/2000/svg"
   xmlns="http://www.w3.org/2000/svg"
   xmlns:sodipodi="http://sodipodi.sourceforge.net/DTD/sodipodi-0.dtd"
   xmlns:inkscape="http://www.inkscape.org/namespaces/inkscape"
   width="744.09448819"
   height="1052.3622047"
   id="svg2"
   version="1.1"
   inkscape:version="0.48.4 r9939"
   sodipodi:docname="9_35.svg">
  <defs
     id="defs4" />
  <sodipodi:namedview
     id="base"
     pagecolor="#ffffff"
     bordercolor="#666666"
     borderopacity="1.0"
     inkscape:pageopacity="0.0"
     inkscape:pageshadow="2"
     inkscape:zoom="0.65272989"
     inkscape:cx="201.1105"
     inkscape:cy="1006.7822"
     inkscape:document-units="px"
     inkscape:current-layer="layer1"
     showgrid="false"
     inkscape:window-width="1600"
     inkscape:window-height="824"
     inkscape:window-x="-3"
     inkscape:window-y="-3"
     inkscape:window-maximized="1" />
  <metadata
     id="metadata7">
    <rdf:RDF>
      <cc:Work
         rdf:about="">
        <dc:format>image/svg+xml</dc:format>
        <dc:type
           rdf:resource="http://purl.org/dc/dcmitype/StillImage" />
        <dc:title></dc:title>
      </cc:Work>
    </rdf:RDF>
  </metadata>
  <g
     inkscape:label="Layer 1"
     inkscape:groupmode="layer"
     id="layer1">
    <path
       style="fill:none;stroke:#000000;stroke-width:3.02148795px;stroke-linecap:butt;stroke-linejoin:miter;stroke-opacity:1"
       d="M  80.1737431295779 , -317.496626201571 C  123.659394354624 , -273.821455691408 124.517229294366 , -263.20518699335 178.052055761225 , -153.887970106854 231.586882228085 , -44.5707532203584 372.925612728591 , 23.4707953299561 366.357703258713 , 118.499543155194 359.789793788835 , 213.528290980433 280.109826908962 , 256.797980495237 222.138329134757 , 258.360649678339 164.166831360551 , 259.923318861441 129.016798639331 , 239.566382774248 90.1523504627528 , 217.817303324913 51.287902286174 , 196.068223875578 -38.7152500165148 , 149.974733040455 -34.4794049573685 , 73.580466943649 -30.2435598982222 , -2.81379915315702 30.2435598982222 , 2.81379915315702 34.4794049573685 , -73.580466943649 38.7152500165148 , -149.974733040455 -51.287902286174 , -196.068223875578 -90.1523504627528 , -217.817303324913 -129.016798639331 , -239.566382774248 -164.166831360551 , -259.923318861441 -222.138329134757 , -258.360649678339 -280.109826908962 , -256.797980495237 -359.789793788835 , -213.528290980433 -366.357703258713 , -118.499543155194 -372.925612728591 , -23.4707953299561 -231.586882228085 , 44.5707532203585 -178.052055761225 , 153.887970106854 -124.517229294366 , 263.20518699335 -123.659394354624 , 273.821455691408 -80.1737431295779 , 317.496626201571 -36.6880919045317 , 361.171796711735 36.6880919045317 , 361.171796711735 80.1737431295779 , 317.496626201571 123.659394354624 , 273.821455691408 124.517229294366 , 263.20518699335 178.052055761225 , 153.887970106854 231.586882228085 , 44.5707532203584 372.925612728591 , -23.4707953299561 366.357703258713 , -118.499543155194 359.789793788835 , -213.528290980433 280.109826908962 , -256.797980495237 222.138329134757 , -258.360649678339 164.166831360551 , -259.923318861441 129.016798639331 , -239.566382774248 90.1523504627528 , -217.817303324913 51.287902286174 , -196.068223875578 -38.7152500165148 , -149.974733040455 -34.4794049573685 , -73.580466943649 -30.2435598982222 , 2.81379915315702 30.2435598982222 , -2.81379915315702 34.4794049573685 , 73.580466943649 38.7152500165148 , 149.974733040455 -51.287902286174 , 196.068223875578 -90.1523504627528 , 217.817303324913 -129.016798639331 , 239.566382774248 -164.166831360551 , 259.923318861441 -222.138329134757 , 258.360649678339 -280.109826908962 , 256.797980495237 -359.789793788835 , 213.528290980433 -366.357703258713 , 118.499543155194 -372.925612728591 , 23.4707953299561 -231.586882228085 , -44.5707532203585 -178.052055761225 , -153.887970106854 -124.517229294366 , -263.20518699335 -123.659394354624 , -273.821455691408 -80.1737431295779 , -317.496626201571 -36.6880919045317 , -361.171796711735 36.6880919045317 , -361.171796711735 80.1737431295779 , -317.496626201571 Z "
       id="path3050"
       inkscape:connector-curvature="0"
       sodipodi:nodetypes="zzzzzzzzzzzzzzzzzzzzzzzzz" />
  </g>
</svg>
