<?xml version="1.0" encoding="UTF-8" standalone="no"?>
<!-- Created with Inkscape (http://www.inkscape.org/) -->

<svg
   xmlns:dc="http://purl.org/dc/elements/1.1/"
   xmlns:cc="http://creativecommons.org/ns#"
   xmlns:rdf="http://www.w3.org/1999/02/22-rdf-syntax-ns#"
   xmlns:svg="http://www.w3.org/2000/svg"
   xmlns="http://www.w3.org/2000/svg"
   xmlns:sodipodi="http://sodipodi.sourceforge.net/DTD/sodipodi-0.dtd"
   xmlns:inkscape="http://www.inkscape.org/namespaces/inkscape"
   width="210mm"
   height="297mm"
   viewBox="0 0 744.09448819 1052.3622047"
   id="svg2"
   version="1.1"
   inkscape:version="0.91 r13725"
   sodipodi:docname="9_36.svg">
  <defs
     id="defs4" />
  <sodipodi:namedview
     id="base"
     pagecolor="#ffffff"
     bordercolor="#666666"
     borderopacity="1.0"
     inkscape:pageopacity="0.0"
     inkscape:pageshadow="2"
     inkscape:zoom="0.81948072"
     inkscape:cx="193.40935"
     inkscape:cy="540.745"
     inkscape:document-units="px"
     inkscape:current-layer="layer1"
     showgrid="false"
     inkscape:window-width="1301"
     inkscape:window-height="744"
     inkscape:window-x="65"
     inkscape:window-y="24"
     inkscape:window-maximized="1" />
  <metadata
     id="metadata7">
    <rdf:RDF>
      <cc:Work
         rdf:about="">
        <dc:format>image/svg+xml</dc:format>
        <dc:type
           rdf:resource="http://purl.org/dc/dcmitype/StillImage" />
        <dc:title></dc:title>
      </cc:Work>
    </rdf:RDF>
  </metadata>
  <g
     inkscape:label="Layer 1"
     inkscape:groupmode="layer"
     id="layer1">
    <path
       style="fill:none;fill-rule:evenodd;stroke:#00ff00;stroke-width:7.09958601;stroke-linecap:butt;stroke-linejoin:miter;stroke-miterlimit:4.19999981;stroke-dasharray:none;stroke-opacity:1"
       d="M  -173.532219377323 , -121.088505294174 C  -19.247326243909 , -168.096124276311 66.280472022358 , -18.4269086697103 161.849663503692 , 57.5219546361936 257.418854985026 , 133.470817942098 287.257528032164 , 138.660261993333 311.789315486915 , 186.545027017598 336.321102941666 , 234.429792041864 331.29318232476 , 284.950903224189 304.896700523927 , 326.267520436589 278.500218723094 , 367.584137648988 253.230424635227 , 374.296085025425 143.422178648516 , 443.313048952676 33.6139326618044 , 512.330012879926 34.5549665262176 , 541.020620365127 -26.7391943049737 , 559.84704614093 -88.033355136165 , 578.673471916733 -133.056363294067 , 555.954116194487 -146.721794530026 , 548.357630971278 -160.387225765985 , 540.76114574807 -201.32197800348 , 515.346152895286 -218.576854403523 , 459.637542997923 -235.831730803565 , 403.92893310056 -223.159568451511 , 341.901625110446 -153.135169831499 , 261.767407034347 -83.1107712114863 , 181.633188958248 -17.9785825283186 , 179.163420188988 0 , 179.163420188988 17.9785825283186 , 179.163420188988 53.0110423751017 , 180.964691473528 94.938943640841 , 201.208745822428 136.86684490658 , 221.452800171329 166.930394881203 , 252.663066924391 210.771266324028 , 314.222098865388 254.612137766854 , 375.781130806386 276.595727787669 , 405.078123109265 276.825928035514 , 453.601961647579 277.056128283359 , 502.125800185892 252.043751263035 , 531.056329168494 244.293946536453 , 539.424770968097 236.544141809872 , 547.793212767699 190.614452336404 , 595.77279772562 112.692267314854 , 573.828938643217 34.7700822933053 , 551.885079560814 39.5843592450381 , 503.824975252992 -75.6491354849962 , 423.84873530665 -190.88263021503 , 343.872495360309 -255.102997193546 , 349.514442621413 -329.746708637069 , 273.444942085509 -404.390420080591 , 197.375441549604 -407.00182657872 , 110.923915865813 -370.416213243202 , 57.6184721649255 -333.830599907683 , 4.31302846403788 -251.010766153443 , -15.8731065267069 -175.075043823612 , 41.4836441325172 -99.1393214937821 , 98.8403947917414 -76.7351846093576 , 213.133397431159 -33.8296986059194 , 253.768290998099 9.07578739751871 , 294.403184565039 52.3141091840268 , 294.596754828564 59.6797170124982 , 294.630306975813 67.0453248409696 , 294.663859123061 87.2094492906056 , 294.342394554174 112.015853443969 , 284.443937971028 136.822257597332 , 274.545481387882 165.372885730433 , 256.135504599022 214.089919195231 , 196.319649008406 262.806952660029 , 136.503793417791 303.112028822236 , 96.0766403581164 291.651857784463 , 24.0218424975474 280.19168674669 , -48.0329553630216 213.77482831738 , -96.8315778346968 141.551332083825 , -85.2784894756232 69.32783585027 , -73.7254011165497 54.6923037128854 , -30.9570307370297 -27.2449073793912 , 44.8862737365826 -109.182118471668 , 120.729578210195 -149.160364527398 , 135.725465175347 -192.777773611752 , 126.054962325183 -236.395182696106 , 116.384459475019 -256.771432530916 , 84.6740761681167 -264.593266607773 , 68.8034531593855 -272.41510068463 , 52.9328301506542 -327.817112510736 , -74.0808863120363 -173.532219377323 , -121.088505294174 Z "
       id="path3401"
       inkscape:connector-curvature="0"
       sodipodi:nodetypes="zzzzzzzzzzzzzzzzzzzzzzzzzzzzz" />
  </g>
</svg>
