<?xml version="1.0" encoding="UTF-8" standalone="no"?>
<!-- Created with Inkscape (http://www.inkscape.org/) -->

<svg
   xmlns:dc="http://purl.org/dc/elements/1.1/"
   xmlns:cc="http://creativecommons.org/ns#"
   xmlns:rdf="http://www.w3.org/1999/02/22-rdf-syntax-ns#"
   xmlns:svg="http://www.w3.org/2000/svg"
   xmlns="http://www.w3.org/2000/svg"
   xmlns:sodipodi="http://sodipodi.sourceforge.net/DTD/sodipodi-0.dtd"
   xmlns:inkscape="http://www.inkscape.org/namespaces/inkscape"
   width="210mm"
   height="297mm"
   viewBox="0 0 744.09448819 1052.3622047"
   id="svg4175"
   version="1.1"
   inkscape:version="0.91 r13725"
   sodipodi:docname="9_40.svg">
  <defs
     id="defs4177" />
  <sodipodi:namedview
     id="base"
     pagecolor="#ffffff"
     bordercolor="#666666"
     borderopacity="1.0"
     inkscape:pageopacity="0.0"
     inkscape:pageshadow="2"
     inkscape:zoom="1.5982422"
     inkscape:cx="183.53966"
     inkscape:cy="970.49493"
     inkscape:document-units="px"
     inkscape:current-layer="layer1"
     showgrid="false"
     inkscape:window-width="2560"
     inkscape:window-height="1315"
     inkscape:window-x="78"
     inkscape:window-y="0"
     inkscape:window-maximized="0" />
  <metadata
     id="metadata4180">
    <rdf:RDF>
      <cc:Work
         rdf:about="">
        <dc:format>image/svg+xml</dc:format>
        <dc:type
           rdf:resource="http://purl.org/dc/dcmitype/StillImage" />
        <dc:title></dc:title>
      </cc:Work>
    </rdf:RDF>
  </metadata>
  <g
     inkscape:label="Layer 1"
     inkscape:groupmode="layer"
     id="layer1">
    <path
       style="fill:none;fill-rule:evenodd;stroke:#000000;stroke-width:1;stroke-linecap:butt;stroke-linejoin:miter;stroke-miterlimit:4;stroke-dasharray:none;stroke-opacity:1"
       d="M 132.02005,-223.41441 C 207.77273,-150.58004 206.69674,-53.686058 187.08053,4.9614959 167.46432,63.609051 108.41068,104.60305 61.943052,103.82011 15.475423,103.03717 -21.698882,69.727261 -40.043994,32.491741 -58.389106,-4.7437781 -69.751509,-60.011569 -41.295369,-98.902612 -12.839229,-137.79366 40.521818,-160.23454 105.74117,-144.57779 170.96052,-128.92104 276.48415,-46.254588 282.18501,42.502741 287.88587,131.26007 216.63383,229.68384 135.14848,251.48233 53.663129,273.28082 -59.620494,225.19473 -96.981547,171.39434 -134.3426,117.59395 -128.16174,48.161171 -101.36136,8.7156199 -74.560978,-30.72993 -36.271814,-39.18195 3.1284372,-40.087997 42.528688,-40.994043 80.325859,-21.95853 109.4953,24.357801 138.66474,70.674131 128.83233,133.12206 80.713678,185.15946 32.595027,237.19686 -96.393918,281.04482 -180.19797,235.21446 -264.00202,189.3841 -292.78305,96.285721 -274.67677,19.352311 -256.57049,-57.581099 -167.67202,-126.7842 -106.36686,-142.07504 -45.061694,-157.36589 23.998898,-126.49601 49.429304,-83.886115 74.85971,-41.276218 61.787305,9.1428819 39.418306,43.128431 17.049307,77.113981 -25.938122,107.96306 -71.954051,103.19442 -117.96998,98.425781 -166.93549,55.463211 -187.70622,-5.0495021 -208.47695,-65.562216 -220.05584,-137.42824 -137.02554,-222.16303 -53.995239,-306.89783 56.267358,-296.24879 132.02005,-223.41441 Z"
       id="path4806"
       inkscape:connector-curvature="0"
       sodipodi:nodetypes="zzzzzzzzzzzzzzzzzzzzzz" />
  </g>
</svg>
