<?xml version="1.0" encoding="UTF-8" standalone="no"?>
<!-- Created with Inkscape (http://www.inkscape.org/) -->

<svg
   xmlns:dc="http://purl.org/dc/elements/1.1/"
   xmlns:cc="http://creativecommons.org/ns#"
   xmlns:rdf="http://www.w3.org/1999/02/22-rdf-syntax-ns#"
   xmlns:svg="http://www.w3.org/2000/svg"
   xmlns="http://www.w3.org/2000/svg"
   xmlns:sodipodi="http://sodipodi.sourceforge.net/DTD/sodipodi-0.dtd"
   xmlns:inkscape="http://www.inkscape.org/namespaces/inkscape"
   width="210mm"
   height="297mm"
   viewBox="0 0 744.09448819 1052.3622047"
   id="svg2"
   version="1.1"
   inkscape:version="0.91 r13725"
   sodipodi:docname="9_5svg">
  <defs
     id="defs4" />
  <sodipodi:namedview
     id="base"
     pagecolor="#ffffff"
     bordercolor="#666666"
     borderopacity="1.0"
     inkscape:pageopacity="0.0"
     inkscape:pageshadow="2"
     inkscape:zoom="0.49497475"
     inkscape:cx="-21.405756"
     inkscape:cy="546.24855"
     inkscape:document-units="px"
     inkscape:current-layer="layer1"
     showgrid="false"
     inkscape:window-width="1600"
     inkscape:window-height="835"
     inkscape:window-x="0"
     inkscape:window-y="0"
     inkscape:window-maximized="1" />
  <metadata
     id="metadata7">
    <rdf:RDF>
      <cc:Work
         rdf:about="">
        <dc:format>image/svg+xml</dc:format>
        <dc:type
           rdf:resource="http://purl.org/dc/dcmitype/StillImage" />
        <dc:title />
      </cc:Work>
    </rdf:RDF>
  </metadata>
  <g
     inkscape:label="Layer 1"
     inkscape:groupmode="layer"
     id="layer1">
    <path
       style="fill:none;fill-rule:evenodd;stroke:#ffb4ec;stroke-width:17.54727745;stroke-linecap:butt;stroke-linejoin:miter;stroke-miterlimit:4;stroke-dasharray:none;stroke-opacity:1"
       d="M  103.124616674536 , -188.621974745697 C  113.805236612586 , -128.264399699578 81.0975220039223 , -114.096988014679 106.255648478286 , -20.1091185289639 131.413774952649 , 73.878750956751 175.84705805448 , 48.3660814086271 219.040163323627 , 133.420884038351 262.233268592775 , 218.475686668074 229.208697345525 , 318.432615610949 174.860698972406 , 381.483141082833 120.512700599287 , 444.533666554716 55.0313671197266 , 470.174376928744 0 , 470.174376928744 -55.0313671197266 , 470.174376928744 -105.548232976423 , 429.84459820855 -115.474185030516 , 360.653746981901 -125.400137084609 , 291.462895755252 -77.1075619876514 , 281.131025248512 -92.4056144369969 , 195.964010955752 -107.703666886342 , 110.796996662993 -169.047286064044 , 112.42180748005 -159.484196238157 , 33.8709590197149 -149.92110641227 , -44.6798894406207 -93.8327895625234 , -34.2002511176995 -47.0090922618332 , -92.6120095389233 -0.185394961143061 , -151.023767960147 -8.29131205902359 , -176.473724821164 30.0251669631694 , -217.851325133338 68.3416459853623 , -259.228925445512 111.453446629394 , -287.629253537135 174.242878687382 , -279.059683655895 237.03231074537 , -270.490113774655 287.935799299104 , -227.142813382386 319.603637818817 , -185.051610662998 351.27147633853 , -142.96040794361 435.931716690381 , 5.03879889065885 370.142455936812 , 140.336329715092 304.353195183242 , 275.633860539526 207.063690975919 , 233.251576009385 183.676133880872 , 218.250869712544 160.288576785826 , 203.250163415702 132.549854698407 , 170.857136063286 138.822037648494 , 121.115510279356 145.09422059858 , 71.3738844954262 170.727420417693 , 65.2592132574882 185.96130878762 , 15.2554807332678 201.195197157547 , -34.7482517909526 184.241602870826 , -77.3077156352612 152.772928019489 , -103.739250676211 121.304253168152 , -130.170785717161 103.19629224855 , -124.809520676023 49.448219514843 , -143.623410413396 -4.2998532188644 , -162.43730015077 -28.2619757654167 , -182.507502846663 -70.0813183551124 , -170.356891175947 -111.900660944808 , -158.206279505232 -131.678844481282 , -121.32879531888 -125.383398799047 , -83.4821767007864 -119.087953116812 , -45.6355580826927 -98.476057611796 , -28.4044489824452 -92.4792672476471 , 4.0202414058773 -86.4824768834983 , 36.4449317941999 -90.9019107654552 , 58.3881126556462 -106.27399545221 , 84.4936495187869 -121.646080138965 , 110.599186381928 -142.817594241288 , 118.662081313995 -160.940787190277 , 152.054454294445 -179.063980139265 , 185.446827274895 -176.66486281278 , 226.598630673803 -144.995330082076 , 259.02525544452 -113.325797351372 , 291.451880215238 -89.8119228959309 , 287.043976907635 -64.1417292617228 , 319.606375755328 -38.4715356275147 , 352.168774603021 -45.4646751077562 , 384.774657928907 -47.5812567177938 , 393.292611061627 -49.6978383278314 , 401.810564194346 -75.3911444415839 , 499.810567956532 -191.357084855559 , 463.641064410964 -307.323025269534 , 427.471560865395 -337.594214732113 , 247.626181046069 -328.613983879387 , 125.897467198991 -319.633753026661 , 4.1687533519123 -277.748176559451 , -88.9744001372214 -272.102927230209 , -101.451920727451 -266.457677900967 , -113.929441317681 -199.689032721841 , -261.577621766328 -76.6078078200309 , -298.075195981425 46.473417081779 , -334.572770196522 92.4439967364856 , -248.979549791816 103.124616674536 , -188.621974745697 Z "
       id="path4065"
       inkscape:connector-curvature="0"
       sodipodi:nodetypes="zzzzzzzzzzzzzzzzzzzzzzzzzzzzzzz" />
  </g>
</svg>
