<?xml version="1.0" encoding="UTF-8" standalone="no"?>
<!-- Created with Inkscape (http://www.inkscape.org/) -->

<svg
   xmlns:dc="http://purl.org/dc/elements/1.1/"
   xmlns:cc="http://creativecommons.org/ns#"
   xmlns:rdf="http://www.w3.org/1999/02/22-rdf-syntax-ns#"
   xmlns:svg="http://www.w3.org/2000/svg"
   xmlns="http://www.w3.org/2000/svg"
   xmlns:sodipodi="http://sodipodi.sourceforge.net/DTD/sodipodi-0.dtd"
   xmlns:inkscape="http://www.inkscape.org/namespaces/inkscape"
   width="210mm"
   height="297mm"
   viewBox="0 0 744.09448819 1052.3622047"
   id="svg4173"
   version="1.1"
   inkscape:version="0.91 r13725"
   sodipodi:docname="9_6.svg">
  <defs
     id="defs4175" />
  <sodipodi:namedview
     id="base"
     pagecolor="#ffffff"
     bordercolor="#666666"
     borderopacity="1.0"
     inkscape:pageopacity="0.0"
     inkscape:pageshadow="2"
     inkscape:zoom="1.5982422"
     inkscape:cx="233.59465"
     inkscape:cy="920.43996"
     inkscape:document-units="px"
     inkscape:current-layer="layer1"
     showgrid="false"
     inkscape:window-width="2560"
     inkscape:window-height="1315"
     inkscape:window-x="366"
     inkscape:window-y="119"
     inkscape:window-maximized="0" />
  <metadata
     id="metadata4178">
    <rdf:RDF>
      <cc:Work
         rdf:about="">
        <dc:format>image/svg+xml</dc:format>
        <dc:type
           rdf:resource="http://purl.org/dc/dcmitype/StillImage" />
        <dc:title />
      </cc:Work>
    </rdf:RDF>
  </metadata>
  <g
     inkscape:label="Layer 1"
     inkscape:groupmode="layer"
     id="layer1">
    <path
       style="fill:none;fill-rule:evenodd;stroke:#ff0000;stroke-width:16.40565872;stroke-linecap:butt;stroke-linejoin:miter;stroke-miterlimit:4;stroke-dasharray:none;stroke-opacity:1"
       d="M 26.139522,-319.29425 C 102.84516,-311.49699 207.19805,-313.19783 251.96546,-253.59942 296.73284,-194.00101 313.38238,-111.30823 297.13061,-35.985373 280.87885,39.337472 245.7563,125.52349 218.18116,189.92901 190.60598,254.33454 210.30214,319.00337 178.05879,349.97167 145.81543,380.93998 139.30636,417.57568 83.6225,399.24275 27.938647,380.90983 -26.44483,303.56683 -80.61455,265.8002 -134.78427,228.0336 -260.37634,299.82794 -281.8049,271.95907 -303.23344,244.09017 -343.36146,183.4065 -318.75825,146.72836 -294.15503,110.05024 -139.40708,64.664791 -78.561572,29.709451 -17.716063,-5.2458908 144.43627,-14.583728 151.37027,-85.256458 158.30429,-155.92918 -69.376958,-192.41093 -70.349715,-261.81127 -71.322472,-331.21162 -49.389967,-417.95051 22.033591,-413.7305 93.457152,-409.51054 128.19139,-311.85817 106.20508,-247.44054 84.218775,-183.02291 -113.63671,-149.3746 -121.6738,-85.256458 -129.71085,-21.138316 34.120156,-1.9381817 87.728399,42.027214 141.33663,85.992608 302.66108,108.79031 319.71324,165.205 336.76537,221.61971 332.57794,273.0417 282.75987,296.59462 232.94183,320.14754 139.91415,244.85501 81.569533,255.53538 23.224912,266.21577 -52.595603,412.7936 -103.19712,405.40166 -153.79863,398.00974 -191.66411,359.99293 -205.84527,317.12427 -220.02641,274.2556 -200.23589,226.60515 -203.52464,173.50761 -206.81339,120.41007 -246.30357,0.42223181 -240.74566,-68.832751 -235.18774,-138.08774 -267.11822,-220.69118 -209.9512,-263.86424 -152.78416,-307.03732 -50.566122,-327.0915 26.139522,-319.29425 Z"
       id="path4786"
       inkscape:connector-curvature="0"
       sodipodi:nodetypes="zzzzzzzzzzzzzzzzzzzzzzzzz" />
  </g>
</svg>
