<?xml version="1.0" encoding="UTF-8" standalone="no"?>
<!-- Created with Inkscape (http://www.inkscape.org/) -->

<svg
   xmlns:dc="http://purl.org/dc/elements/1.1/"
   xmlns:cc="http://creativecommons.org/ns#"
   xmlns:rdf="http://www.w3.org/1999/02/22-rdf-syntax-ns#"
   xmlns:svg="http://www.w3.org/2000/svg"
   xmlns="http://www.w3.org/2000/svg"
   xmlns:sodipodi="http://sodipodi.sourceforge.net/DTD/sodipodi-0.dtd"
   xmlns:inkscape="http://www.inkscape.org/namespaces/inkscape"
   width="210mm"
   height="297mm"
   viewBox="0 0 744.09448819 1052.3622047"
   id="svg4142"
   version="1.1"
   inkscape:version="0.91 r13725"
   sodipodi:docname="9_7.svg">
  <defs
     id="defs4144" />
  <sodipodi:namedview
     id="base"
     pagecolor="#ffffff"
     bordercolor="#666666"
     borderopacity="1.0"
     inkscape:pageopacity="0.0"
     inkscape:pageshadow="2"
     inkscape:zoom="1.5982422"
     inkscape:cx="283.64964"
     inkscape:cy="520"
     inkscape:document-units="px"
     inkscape:current-layer="layer1"
     showgrid="false"
     inkscape:window-width="2560"
     inkscape:window-height="1315"
     inkscape:window-x="0"
     inkscape:window-y="1"
     inkscape:window-maximized="1" />
  <metadata
     id="metadata4147">
    <rdf:RDF>
      <cc:Work
         rdf:about="">
        <dc:format>image/svg+xml</dc:format>
        <dc:type
           rdf:resource="http://purl.org/dc/dcmitype/StillImage" />
        <dc:title></dc:title>
      </cc:Work>
    </rdf:RDF>
  </metadata>
  <g
     inkscape:label="Layer 1"
     inkscape:groupmode="layer"
     id="layer1">
    <path
       style="fill:none;fill-rule:evenodd;stroke:#000000;stroke-width:2.722826px;stroke-linecap:butt;stroke-linejoin:miter;stroke-opacity:1"
       d="M  0 , -29.7391202917008 C  63.8741817431458 , -29.7391202917008 175.659764965564 , 0.0435291796063666 218.082916966873 , 169.158556915877 260.506068968182 , 338.273584652148 242.269029200523 , 425.673790954744 212.794296931677 , 533.428619960762 183.31956466283 , 641.183448966781 118.511209646648 , 716.137010264496 65.1281812850747 , 787.275664492562 11.7451529235014 , 858.414318720628 -31.960281069464 , 916.17093796832 -104.16065408561 , 907.229979898742 -176.361027101756 , 898.289021829164 -207.073954302249 , 826.417493142143 -182.458008544057 , 769.552998522487 -157.842062785864 , 712.68850390283 -108.22383793378 , 692.538644176529 -59.0604114708865 , 657.312126077085 -9.89698500799277 , 622.085607977642 40.300758619077 , 588.343064198172 33.8504051267982 , 518.808198104819 27.4000516345194 , 449.273332011467 -36.7307568200262 , 452.181815884423 -37.7186136179293 , 361.024578225537 -38.7064704158324 , 269.867340566651 32.719338767993 , 271.737070810761 36.0400182626348 , 195.347149740096 39.3606977572766 , 118.957228669432 -9.74668143059126 , 99.4608672531065 -49.2358749792079 , 50.7237207601801 -88.7250685278246 , 1.98657426725374 -126.258930612421 , -68.7655314939872 -86.6495302577772 , -137.290453259409 -47.0401299031333 , -205.81537502483 47.0401299031333 , -205.81537502483 86.6495302577772 , -137.290453259409 126.258930612421 , -68.7655314939872 88.7250685278246 , 1.98657426725374 49.2358749792079 , 50.7237207601801 9.74668143059127 , 99.4608672531065 -39.3606977572766 , 118.957228669432 -36.0400182626348 , 195.347149740096 -32.719338767993 , 271.737070810761 38.7064704158324 , 269.867340566651 37.7186136179293 , 361.024578225537 36.7307568200262 , 452.181815884423 -27.4000516345194 , 449.273332011467 -33.8504051267982 , 518.808198104819 -40.300758619077 , 588.343064198172 9.89698500799277 , 622.085607977642 59.0604114708865 , 657.312126077085 108.22383793378 , 692.538644176529 157.842062785864 , 712.68850390283 182.458008544057 , 769.552998522487 207.073954302249 , 826.417493142143 176.361027101756 , 898.289021829164 104.16065408561 , 907.229979898742 31.960281069464 , 916.17093796832 -11.7451529235014 , 858.414318720628 -65.1281812850747 , 787.275664492562 -118.511209646648 , 716.137010264496 -183.31956466283 , 641.183448966781 -212.794296931677 , 533.428619960762 -242.269029200523 , 425.673790954744 -260.506068968182 , 338.273584652148 -218.082916966873 , 169.158556915877 -175.659764965564 , 0.0435291796063666 -63.8741817431458 , -29.7391202917008 0 , -29.7391202917008 Z "
       id="path4755"
       inkscape:connector-curvature="0"
       sodipodi:nodetypes="zzzzzzzzzzzzzzzzzzzzzzzz" />
  </g>
</svg>
