<?xml version="1.0" encoding="UTF-8" standalone="no"?>
<!-- Created with Inkscape (http://www.inkscape.org/) -->

<svg
   xmlns:dc="http://purl.org/dc/elements/1.1/"
   xmlns:cc="http://creativecommons.org/ns#"
   xmlns:rdf="http://www.w3.org/1999/02/22-rdf-syntax-ns#"
   xmlns:svg="http://www.w3.org/2000/svg"
   xmlns="http://www.w3.org/2000/svg"
   xmlns:sodipodi="http://sodipodi.sourceforge.net/DTD/sodipodi-0.dtd"
   xmlns:inkscape="http://www.inkscape.org/namespaces/inkscape"
   width="210mm"
   height="297mm"
   viewBox="0 0 744.09448819 1052.3622047"
   id="svg2"
   version="1.1"
   inkscape:version="0.91 r13725"
   sodipodi:docname="9_8.svg">
  <defs
     id="defs4" />
  <sodipodi:namedview
     id="base"
     pagecolor="#ffffff"
     bordercolor="#666666"
     borderopacity="1.0"
     inkscape:pageopacity="0.0"
     inkscape:pageshadow="2"
     inkscape:zoom="1.1301279"
     inkscape:cx="379.46558"
     inkscape:cy="736.06985"
     inkscape:document-units="px"
     inkscape:current-layer="layer1"
     showgrid="false"
     inkscape:window-width="2560"
     inkscape:window-height="1315"
     inkscape:window-x="237"
     inkscape:window-y="10"
     inkscape:window-maximized="0" />
  <metadata
     id="metadata7">
    <rdf:RDF>
      <cc:Work
         rdf:about="">
        <dc:format>image/svg+xml</dc:format>
        <dc:type
           rdf:resource="http://purl.org/dc/dcmitype/StillImage" />
        <dc:title></dc:title>
      </cc:Work>
    </rdf:RDF>
  </metadata>
  <g
     inkscape:label="Layer 1"
     inkscape:groupmode="layer"
     id="layer1">
    <path
       style="fill:none;fill-rule:evenodd;stroke:#00ff5f;stroke-width:15.64287186;stroke-linecap:butt;stroke-linejoin:miter;stroke-miterlimit:4;stroke-dasharray:none;stroke-opacity:1"
       d="M  259.695294497452 , 111.376613602882 C  332.56717319775 , 127.230828858948 385.494327997792 , 199.812350228027 385.997592628321 , 299.69875184586 386.50085725885 , 399.585153463693 345.424466475072 , 426.245202886683 340.766933611613 , 540.233528644844 336.109400748153 , 654.221854403004 368.843981921509 , 678.550441175481 344.801686349743 , 741.018305454184 320.759390777978 , 803.486169732886 251.533314958147 , 834.104555442337 186.748186044025 , 803.635846838356 121.963057129904 , 773.167138234375 133.783675437742 , 729.87687370443 39.7385713918682 , 651.362676292063 -54.3065326540055 , 572.848478879697 -97.0345550668285 , 599.73741539161 -161.860810477834 , 526.763146225759 -226.687065888839 , 453.788877059908 -219.489548139337 , 384.025994247862 -180.112834871804 , 255.139294627643 -140.736121604271 , 126.252595007425 -53.7042548838908 , 84.1463406882617 0 , 84.1463406882617 53.7042548838908 , 84.1463406882617 81.5256762730313 , 95.4546240527405 90.8522764884671 , 99.320322152884 100.178876703903 , 103.186020253027 183.775691561235 , 138.173237768992 188.536235334123 , 228.287107920076 193.296779107011 , 318.400978071159 111.390559420251 , 360.851440978282 61.0238859467121 , 375.922639029543 10.6572124731734 , 390.993837080805 -38.3005076938979 , 390.666063732921 -118.395587827145 , 386.727981389311 -198.490667960393 , 382.789899045701 -275.019067214392 , 388.358227292531 -326.216524797802 , 316.722223462317 -377.413982381211 , 245.086219632102 -347.280378780959 , 141.504836907258 -256.758268575433 , 116.507391344113 -166.236158369907 , 91.5099457809677 -90.5977346179488 , 160.27459447399 -59.3854219801919 , 243.2144354089 -28.173109342435 , 326.154276343809 -25.7649204121799 , 416.25689862025 -44.9708554875145 , 500.167399573853 -64.1767905628491 , 584.077900527457 -95.173271641696 , 610.704630612363 -78.5745729092358 , 677.145649336655 -61.9758741767756 , 743.586668060947 -1.39057158046672 , 782.171543926997 61.3562478524095 , 775.814975432895 124.103067285286 , 769.458406938793 130.762088994368 , 735.994934429667 234.778342490344 , 695.737670267936 338.794595986319 , 655.480406106206 374.449632681347 , 675.270825744462 423.508737723037 , 629.130737316945 472.567842764727 , 582.990648889428 472.992494880503 , 511.707397927018 430.981489645796 , 463.909338994714 388.970484411089 , 416.11128006241 339.297016192562 , 418.254845268935 253.795262694081 , 383.684390905765 168.293509195601 , 349.113936542595 108.876406187392 , 299.510875829772 112.612294508475 , 223.758076787921 116.348182829558 , 148.00527774607 186.823415797154 , 95.5223983468166 259.695294497452 , 111.376613602882 Z "
       id="path4205"
       inkscape:connector-curvature="0"
       sodipodi:nodetypes="zzzzzzzzzzzzzzzzzzzzzzzzz" />
  </g>
</svg>
