<?xml version="1.0" encoding="UTF-8" standalone="no"?>
<!-- Created with Inkscape (http://www.inkscape.org/) -->

<svg
   xmlns:dc="http://purl.org/dc/elements/1.1/"
   xmlns:cc="http://creativecommons.org/ns#"
   xmlns:rdf="http://www.w3.org/1999/02/22-rdf-syntax-ns#"
   xmlns:svg="http://www.w3.org/2000/svg"
   xmlns="http://www.w3.org/2000/svg"
   xmlns:sodipodi="http://sodipodi.sourceforge.net/DTD/sodipodi-0.dtd"
   xmlns:inkscape="http://www.inkscape.org/namespaces/inkscape"
   width="210mm"
   height="297mm"
   viewBox="0 0 744.09448819 1052.3622047"
   id="svg2"
   version="1.1"
   inkscape:version="0.91 r13725"
   sodipodi:docname="9_8.svg">
  <defs
     id="defs4" />
  <sodipodi:namedview
     id="base"
     pagecolor="#ffffff"
     bordercolor="#666666"
     borderopacity="1.0"
     inkscape:pageopacity="0.0"
     inkscape:pageshadow="2"
     inkscape:zoom="1.1301279"
     inkscape:cx="379.46558"
     inkscape:cy="736.06985"
     inkscape:document-units="px"
     inkscape:current-layer="layer1"
     showgrid="false"
     inkscape:window-width="2560"
     inkscape:window-height="1315"
     inkscape:window-x="237"
     inkscape:window-y="10"
     inkscape:window-maximized="0" />
  <metadata
     id="metadata7">
    <rdf:RDF>
      <cc:Work
         rdf:about="">
        <dc:format>image/svg+xml</dc:format>
        <dc:type
           rdf:resource="http://purl.org/dc/dcmitype/StillImage" />
        <dc:title></dc:title>
      </cc:Work>
    </rdf:RDF>
  </metadata>
  <g
     inkscape:label="Layer 1"
     inkscape:groupmode="layer"
     id="layer1">
    <path
       style="fill:none;fill-rule:evenodd;stroke:#00ff5f;stroke-width:15.64287186;stroke-linecap:butt;stroke-linejoin:miter;stroke-miterlimit:4;stroke-dasharray:none;stroke-opacity:1"
       d="M  260.707073366887 , 111.355405949998 C  334.894997985099 , 127.972416956131 385.860125310202 , 201.600550269598 386.133454437561 , 299.80658779804 386.406783564919 , 398.012625326483 346.279056372317 , 424.463817815006 340.952095354087 , 538.884359827839 335.625134335856 , 653.304901840673 368.794779622695 , 677.880164281582 344.705486881494 , 740.804817193201 320.616194140293 , 803.72947010482 251.434951681535 , 833.9096042826 187.03319381319 , 803.870282559955 122.631435944846 , 773.830960837311 133.28883175605 , 729.605253306849 39.2513865425766 , 650.999208868617 -54.7860586708968 , 572.393164430385 -97.0400759437584 , 599.425076431989 -162.020547111379 , 525.683306427948 -227.001018278999 , 451.941536423908 -218.873784778183 , 383.304220042251 -179.983617200657 , 255.169456387713 -141.093449623131 , 127.034692733174 -54.3140237617834 , 84.3764326007511 0 , 84.3764326007511 54.3140237617834 , 84.3764326007511 81.6428598554589 , 95.5554180668974 90.9278505934753 , 99.4098126992719 100.212841331492 , 103.264207331646 183.541008147965 , 138.053910728857 188.455824047238 , 227.931776382903 193.370639946511 , 317.809642036949 111.252631412168 , 360.632870090008 60.418686326686 , 375.719247293281 9.5847412412037 , 390.805624496553 -41.7836116324566 , 390.556867055036 -119.557811980881 , 386.441903853509 -197.332012329304 , 382.326940651982 -274.005981387408 , 388.024213754683 -325.629346517587 , 316.485343965613 -377.252711647765 , 244.946474176543 -347.641288768901 , 141.375652412908 -257.137617471289 , 116.1193926595 -166.633946173676 , 90.8631329060909 -90.5767195107867 , 160.321286159087 -59.7204252502531 , 242.078016299277 -28.8641309897194 , 323.834746439467 -25.6515194409171 , 416.612775724886 -44.8806638058821 , 500.259463810901 -64.109808170847 , 583.906151896915 -94.262579425771 , 609.165068286954 -79.3471791200457 , 674.812986822666 -64.4317788143204 , 740.460905358377 -5.43963788013499 , 782.060305477227 59.4901002625893 , 776.143502914918 124.419838405314 , 770.226700352609 130.770735356759 , 735.810891129285 234.520300345605 , 695.479784534825 338.269865334451 , 655.148677940366 374.281064512845 , 674.875161189815 423.422278149316 , 628.994637179235 472.563491785787 , 583.114113168655 473.59119898844 , 511.879458874413 431.327641687747 , 463.717448353863 389.064084387054 , 415.555437833313 339.315216657236 , 418.128512518003 253.371795411988 , 383.46215953298 167.428374166739 , 348.795806547957 108.996498604052 , 298.993280511695 112.472905663111 , 223.912128692205 115.949312722169 , 148.830976872715 186.519148748675 , 94.7383949438645 260.707073366887 , 111.355405949998 Z "
       id="path4205"
       inkscape:connector-curvature="0"
       sodipodi:nodetypes="zzzzzzzzzzzzzzzzzzzzzzzzz" />
  </g>
</svg>
