<?xml version="1.0" encoding="UTF-8" standalone="no"?>
<!-- Created with Inkscape (http://www.inkscape.org/) -->

<svg
   xmlns:dc="http://purl.org/dc/elements/1.1/"
   xmlns:cc="http://creativecommons.org/ns#"
   xmlns:rdf="http://www.w3.org/1999/02/22-rdf-syntax-ns#"
   xmlns:svg="http://www.w3.org/2000/svg"
   xmlns="http://www.w3.org/2000/svg"
   xmlns:sodipodi="http://sodipodi.sourceforge.net/DTD/sodipodi-0.dtd"
   xmlns:inkscape="http://www.inkscape.org/namespaces/inkscape"
   width="744.09448819"
   height="1052.3622047"
   id="svg2"
   version="1.1"
   inkscape:version="0.48.4 r9939"
   sodipodi:docname="amphichiral15.svg">
  <defs
     id="defs4" />
  <sodipodi:namedview
     id="base"
     pagecolor="#ffffff"
     bordercolor="#666666"
     borderopacity="1.0"
     inkscape:pageopacity="0.0"
     inkscape:pageshadow="2"
     inkscape:zoom="0.49497475"
     inkscape:cx="-33.093481"
     inkscape:cy="523.3397"
     inkscape:document-units="px"
     inkscape:current-layer="layer1"
     showgrid="false"
     inkscape:window-width="643"
     inkscape:window-height="648"
     inkscape:window-x="961"
     inkscape:window-y="375"
     inkscape:window-maximized="0" />
  <metadata
     id="metadata7">
    <rdf:RDF>
      <cc:Work
         rdf:about="">
        <dc:format>image/svg+xml</dc:format>
        <dc:type
           rdf:resource="http://purl.org/dc/dcmitype/StillImage" />
        <dc:title />
      </cc:Work>
    </rdf:RDF>
  </metadata>
  <g
     inkscape:label="Layer 1"
     inkscape:groupmode="layer"
     id="layer1">
    <path
       style="fill:none;stroke:#ff0000;stroke-width:5;stroke-linecap:butt;stroke-linejoin:miter;stroke-miterlimit:4;stroke-opacity:1;stroke-dasharray:none"
       d="M 276.4496,211.32229 C 273.69322,267.2764 213.64911,297.3077 136.99928,309.60657 60.349439,321.90544 88.064748,322.31126 21.428573,321.03514 -45.207602,319.75902 -259.34327,290.83244 -271.42858,218.07647 -283.51389,145.3205 -194.16882,87.896183 -124.28572,73.790754 -54.402619,59.685325 6.0886959,122.54397 45.714286,189.50504 85.339876,256.46611 95.157086,386.4252 91.428576,443.79076 87.700066,501.15632 25.293203,514.73909 18.571426,573.79075 11.849649,632.84241 93.575778,693.6026 144.28571,639.50504 194.99564,585.40748 202.94293,528.56069 201.42857,428.07647 199.9142,327.59225 155.78318,251.36237 180,190.93361 204.21682,130.50486 270.8004,78.83067 328.57142,146.6479 386.34244,214.46513 372.88487,523.07767 285.71428,638.07647 198.54369,753.07527 102.38677,780.24659 -4.2857146,775.21933 -110.9582,770.19207 -217.38049,721.4249 -244.28571,648.07646 -271.19093,574.72802 -267.4589,552.74173 -252.85715,493.79076 -238.2554,434.83979 -172.06826,285.03178 -197.14286,209.50504 -222.21746,133.9783 -270.42751,122.62913 -314.28572,158.07647 -358.14393,193.52381 -389.14001,310.96941 -388.57143,412.36218 -388.00285,513.75495 -356.6133,668.54191 -285.71429,746.6479 -214.81528,824.75389 -154.68735,727.9423 -148.57143,666.01411 -142.45551,604.08592 -161.22342,596.57384 -146.89776,542.81034 -132.57211,489.04684 -114.69625,445.17754 -80,438.07647 -45.303748,430.9754 -7.875354,446.09964 19.999996,468.07647 47.875346,490.0533 95.955106,522.43864 85.714286,569.50504 75.473466,616.57144 26.045096,647.00536 -24.285714,643.79075 -74.616524,640.57614 -160.32782,623.15472 -205.22407,607.44269 -250.12032,591.73065 -397.34109,550.85825 -321.03989,439.64861 -244.73868,328.43898 -159.01513,556.65511 -70.591733,513.05544 17.831662,469.45578 -5.5419663,415.71159 -20,356.6479 -34.458034,297.58421 -71.331947,237.99724 -60,186.6479 -48.668053,135.29856 -1.4014898,77.840268 90,80.933611 181.40149,84.026954 279.20597,155.36819 276.4496,211.32229 z"
       id="path3050"
       inkscape:connector-curvature="0"
       sodipodi:nodetypes="zzzzzzzzzzzzzzzzzzzzzzzzzzzzzzzzz" />
  </g>
</svg>
