<?xml version="1.0" encoding="UTF-8" standalone="no"?>
<!-- Created with Inkscape (http://www.inkscape.org/) -->

<svg
   xmlns:dc="http://purl.org/dc/elements/1.1/"
   xmlns:cc="http://creativecommons.org/ns#"
   xmlns:rdf="http://www.w3.org/1999/02/22-rdf-syntax-ns#"
   xmlns:svg="http://www.w3.org/2000/svg"
   xmlns="http://www.w3.org/2000/svg"
   xmlns:sodipodi="http://sodipodi.sourceforge.net/DTD/sodipodi-0.dtd"
   xmlns:inkscape="http://www.inkscape.org/namespaces/inkscape"
   width="744.09448819"
   height="1052.3622047"
   id="svg2"
   version="1.1"
   inkscape:version="0.48.4 r9939"
   sodipodi:docname="k11a43.svg">
  <defs
     id="defs4" />
  <sodipodi:namedview
     id="base"
     pagecolor="#ffffff"
     bordercolor="#666666"
     borderopacity="1.0"
     inkscape:pageopacity="0.0"
     inkscape:pageshadow="2"
     inkscape:zoom="1.2122212"
     inkscape:cx="251.54338"
     inkscape:cy="468.7682"
     inkscape:document-units="px"
     inkscape:current-layer="layer1"
     showgrid="false"
     inkscape:window-width="1600"
     inkscape:window-height="824"
     inkscape:window-x="-3"
     inkscape:window-y="-3"
     inkscape:window-maximized="1" />
  <metadata
     id="metadata7">
    <rdf:RDF>
      <cc:Work
         rdf:about="">
        <dc:format>image/svg+xml</dc:format>
        <dc:type
           rdf:resource="http://purl.org/dc/dcmitype/StillImage" />
        <dc:title />
      </cc:Work>
    </rdf:RDF>
  </metadata>
  <g
     inkscape:label="Layer 1"
     inkscape:groupmode="layer"
     id="layer1">
    <path
       style="fill:none;stroke:#ff0000;stroke-width:17.11122322;stroke-linecap:butt;stroke-linejoin:miter;stroke-miterlimit:4;stroke-opacity:1;stroke-dasharray:none"
       d="M 136.93034,186.06911 C 207.23784,210.89958 265.70557,316.85055 282.7915,400.15567 299.87743,483.46076 285.92772,592.96101 231.0343,656.589 176.14086,720.21699 93.855067,738.2595 2.8321665,738.92997 -88.190734,739.60043 -227.38273,713.82709 -284.18495,640.12082 -340.98717,566.41453 -324.59821,466.88621 -303.00573,386.04007 -281.41325,305.19393 -235.75918,204.87666 -164.20239,181.36393 -92.645585,157.8512 31.278738,178.53772 28.710754,249.58933 26.142771,320.64092 -22.421063,324.54299 -65.393221,367.21929 -108.36538,409.89559 -161.95006,494.4012 -232.42777,498.96484 -302.9055,503.52847 -428.96527,462.16331 -413.57793,390.74528 -398.19056,319.32725 -252.5922,340.61707 -187.72837,364.86667 -122.86455,389.11626 -107.34757,452.69676 -60.688005,503.67004 -14.028435,554.64329 89.543409,592.6737 101.64136,656.589 113.73928,720.50427 58.932579,831.37313 -1.8730132,833.03396 -62.678606,834.69478 -88.36269,704.21005 -79.5088,640.12082 -70.654911,576.03157 28.322872,547.58879 71.057556,496.61222 113.79224,445.63564 146.04524,349.43725 207.5083,334.28289 268.97135,319.1285 416.67712,322.54985 416.88965,400.15567 417.10216,477.76147 261.29584,469.30679 205.1557,463.67586 149.01558,458.04493 108.87909,405.07596 66.352368,369.57188 23.825642,334.06781 -47.661561,319.98768 -48.925009,251.94192 -50.188455,183.89614 66.622827,161.23864 136.93034,186.06911 z"
       id="path3050"
       inkscape:connector-curvature="0"
       sodipodi:nodetypes="zzzzzzzzzzzzzzzzzzzzzzz" />
  </g>
</svg>
