<?xml version="1.0" encoding="UTF-8" standalone="no"?>
<!-- Created with Inkscape (http://www.inkscape.org/) -->

<svg
   xmlns:dc="http://purl.org/dc/elements/1.1/"
   xmlns:cc="http://creativecommons.org/ns#"
   xmlns:rdf="http://www.w3.org/1999/02/22-rdf-syntax-ns#"
   xmlns:svg="http://www.w3.org/2000/svg"
   xmlns="http://www.w3.org/2000/svg"
   xmlns:sodipodi="http://sodipodi.sourceforge.net/DTD/sodipodi-0.dtd"
   xmlns:inkscape="http://www.inkscape.org/namespaces/inkscape"
   width="744.09448819"
   height="1052.3622047"
   id="svg2"
   version="1.1"
   inkscape:version="0.48.4 r9939"
   sodipodi:docname="k11a179.svg">
  <defs
     id="defs4" />
  <sodipodi:namedview
     id="base"
     pagecolor="#ffffff"
     bordercolor="#666666"
     borderopacity="1.0"
     inkscape:pageopacity="0.0"
     inkscape:pageshadow="2"
     inkscape:zoom="1.1039128"
     inkscape:cx="138.77798"
     inkscape:cy="304.9683"
     inkscape:document-units="px"
     inkscape:current-layer="layer1"
     showgrid="false"
     inkscape:window-width="1600"
     inkscape:window-height="824"
     inkscape:window-x="-3"
     inkscape:window-y="-3"
     inkscape:window-maximized="1" />
  <metadata
     id="metadata7">
    <rdf:RDF>
      <cc:Work
         rdf:about="">
        <dc:format>image/svg+xml</dc:format>
        <dc:type
           rdf:resource="http://purl.org/dc/dcmitype/StillImage" />
        <dc:title />
      </cc:Work>
    </rdf:RDF>
  </metadata>
  <g
     inkscape:label="Layer 1"
     inkscape:groupmode="layer"
     id="layer1">
    <path
       style="fill:none;stroke:#000000;stroke-width:2.84591985px;stroke-linecap:butt;stroke-linejoin:miter;stroke-opacity:1"
       d="M  0 , 508.767776283637 C  -69.7603085034016 , 508.767776283637 -131.635651173559 , 482.712409137246 -180.678984653153 , 462.330483706342 -229.722318132747 , 441.948558275437 -295.422594906728 , 415.288306949671 -311.185431931784 , 347.284747117164 -326.94826895684 , 279.281187284658 -271.884296510952 , 213.067996261808 -195.355668622136 , 228.206122751694 -118.827040733319 , 243.344249241581 -86.5355795160026 , 325.02602522137 -89.7391251652638 , 393.693415938941 -92.942670814525 , 462.360806656513 -110.221756236566 , 528.796072155084 -164.778716089926 , 584.84058116803 -219.335675943287 , 640.885090180977 -309.088816344846 , 677.811744985181 -271.96856808129 , 776.099222642483 -234.848319817734 , 874.386700299785 -167.056069887195 , 831.803657309806 -81.6963882753611 , 878.846767809955 3.66329333647315 , 925.889878310104 28.646113663644 , 1019.51937387194 126.694235090337 , 964.915376743302 224.742356517031 , 910.311379614666 154.865159981099 , 836.339561026958 182.915300592108 , 735.463984622191 210.965441203117 , 634.588408217424 255.714162850483 , 645.644780405992 271.866001468005 , 553.010459140247 288.017840085527 , 460.376137874501 223.037614633313 , 392.238781493696 188.429382852177 , 361.309940290549 153.821151071041 , 330.381099087402 89.864252481569 , 287.456138670707 0 , 287.456138670707 -89.864252481569 , 287.456138670707 -153.821151071041 , 330.381099087402 -188.429382852177 , 361.309940290549 -223.037614633313 , 392.238781493696 -288.017840085527 , 460.376137874501 -271.866001468005 , 553.010459140247 -255.714162850483 , 645.644780405992 -210.965441203117 , 634.588408217424 -182.915300592108 , 735.463984622191 -154.865159981099 , 836.339561026958 -224.742356517031 , 910.311379614666 -126.694235090337 , 964.915376743302 -28.646113663644 , 1019.51937387194 -3.66329333647315 , 925.889878310104 81.6963882753611 , 878.846767809955 167.056069887195 , 831.803657309806 234.848319817734 , 874.386700299785 271.96856808129 , 776.099222642483 309.088816344846 , 677.811744985181 219.335675943287 , 640.885090180977 164.778716089926 , 584.84058116803 110.221756236566 , 528.796072155084 92.942670814525 , 462.360806656513 89.7391251652638 , 393.693415938941 86.5355795160026 , 325.02602522137 118.827040733319 , 243.344249241581 195.355668622136 , 228.206122751694 271.884296510952 , 213.067996261808 326.94826895684 , 279.281187284658 311.185431931784 , 347.284747117164 295.422594906728 , 415.288306949671 229.722318132747 , 441.948558275437 180.678984653153 , 462.330483706342 131.635651173559 , 482.712409137246 69.7603085034016 , 508.767776283637 0 , 508.767776283637 Z "
       id="path3050"
       inkscape:connector-curvature="0"
       sodipodi:nodetypes="zzzzzzzzzzzzzzzzzzzzzzzzz" />
  </g>
</svg>
