<?xml version="1.0" encoding="UTF-8" standalone="no"?>
<!-- Created with Inkscape (http://www.inkscape.org/) -->

<svg
   xmlns:dc="http://purl.org/dc/elements/1.1/"
   xmlns:cc="http://creativecommons.org/ns#"
   xmlns:rdf="http://www.w3.org/1999/02/22-rdf-syntax-ns#"
   xmlns:svg="http://www.w3.org/2000/svg"
   xmlns="http://www.w3.org/2000/svg"
   xmlns:sodipodi="http://sodipodi.sourceforge.net/DTD/sodipodi-0.dtd"
   xmlns:inkscape="http://www.inkscape.org/namespaces/inkscape"
   width="210mm"
   height="297mm"
   viewBox="0 0 744.09448819 1052.3622047"
   id="svg2"
   version="1.1"
   inkscape:version="0.91 r13725"
   sodipodi:docname="k11a361.svg">
  <defs
     id="defs4" />
  <sodipodi:namedview
     id="base"
     pagecolor="#ffffff"
     bordercolor="#666666"
     borderopacity="1.0"
     inkscape:pageopacity="0.0"
     inkscape:pageshadow="2"
     inkscape:zoom="1.5982422"
     inkscape:cx="375"
     inkscape:cy="1270.8249"
     inkscape:document-units="px"
     inkscape:current-layer="layer1"
     showgrid="false"
     inkscape:window-width="2560"
     inkscape:window-height="1315"
     inkscape:window-x="0"
     inkscape:window-y="1"
     inkscape:window-maximized="1" />
  <metadata
     id="metadata7">
    <rdf:RDF>
      <cc:Work
         rdf:about="">
        <dc:format>image/svg+xml</dc:format>
        <dc:type
           rdf:resource="http://purl.org/dc/dcmitype/StillImage" />
        <dc:title></dc:title>
      </cc:Work>
    </rdf:RDF>
  </metadata>
  <g
     inkscape:label="Layer 1"
     inkscape:groupmode="layer"
     id="layer1">
    <path
       style="fill:none;fill-rule:evenodd;stroke:#000000;stroke-width:2.01371908px;stroke-linecap:butt;stroke-linejoin:miter;stroke-opacity:1"
       d="M  73.984118409981 , -273.897069580997 C  146.804260273769 , -288.997470490275 208.930371026782 , -244.747705642765 225.749452774211 , -186.878611475127 242.568534521639 , -129.009517307488 213.234792701042 , -90.3087135519929 185.12494670345 , -47.8968515143023 157.015100705859 , -5.48498947661169 122.201869647415 , 43.9054093044037 59.3709250886665 , 32.9444454377429 -3.46001947008169 , 21.9834815710822 1.71759346747612 , -18.4065840583983 -60.5365828235328 , -27.1437008207332 -122.790759114542 , -35.8808175830682 -162.116413169019 , 23.0007133804702 -176.088813080573 , 43.6501527074483 -190.061212992127 , 64.2995920344264 -328.154189067317 , 268.05563387294 -199.377583126677 , 438.525822705951 -70.600977186037 , 608.996011538962 38.241333160074 , 493.609465582693 30.8376999186281 , 423.830227211944 23.4340666771821 , 354.050988841195 -19.9317463045752 , 362.742863519454 -29.9320396718685 , 296.28799835361 -39.9323330391619 , 229.833133187766 15.3989059112786 , 183.999608805765 94.9816158346873 , 155.698825894662 174.564325758096 , 127.398042983559 278.540494464494 , 117.30885518664 282.268448742405 , 13.2728063585919 285.996403020316 , -90.7632424694564 190.689420103931 , -101.119750865967 92.2807983341375 , -161.002893548543 -6.12782343565601 , -220.886036231119 -1.16397654619334 , -258.796668671719 -73.984118409981 , -273.897069580997 -146.804260273769 , -288.997470490275 -208.930371026782 , -244.747705642765 -225.749452774211 , -186.878611475127 -242.568534521639 , -129.009517307488 -213.234792701042 , -90.3087135519929 -185.12494670345 , -47.8968515143023 -157.015100705859 , -5.48498947661169 -122.201869647415 , 43.9054093044037 -59.3709250886665 , 32.9444454377429 3.46001947008169 , 21.9834815710822 -1.71759346747611 , -18.4065840583983 60.5365828235328 , -27.1437008207332 122.790759114542 , -35.8808175830682 162.116413169019 , 23.0007133804702 176.088813080573 , 43.6501527074483 190.061212992127 , 64.2995920344264 328.154189067317 , 268.05563387294 199.377583126677 , 438.525822705951 70.600977186037 , 608.996011538962 -38.241333160074 , 493.609465582693 -30.8376999186281 , 423.830227211944 -23.4340666771821 , 354.050988841195 19.9317463045752 , 362.742863519454 29.9320396718685 , 296.28799835361 39.9323330391619 , 229.833133187766 -15.3989059112786 , 183.999608805765 -94.9816158346873 , 155.698825894662 -174.564325758096 , 127.398042983559 -278.540494464494 , 117.30885518664 -282.268448742405 , 13.2728063585919 -285.996403020316 , -90.7632424694564 -190.689420103931 , -101.119750865967 -92.2807983341375 , -161.002893548543 6.12782343565601 , -220.886036231119 1.16397654619334 , -258.796668671719 73.984118409981 , -273.897069580997 Z "
       id="path3401"
       inkscape:connector-curvature="0"
       sodipodi:nodetypes="zzzzzzzzzzzzzzzzzzzzzzzzz" />
  </g>
</svg>
