<?xml version="1.0" encoding="UTF-8" standalone="no"?>
<!-- Created with Inkscape (http://www.inkscape.org/) -->

<svg
   xmlns:dc="http://purl.org/dc/elements/1.1/"
   xmlns:cc="http://creativecommons.org/ns#"
   xmlns:rdf="http://www.w3.org/1999/02/22-rdf-syntax-ns#"
   xmlns:svg="http://www.w3.org/2000/svg"
   xmlns="http://www.w3.org/2000/svg"
   xmlns:sodipodi="http://sodipodi.sourceforge.net/DTD/sodipodi-0.dtd"
   xmlns:inkscape="http://www.inkscape.org/namespaces/inkscape"
   width="210mm"
   height="297mm"
   viewBox="0 0 744.09448819 1052.3622047"
   id="svg2"
   version="1.1"
   inkscape:version="0.91 r13725"
   sodipodi:docname="k11n22.svg">
  <defs
     id="defs4" />
  <sodipodi:namedview
     id="base"
     pagecolor="#ffffff"
     bordercolor="#666666"
     borderopacity="1.0"
     inkscape:pageopacity="0.0"
     inkscape:pageshadow="2"
     inkscape:zoom="1.5982422"
     inkscape:cx="334.33032"
     inkscape:cy="670.16498"
     inkscape:document-units="px"
     inkscape:current-layer="layer1"
     showgrid="false"
     inkscape:window-width="2560"
     inkscape:window-height="1315"
     inkscape:window-x="896"
     inkscape:window-y="481"
     inkscape:window-maximized="0" />
  <metadata
     id="metadata7">
    <rdf:RDF>
      <cc:Work
         rdf:about="">
        <dc:format>image/svg+xml</dc:format>
        <dc:type
           rdf:resource="http://purl.org/dc/dcmitype/StillImage" />
        <dc:title></dc:title>
      </cc:Work>
    </rdf:RDF>
  </metadata>
  <g
     inkscape:label="Layer 1"
     inkscape:groupmode="layer"
     id="layer1">
    <path
       style="fill:none;fill-rule:evenodd;stroke:#000000;stroke-width:15.64130878;stroke-linecap:butt;stroke-linejoin:miter;stroke-miterlimit:4;stroke-dasharray:none;stroke-opacity:1"
       d="M  231.260076555971 , -220.320692484699 C  382.644680865785 , -155.187062213857 340.778113098723 , -33.7649419250787 269.611292418272 , 6.56310667975629 198.444471737821 , 46.8911552845913 111.016944339619 , -3.66574847068847 63.5129047296641 , 72.3469198687402 16.0088651197086 , 148.359588208169 102.123681895149 , 215.181239099514 109.410697261689 , 220.836771694383 116.697712628229 , 226.492304289252 269.275729389982 , 345.017876472199 369.410908836575 , 151.999468866652 469.546088283168 , -41.0189387388946 306.032292696723 , -104.259062282924 239.132111868746 , -56.1316239756824 172.231931040769 , -8.00418566844077 205.183946057428 , 35.4236166929048 193.655391778243 , 121.298589125667 182.126837499058 , 207.173561558428 161.944036494412 , 356.244074481787 0 , 356.244074481787 -161.944036494412 , 356.244074481787 -182.126837499058 , 207.173561558428 -193.655391778243 , 121.298589125667 -205.183946057428 , 35.4236166929048 -172.231931040769 , -8.00418566844077 -239.132111868746 , -56.1316239756824 -306.032292696723 , -104.259062282924 -469.546088283168 , -41.0189387388946 -369.410908836575 , 151.999468866652 -269.275729389982 , 345.017876472199 -116.697712628229 , 226.492304289252 -109.410697261689 , 220.836771694383 -102.123681895149 , 215.181239099514 -16.0088651197086 , 148.359588208169 -63.5129047296641 , 72.3469198687402 -111.016944339619 , -3.66574847068847 -198.444471737821 , 46.8911552845913 -269.611292418272 , 6.56310667975629 -340.778113098723 , -33.7649419250787 -382.644680865785 , -155.187062213857 -231.260076555971 , -220.320692484699 -79.8754722461579 , -285.454322755542 42.3389864862104 , -112.196678126708 71.2244301271791 , -69.9797205573782 100.109873768148 , -27.7627629880482 138.739422146033 , 42.7843158356193 117.710882851149 , 103.857731037495 96.6823435562642 , 164.931146239371 41.2233010678587 , 188.6028052722 0 , 188.6028052722 -41.2233010678587 , 188.6028052722 -96.6823435562642 , 164.931146239371 -117.710882851149 , 103.857731037495 -138.739422146033 , 42.7843158356193 -100.109873768148 , -27.7627629880482 -71.2244301271791 , -69.9797205573782 -42.3389864862104 , -112.196678126708 79.8754722461579 , -285.454322755542 231.260076555971 , -220.320692484699 Z "
       id="path3401"
       inkscape:connector-curvature="0"
       sodipodi:nodetypes="zzzzzzzzzzzzzzzzzzzzz" />
  </g>
</svg>
