<?xml version="1.0" encoding="UTF-8" standalone="no"?>
<!-- Created with Inkscape (http://www.inkscape.org/) -->

<svg
   xmlns:dc="http://purl.org/dc/elements/1.1/"
   xmlns:cc="http://creativecommons.org/ns#"
   xmlns:rdf="http://www.w3.org/1999/02/22-rdf-syntax-ns#"
   xmlns:svg="http://www.w3.org/2000/svg"
   xmlns="http://www.w3.org/2000/svg"
   xmlns:sodipodi="http://sodipodi.sourceforge.net/DTD/sodipodi-0.dtd"
   xmlns:inkscape="http://www.inkscape.org/namespaces/inkscape"
   width="210mm"
   height="297mm"
   viewBox="0 0 744.09448819 1052.3622047"
   id="svg2"
   version="1.1"
   inkscape:version="0.91 r13725"
   sodipodi:docname="longthin.svg">
  <defs
     id="defs4" />
  <sodipodi:namedview
     id="base"
     pagecolor="#ffffff"
     bordercolor="#666666"
     borderopacity="1.0"
     inkscape:pageopacity="0.0"
     inkscape:pageshadow="2"
     inkscape:zoom="1.5982422"
     inkscape:cx="525.16498"
     inkscape:cy="945.46743"
     inkscape:document-units="px"
     inkscape:current-layer="layer1"
     showgrid="false"
     inkscape:window-width="2560"
     inkscape:window-height="1315"
     inkscape:window-x="0"
     inkscape:window-y="1"
     inkscape:window-maximized="1" />
  <metadata
     id="metadata7">
    <rdf:RDF>
      <cc:Work
         rdf:about="">
        <dc:format>image/svg+xml</dc:format>
        <dc:type
           rdf:resource="http://purl.org/dc/dcmitype/StillImage" />
        <dc:title></dc:title>
      </cc:Work>
    </rdf:RDF>
  </metadata>
  <g
     inkscape:label="Layer 1"
     inkscape:groupmode="layer"
     id="layer1">
    <path
       style="fill:none;fill-rule:evenodd;stroke:#000000;stroke-width:1px;stroke-linecap:butt;stroke-linejoin:miter;stroke-opacity:1"
       d="M 50.680678,516.77379 C -17.80024,511.64409 -26.93198,478.95972 -26.278872,447.32249 -25.625765,415.68526 40.003312,422.25024 40.043998,392.26199 40.084683,362.27375 -32.296318,364.73659 -31.910052,332.196 -31.523787,299.65542 49.843963,300.9359 47.552238,269.00158 45.260512,237.06727 -28.031856,256.77169 -30.658682,223.3264 -33.285509,189.88111 57.340113,188.06504 55.060488,153.24941 52.780862,118.43378 -16.147682,159.70006 -28.781622,101.31735 -41.415562,42.934644 132.0611,-51.78568 115.75217,-114.5448 99.443233,-177.30392 42.191908,-180.68279 0.62568755,-173.35941 -40.940533,-166.03604 -82.257593,-141.03206 -83.842112,-82.63474 -85.426632,-24.237415 68.817762,34.950531 61.317368,91.306352 53.816973,147.66217 -30.991283,123.59175 -32.535742,157.00353 -34.080202,190.41531 30.585252,182.97265 33.161428,212.68971 35.737603,242.40678 -30.185719,257.31643 -26.278872,284.01807 -22.372026,310.71971 26.505556,296.23598 31.284368,322.18501 36.063179,348.13405 -22.599268,364.82895 -20.647682,394.76474 -18.696097,424.70054 43.587342,429.0581 41.295368,461.08761 39.003393,493.11713 34.412807,526.78478 -38.166932,524.90772 -110.74667,523.03066 -185.32932,395.88358 -230.87865,300.91163 -276.42798,205.93969 -277.77561,146.29323 -235.88415,70.032982 -193.9927,-6.2272701 -82.423656,-79.074489 13.139438,-80.757678 108.70253,-82.440866 204.41376,-21.620557 259.66027,56.893552 314.90678,135.40766 347.89807,254.58966 307.8382,346.58681 267.77832,438.58396 119.1616,521.9035 50.680678,516.77379 Z"
       id="path3336"
       inkscape:connector-curvature="0"
       sodipodi:nodetypes="zzzzzzzzzzzzzzzzzzzzzzzzz" />
  </g>
</svg>
