<?xml version="1.0" encoding="UTF-8" standalone="no"?>
<!-- Created with Inkscape (http://www.inkscape.org/) -->

<svg
   xmlns:dc="http://purl.org/dc/elements/1.1/"
   xmlns:cc="http://creativecommons.org/ns#"
   xmlns:rdf="http://www.w3.org/1999/02/22-rdf-syntax-ns#"
   xmlns:svg="http://www.w3.org/2000/svg"
   xmlns="http://www.w3.org/2000/svg"
   xmlns:sodipodi="http://sodipodi.sourceforge.net/DTD/sodipodi-0.dtd"
   xmlns:inkscape="http://www.inkscape.org/namespaces/inkscape"
   width="744.09448819"
   height="1052.3622047"
   id="svg2"
   version="1.1"
   inkscape:version="0.48.4 r9939"
   sodipodi:docname="ochiai.svg">
  <defs
     id="defs4" />
  <sodipodi:namedview
     id="base"
     pagecolor="#ffffff"
     bordercolor="#666666"
     borderopacity="1.0"
     inkscape:pageopacity="0.0"
     inkscape:pageshadow="2"
     inkscape:zoom="1.4376582"
     inkscape:cx="-41.656618"
     inkscape:cy="1059.1834"
     inkscape:document-units="px"
     inkscape:current-layer="layer1"
     showgrid="false"
     inkscape:window-width="1600"
     inkscape:window-height="824"
     inkscape:window-x="-3"
     inkscape:window-y="-3"
     inkscape:window-maximized="1" />
  <metadata
     id="metadata7">
    <rdf:RDF>
      <cc:Work
         rdf:about="">
        <dc:format>image/svg+xml</dc:format>
        <dc:type
           rdf:resource="http://purl.org/dc/dcmitype/StillImage" />
        <dc:title />
      </cc:Work>
    </rdf:RDF>
  </metadata>
  <g
     inkscape:label="Layer 1"
     inkscape:groupmode="layer"
     id="layer1">
    <path
       style="fill:none;stroke:#000000;stroke-width:1px;stroke-linecap:butt;stroke-linejoin:miter;stroke-opacity:1"
       d="M  141.854500875355 , -287.387929661625 C  216.847759016397 , -209.394052874681 154.955924973626 , -28.0647758778773 126.566707348884 , 53.3263769640255 98.1774897241418 , 134.717529805928 124.593241566464 , 141.790212769025 47.2678717845444 , 215.97701210923 -30.0574979973752 , 290.163811449434 -109.412066278808 , 339.817069919543 -195.881359106268 , 272.442143187027 -282.350651933728 , 205.06721645451 -249.267648331638 , 160.975691917295 -264.764539619987 , 73.6417188449262 -280.261430908337 , -13.6922542274425 -298.50858716234 , -76.5549442480165 -238.217453077902 , -139.21618745516 -177.926318993464 , -201.877430662304 -101.458532986009 , -165.421460672203 0 , -165.421460672203 101.458532986009 , -165.421460672203 304.17557946505 , -199.7611102594 334.175152216596 , -74.4487973347897 364.174724968142 , 50.8635155898206 269.053489805342 , 93.4762468396817 197.43309548889 , 116.639175101284 125.812701172438 , 139.802103362887 118.542542871215 , 128.294187013235 61.814535333238 , 120.384840000193 5.08652779526059 , 112.475492987152 -24.0309642616267 , 76.9008797152857 -47.0830282990546 , 44.3949803741949 -70.1350923364824 , 11.889081033104 -82.4540962909547 , -30.7501490438235 -53.6881152130936 , -73.4428093309602 -24.9221341352325 , -116.135469618097 26.0064490314318 , -119.379769375579 55.7420768684341 , -86.5527872793828 85.4777047054363 , -53.7258051831867 83.4853264154156 , -5.24442886352913 38.5246490371733 , 38.405664252714 -6.43602834106896 , 82.0557573689572 -16.119502535614 , 101.752246562332 -68.9429773935144 , 121.096631532701 -121.766452251415 , 140.44101650307 -131.223559520717 , 150.749474321623 -193.798290486916 , 157.851960931384 -256.373021453114 , 164.954447541146 -297.191501471154 , 166.975329325403 -328.068306406609 , 137.637837138844 -358.945111342063 , 108.300344952285 -362.815531585033 , 56.7290710575688 -336.628002613632 , 22.3069555225234 -310.440473642231 , -12.1151600125219 -273.305315315889 , -13.1296689046192 -226.153949790386 , -12.3936719417939 -179.002584264882 , -11.6576749789686 -54.1204750111382 , -12.7122755965101 -0.0770833789397026 , -25.9292007531335 53.9663082532588 , -39.146125909757 158.637974002806 , -62.4546253779343 219.520783748254 , 12.7335253771613 280.403593493703 , 87.921676132257 340.068769499791 , 136.251775445983 188.788643916861 , 272.562975745224 37.5085183339306 , 408.874176044466 -28.6297670780696 , 270.048738066782 -75.2771549720945 , 207.422762789191 -121.924542866119 , 144.796787511599 -130.967406212969 , 106.189184010463 -147.687599641841 , 54.2049338076849 -164.407793070713 , 2.22068360490667 -160.016536816411 , -36.8792868190376 -156.352575554002 , -108.337190717491 -152.688614291592 , -179.795094615945 -173.824540474636 , -203.849980321042 -118.064508476093 , -270.252432464307 -62.3044764775503 , -336.654884607573 66.861242734314 , -365.38180644857 141.854500875355 , -287.387929661625 Z "
       id="path3089"
       inkscape:connector-curvature="0"
       sodipodi:nodetypes="zzzzzzzzzzzzzzzzzzzzzzzzzzz" />
  </g>
</svg>
