<?xml version="1.0" encoding="UTF-8" standalone="no"?>
<svg
   xmlns:dc="http://purl.org/dc/elements/1.1/"
   xmlns:cc="http://creativecommons.org/ns#"
   xmlns:rdf="http://www.w3.org/1999/02/22-rdf-syntax-ns#"
   xmlns:svg="http://www.w3.org/2000/svg"
   xmlns="http://www.w3.org/2000/svg"
   xmlns:sodipodi="http://sodipodi.sourceforge.net/DTD/sodipodi-0.dtd"
   xmlns:inkscape="http://www.inkscape.org/namespaces/inkscape"
   width="618"
   height="600"
   viewBox="0 0 618 600"
   id="svg2"
   version="1.1"
   inkscape:version="0.91 r13725"
   sodipodi:docname="ornamental20.svg">
  <metadata
     id="metadata28">
    <rdf:RDF>
      <cc:Work
         rdf:about="">
        <dc:format>image/svg+xml</dc:format>
        <dc:type
           rdf:resource="http://purl.org/dc/dcmitype/StillImage" />
        <dc:title>20 crossings ornamental knot (five-fold symmetry)</dc:title>
      </cc:Work>
    </rdf:RDF>
  </metadata>
  <defs
     id="defs26" />
  <sodipodi:namedview
     pagecolor="#ffffff"
     bordercolor="#666666"
     borderopacity="1"
     objecttolerance="10"
     gridtolerance="10"
     guidetolerance="10"
     inkscape:pageopacity="0"
     inkscape:pageshadow="2"
     inkscape:window-width="2084"
     inkscape:window-height="1049"
     id="namedview24"
     showgrid="false"
     inkscape:zoom="1.5554835"
     inkscape:cx="12.334673"
     inkscape:cy="582.23899"
     inkscape:window-x="349"
     inkscape:window-y="61"
     inkscape:window-maximized="0"
     inkscape:current-layer="svg2" />
  <title
     id="title4">20 crossings ornamental knot (five-fold symmetry)</title>
  <path
     style="fill:none;stroke:#000000;stroke-width:2;stroke-linejoin:round;stroke-miterlimit:4;stroke-dasharray:none"
     inkscape:connector-curvature="0"
       d="M  -203.437512959228 , -94.9489080256325 C  -233.721715541917 , -73.2778450682628 -268.696680894215 , -45.1095318048333 -277.304958772358 , 3.44276920769625 -285.9132366505 , 51.9950702202258 -256.610476740234 , 89.9722620270554 -220.031139865833 , 106.368118392479 -183.451802991432 , 122.763974757903 -163.16238078082 , 112.067405702931 -121.644983412055 , 105.57489448654 -80.127586043289 , 99.0823832701494 -41.0649641299419 , 96.6233767731932 0 , 96.6233767731932 41.0649641299419 , 96.6233767731932 90.8800735336958 , 95.1733652758944 129.149302013101 , 136.289904547365 167.418530492506 , 177.406443818836 174.452227942832 , 283.96406174071 79.3457480470679 , 308.125619162486 -15.760731848696 , 332.287176584262 -21.5420628773044 , 256.141299660885 -17.1878432060674 , 235.357217836801 -12.8336235348305 , 214.573136012717 2.28007066774735 , 197.591402928688 26.2303029442215 , 192.93680318549 50.1805352206957 , 188.282203442292 71.5364716603146 , 196.124500633713 108.774837418648 , 196.392850070574 146.013203176981 , 196.661199507435 190.865463642863 , 194.430324207963 226.368033238612 , 160.210506357227 261.870602834361 , 125.99068850649 260.486605352404 , 78.0427648094066 240.530542748349 , 43.2774436190367 220.574480144294 , 8.51212242866674 197.87270722922 , 5.24000542271194 160.468224852333 , -13.9107565539847 123.063742475446 , -33.0615185306814 90.0160497485026 , -54.0325735619076 56.793795893982 , -78.1699538634068 23.5715420394614 , -102.307334164906 -17.5820234185895 , -130.414836870415 -24.3747842109711 , -186.172904007725 -31.1675450033527 , -241.930971145036 25.7750705599354 , -332.272198554332 116.919636195725 , -295.917122838935 208.064201831515 , -259.562047123537 167.983973405328 , -194.560557523705 152.244758915419 , -180.305228223537 136.50554442551 , -166.049898923368 114.296696702679 , -161.194994824383 92.184646687408 , -171.506937851213 70.0725966721368 , -181.818880878043 57.4048677949057 , -200.716137068945 27.436128895112 , -222.821398536018 -2.53261000468166 , -244.92666000309 -40.1301265584444 , -269.485341207313 -88.9662129741825 , -262.668813848521 -137.802299389921 , -255.852286489728 -164.865704334036 , -216.24810806469 -169.155453633455 , -176.392493114288 -173.445202932875 , -136.536878163886 -157.002384962015 , -120.545912578113 -137.998058513381 , -83.0668175729676 -118.993732064747 , -45.5877225678224 -104.584063896137 , -9.19683625039769 -91.8942921065871 , 29.8582654768103 -79.2045203170375 , 68.9133672040182 -62.4317620514213 , 115.84227341771 -89.7100726913054 , 164.944181921406 -116.98838333119 , 214.046090425102 -216.157168171234 , 253.663649036854 -268.525693364024 , 170.678343443988 -320.894218556814 , 87.693037851123 -250.261715657775 , 58.6642952825992 -229.149351328114 , 56.3827697781882 -208.036986998454 , 54.1012442737772 -187.21601073452 , 63.227577513527 -175.388194525348 , 84.5672515641887 -163.560378316176 , 105.906925614851 -164.419498872166 , 128.641031234423 -153.167426490662 , 164.139746181489 -141.915354109158 , 199.638461128555 -125.933554898465 , 241.606117335332 -82.4176767960227 , 264.796562234298 -38.9017986935808 , 287.987007133265 6.27170783925668 , 271.854024042121 33.1687306129887 , 242.131605600213 60.0657533867206 , 212.409187158305 56.1624879541154 , 189.807378333548 62.8173242038139 , 148.315690724333 69.4721604535123 , 106.824003115119 79.2045203170375 , 68.9133672040182 91.8942921065871 , 29.8582654768102 104.584063896137 , -9.19683625039772 118.598736395335 , -57.0218988534983 169.528730958727 , -80.7123885876552 220.458725522119 , -104.402878321812 323.974574453048 , -78.1642072976216 317.564062519898 , 19.7537620030336 311.153550586747 , 117.671731303689 236.947988611814 , 99.6397338303996 218.526680033461 , 89.0759903425678 200.105371455108 , 78.5122468547359 188.62517190394 , 58.8906253811778 191.599413280083 , 34.674250485193 194.573654656227 , 10.4578755892083 208.631469793484 , -7.42942381618852 220.39397313613 , -42.7622896904125 232.156476478776 , -78.0951555646364 243.894898708261 , -121.441568531149 222.320815303951 , -165.781023950701 200.746731899641 , -210.120479370253 154.717867882609 , -223.620942813894 115.48732013795 , -215.384674497441 76.2567723932919 , -207.148406180989 66.1295705594997 , -186.568876881078 36.3574928692885 , -156.913011083921 6.58541517907734 , -127.257145286764 -23.5715420394615 , -102.307334164906 -56.793795893982 , -78.1699538634068 -90.0160497485026 , -54.0325735619076 -129.46502445902 , -23.5789029696911 -184.593176069552 , -34.3487938733906 -239.721327680083 , -45.11868477709 -308.044704784582 , -127.191304925609 -245.303753398667 , -202.640601770573 -182.562802012752 , -278.089898615536 -133.128183482062 , -219.884771250179 -124.434244414698 , -200.51074973402 -115.740305347334 , -181.136728217862 -117.985928539846 , -158.51461099901 -134.626168386365 , -140.671367383659 -151.266408232884 , -122.828123768307 -173.153310376538 , -116.619970983002 -203.437512959228 , -94.9489080256325 Z "
     id="Main"
     sodipodi:nodetypes="zzzzzzzzzzzzzzzzzzzzzzzzzzzzzzzzzzzzzzzzzzzzzz" />
</svg>
