<?xml version="1.0" encoding="UTF-8" standalone="no"?>
<!-- Created with Inkscape (http://www.inkscape.org/) -->

<svg
   xmlns:dc="http://purl.org/dc/elements/1.1/"
   xmlns:cc="http://creativecommons.org/ns#"
   xmlns:rdf="http://www.w3.org/1999/02/22-rdf-syntax-ns#"
   xmlns:svg="http://www.w3.org/2000/svg"
   xmlns="http://www.w3.org/2000/svg"
   xmlns:sodipodi="http://sodipodi.sourceforge.net/DTD/sodipodi-0.dtd"
   xmlns:inkscape="http://www.inkscape.org/namespaces/inkscape"
   width="744.09448819"
   height="1052.3622047"
   id="svg2"
   version="1.1"
   inkscape:version="0.91 r13725"
   sodipodi:docname="perko_A.svg">
  <defs
     id="defs4" />
  <sodipodi:namedview
     id="base"
     pagecolor="#ffffff"
     bordercolor="#666666"
     borderopacity="1.0"
     inkscape:pageopacity="0.0"
     inkscape:pageshadow="2"
     inkscape:zoom="1.1301279"
     inkscape:cx="191.42857"
     inkscape:cy="520"
     inkscape:document-units="px"
     inkscape:current-layer="layer1"
     showgrid="false"
     inkscape:window-width="2560"
     inkscape:window-height="1315"
     inkscape:window-x="0"
     inkscape:window-y="1"
     inkscape:window-maximized="1" />
  <metadata
     id="metadata7">
    <rdf:RDF>
      <cc:Work
         rdf:about="">
        <dc:format>image/svg+xml</dc:format>
        <dc:type
           rdf:resource="http://purl.org/dc/dcmitype/StillImage" />
        <dc:title />
      </cc:Work>
    </rdf:RDF>
  </metadata>
  <g
     inkscape:label="Layer 1"
     inkscape:groupmode="layer"
     id="layer1">
    <path
       style="fill:none;stroke:#000000;stroke-width:1px;stroke-linecap:butt;stroke-linejoin:miter;stroke-opacity:1"
       d="M  -51.9482364621969 , 444.604055459805 C  -105.163928868541 , 490.658961861203 -115.501798102002 , 497.43731742038 -152.99575591121 , 533.630656050705 -190.489713720419 , 569.82399468103 -235.153162093166 , 612.656701027604 -224.921021867082 , 680.332915103173 -214.688881640997 , 748.009129178741 -150.590414614551 , 793.731419737463 -80.1455645672358 , 781.028117469373 -9.70071451992041 , 768.324815201284 -2.57644461544768 , 729.187662905142 78.2788779868381 , 667.958396627654 159.134200589124 , 606.729130350167 374.781935653167 , 491.607787564282 344.025799993877 , 296.184121391433 313.269664334588 , 100.760455218584 145.898915245556 , 133.219353038632 115.477019989274 , 218.898687056917 85.0551247329926 , 304.578021075202 137.95299558495 , 319.017281985612 133.661793818213 , 404.23628787122 129.370592051476 , 489.455293756828 61.4825638127254 , 534.713311778395 0 , 534.713311778395 -61.4825638127254 , 534.713311778395 -129.370592051476 , 489.455293756828 -133.661793818213 , 404.23628787122 -137.95299558495 , 319.017281985612 -85.0551247329926 , 304.578021075202 -115.477019989274 , 218.898687056917 -145.898915245556 , 133.219353038632 -313.269664334588 , 100.760455218584 -344.025799993877 , 296.184121391433 -374.781935653167 , 491.607787564282 -159.134200589124 , 606.729130350167 -78.2788779868381 , 667.958396627654 2.57644461544768 , 729.187662905142 9.70071451992041 , 768.324815201284 80.1455645672358 , 781.028117469373 150.590414614551 , 793.731419737463 214.688881640997 , 748.009129178741 224.921021867082 , 680.332915103173 235.153162093166 , 612.656701027604 190.489713720419 , 569.82399468103 152.99575591121 , 533.630656050705 115.501798102002 , 497.437317420379 105.163928868541 , 490.658961861203 51.9482364621969 , 444.604055459805 -1.26745594414672 , 398.549149058407 0.914956941436505 , 389.586994118846 -56.5891499701714 , 350.124453550578 -114.093256881779 , 310.66191298231 -149.120537830194 , 321.591295695475 -183.507943371439 , 255.041705836721 -217.895348912684 , 188.492115977966 -196.710932078794 , 28.0882341523731 0 , 28.0882341523731 196.710932078794 , 28.0882341523731 217.895348912684 , 188.492115977966 183.507943371439 , 255.041705836721 149.120537830194 , 321.591295695475 114.093256881779 , 310.66191298231 56.5891499701714 , 350.124453550578 -0.914956941436515 , 389.586994118846 1.26745594414672 , 398.549149058407 -51.9482364621969 , 444.604055459805 Z "
       id="path2985"
       inkscape:connector-curvature="0"
       sodipodi:nodetypes="zzzzzzzzzzzzzzzzzzzzzzz" />
  </g>
</svg>
