<?xml version="1.0" encoding="UTF-8" standalone="no"?>
<!-- Created with Inkscape (http://www.inkscape.org/) -->

<svg
   xmlns:dc="http://purl.org/dc/elements/1.1/"
   xmlns:cc="http://creativecommons.org/ns#"
   xmlns:rdf="http://www.w3.org/1999/02/22-rdf-syntax-ns#"
   xmlns:svg="http://www.w3.org/2000/svg"
   xmlns="http://www.w3.org/2000/svg"
   xmlns:sodipodi="http://sodipodi.sourceforge.net/DTD/sodipodi-0.dtd"
   xmlns:inkscape="http://www.inkscape.org/namespaces/inkscape"
   width="744.09448819"
   height="1052.3622047"
   id="svg2"
   version="1.1"
   inkscape:version="0.91 r13725"
   sodipodi:docname="perko_B.svg">
  <defs
     id="defs4" />
  <sodipodi:namedview
     id="base"
     pagecolor="#ffffff"
     bordercolor="#666666"
     borderopacity="1.0"
     inkscape:pageopacity="0.0"
     inkscape:pageshadow="2"
     inkscape:zoom="0.61082147"
     inkscape:cx="375"
     inkscape:cy="581.17216"
     inkscape:document-units="px"
     inkscape:current-layer="layer1"
     showgrid="false"
     inkscape:window-width="2000"
     inkscape:window-height="1238"
     inkscape:window-x="254"
     inkscape:window-y="65"
     inkscape:window-maximized="0" />
  <metadata
     id="metadata7">
    <rdf:RDF>
      <cc:Work
         rdf:about="">
        <dc:format>image/svg+xml</dc:format>
        <dc:type
           rdf:resource="http://purl.org/dc/dcmitype/StillImage" />
        <dc:title />
      </cc:Work>
    </rdf:RDF>
  </metadata>
  <g
     inkscape:label="Layer 1"
     inkscape:groupmode="layer"
     id="layer1">
    <path
       style="fill:none;stroke:#000000;stroke-width:0.86331469px;stroke-linecap:butt;stroke-linejoin:miter;stroke-opacity:1"
       d="M 0,-235.01835 C -147.08024,-235.01835 -200.94244,-76.003135 -224.84594,69.500053 -248.74944,215.00324 -290.1669,343.89778 -146.78093,415.79118 -3.3949493,487.68458 54.599389,348.73257 59.890778,288.2425 65.182168,227.75243 39.622251,190.47129 -3.7351344,154.00533 -47.09252,117.53937 -81.196979,117.3942 -95.812926,63.507169 -110.42887,9.6201421 -65.39371,-52.50358 29.92221,-56.307147 125.23813,-60.110713 143.46456,-51.246938 196.18746,-52.671772 248.91036,-54.096605 327.58021,-72.848318 356.42744,-150.83094 385.27467,-228.81356 320.13902,-303.11804 241.2623,-287.03909 162.38558,-270.96014 136.18429,-188.44201 127.50119,-129.67087 118.81809,-70.899732 124.47951,-42.161077 107.07738,65.86466 89.675247,173.8904 21.608732,207.27975 -13.437907,223.195 -48.484545,239.11025 -88.677828,252.0835 -161.16477,249.02898 -233.65172,245.97446 -286.87604,245.4825 -334.75192,190.02624 -382.6278,134.56999 -409.59824,19.165002 -318.05111,-70.517691 -226.50398,-160.20038 -129.32791,-93.496333 -106.25313,-76.967728 -83.178353,-60.439122 -32.883979,-18.192212 -32.934109,47.526211 -32.984239,113.24463 -61.105227,117.39048 -72.950934,178.85828 -84.79664,240.32609 -60.407977,290.76971 -26.178393,326.33424 8.0511921,361.89876 72.356394,415.58787 162.28567,380.96569 252.21495,346.34351 327.01848,239.45877 326.04535,94.691766 325.07221,-50.075243 254.77357,-126.85038 236.51198,-145.59604 218.2504,-164.34171 147.08024,-235.01835 0,-235.01835 Z"
       id="path2987"
       inkscape:connector-curvature="0"
       sodipodi:nodetypes="zzzzzzzzzzzzzzzzzzzzzzzz" />
  </g>
</svg>
