<?xml version="1.0" encoding="UTF-8" standalone="no"?>
<!-- Created with Inkscape (http://www.inkscape.org/) -->

<svg
   xmlns:dc="http://purl.org/dc/elements/1.1/"
   xmlns:cc="http://creativecommons.org/ns#"
   xmlns:rdf="http://www.w3.org/1999/02/22-rdf-syntax-ns#"
   xmlns:svg="http://www.w3.org/2000/svg"
   xmlns="http://www.w3.org/2000/svg"
   xmlns:sodipodi="http://sodipodi.sourceforge.net/DTD/sodipodi-0.dtd"
   xmlns:inkscape="http://www.inkscape.org/namespaces/inkscape"
   width="210mm"
   height="297mm"
   viewBox="0 0 744.09448819 1052.3622047"
   id="svg2"
   version="1.1"
   inkscape:version="0.91 r13725"
   sodipodi:docname="pretzel_7_3_7.svg">
  <defs
     id="defs4" />
  <sodipodi:namedview
     id="base"
     pagecolor="#ffffff"
     bordercolor="#666666"
     borderopacity="1.0"
     inkscape:pageopacity="0.0"
     inkscape:pageshadow="2"
     inkscape:zoom="1.0150177"
     inkscape:cx="267.86328"
     inkscape:cy="1090.2407"
     inkscape:document-units="px"
     inkscape:current-layer="layer1"
     showgrid="false"
     inkscape:window-width="2560"
     inkscape:window-height="1315"
     inkscape:window-x="293"
     inkscape:window-y="0"
     inkscape:window-maximized="0" />
  <metadata
     id="metadata7">
    <rdf:RDF>
      <cc:Work
         rdf:about="">
        <dc:format>image/svg+xml</dc:format>
        <dc:type
           rdf:resource="http://purl.org/dc/dcmitype/StillImage" />
        <dc:title />
      </cc:Work>
    </rdf:RDF>
  </metadata>
  <g
     inkscape:label="Layer 1"
     inkscape:groupmode="layer"
     id="layer1">
    <path
       sodipodi:nodetypes="zzzzzzzzzszzzzzzzzzzzzzzzzzzzzzzzzzzzzzzzzzzzzzzzzz"
       inkscape:connector-curvature="0"
       id="path4241"
       d="M  -321.057405128989 , -159.890426514407 C  -303.350658921013 , -176.434892613216 -287.498018511092 , -179.30237895728 -252.809714780642 , -206.314851871426 -218.121411050193 , -233.327324785573 -199.625601402829 , -284.260468210882 -150.676134133591 , -296.615343518946 -101.726666864353 , -308.970218827009 -104.725848512134 , -290.050867545929 -55.815854411236 , -284.809687420926 -6.9058603103385 , -279.568507295922 -14.9108678079475 , -318.908427574129 43.9355436299965 , -324.033065918518 102.781955067941 , -329.157704262907 89.7155933968959 , -248.37425509616 147.232512086228 , -238.196751104089 204.749430775561 , -228.019247112017 205.085306845645 , -279.833743816911 265.746536017808 , -267.746474588695 326.40776518997 , -255.659205360479 316.390181550612 , -180.443539559815 260.180395169864 , -121.938851404366 203.970608789116 , -63.4341632489163 216.501005161196 , -80.5502140205998 171.83809349777 , -38.7558548205983 127.175181834343 , 3.03850437940326 131.560302705406 , 4.11771248432999 108.242105657762 , 17.6809746797708 84.9239086101172 , 31.2442368752115 53.6096297460151 , 35.2886949092051 26.9569982190862 , 19.8840222696833 0.304366692157274 , 4.4793496301616 -0.304366692157273 , -4.4793496301616 -26.9569982190862 , -19.8840222696833 -53.6096297460151 , -35.2886949092051 -84.9239086101172 , -31.2442368752115 -108.242105657762 , -17.6809746797708 -131.560302705406 , -4.11771248432999 -127.175181834343 , -3.03850437940326 -171.83809349777 , 38.7558548205983 -216.501005161196 , 80.5502140205998 -203.970608789116 , 63.4341632489163 -260.180395169864 , 121.938851404366 -316.390181550612 , 180.443539559815 -326.40776518997 , 255.659205360479 -265.746536017808 , 267.746474588695 -205.085306845645 , 279.833743816911 -204.749430775561 , 228.019247112017 -147.232512086228 , 238.196751104089 -89.7155933968959 , 248.37425509616 -102.781955067941 , 329.157704262907 -43.9355436299965 , 324.033065918518 14.9108678079475 , 318.908427574129 6.9058603103385 , 279.568507295922 55.815854411236 , 284.809687420926 104.725848512134 , 290.050867545929 101.726666864353 , 308.970218827009 150.676134133591 , 296.615343518946 199.625601402829 , 284.260468210882 218.121411050193 , 233.327324785573 252.809714780642 , 206.314851871426 287.498018511092 , 179.30237895728 303.350658921013 , 176.434892613216 321.057405128989 , 159.890426514407 338.764151336965 , 143.345960415598 349.514078484266 , 127.385470822605 350.993872425523 , 125.344280411015 352.473666366779 , 123.303089999425 392.390119661539 , 66.7890765489676 392.390119661539 , 0 392.390119661539 , -66.7890765489676 352.473666366779 , -123.303089999425 350.993872425523 , -125.344280411015 349.514078484266 , -127.385470822605 338.764151336965 , -143.345960415598 321.057405128989 , -159.890426514407 303.350658921013 , -176.434892613216 287.498018511092 , -179.30237895728 252.809714780642 , -206.314851871426 218.121411050193 , -233.327324785573 199.625601402829 , -284.260468210882 150.676134133591 , -296.615343518946 101.726666864353 , -308.970218827009 104.725848512134 , -290.050867545929 55.815854411236 , -284.809687420926 6.9058603103385 , -279.568507295922 14.9108678079475 , -318.908427574129 -43.9355436299965 , -324.033065918518 -102.781955067941 , -329.157704262907 -89.7155933968959 , -248.37425509616 -147.232512086228 , -238.196751104089 -204.749430775561 , -228.019247112017 -205.085306845645 , -279.833743816911 -265.746536017808 , -267.746474588695 -326.40776518997 , -255.659205360479 -316.390181550612 , -180.443539559815 -260.180395169864 , -121.938851404366 -203.970608789116 , -63.4341632489163 -216.501005161196 , -80.5502140205998 -171.83809349777 , -38.7558548205983 -127.175181834343 , 3.03850437940326 -131.560302705406 , 4.11771248432999 -108.242105657762 , 17.6809746797708 -84.9239086101172 , 31.2442368752115 -53.6096297460151 , 35.2886949092051 -26.9569982190862 , 19.8840222696833 -0.304366692157274 , 4.4793496301616 0.304366692157274 , -4.4793496301616 26.9569982190862 , -19.8840222696833 53.6096297460151 , -35.2886949092051 84.9239086101172 , -31.2442368752115 108.242105657762 , -17.6809746797708 131.560302705406 , -4.11771248432999 127.175181834343 , -3.03850437940326 171.83809349777 , 38.7558548205983 216.501005161196 , 80.5502140205998 203.970608789116 , 63.4341632489163 260.180395169864 , 121.938851404366 316.390181550612 , 180.443539559815 326.40776518997 , 255.659205360479 265.746536017808 , 267.746474588695 205.085306845645 , 279.833743816911 204.749430775561 , 228.019247112017 147.232512086228 , 238.196751104089 89.7155933968959 , 248.37425509616 102.781955067941 , 329.157704262907 43.9355436299965 , 324.033065918518 -14.9108678079475 , 318.908427574129 -6.9058603103385 , 279.568507295922 -55.815854411236 , 284.809687420926 -104.725848512134 , 290.050867545929 -101.726666864353 , 308.970218827009 -150.676134133591 , 296.615343518946 -199.625601402829 , 284.260468210882 -218.121411050193 , 233.327324785573 -252.809714780642 , 206.314851871426 -287.498018511092 , 179.30237895728 -303.350658921013 , 176.434892613216 -321.057405128989 , 159.890426514407 -338.764151336965 , 143.345960415598 -349.514078484266 , 127.385470822605 -350.993872425523 , 125.344280411015 -352.473666366779 , 123.303089999425 -392.390119661539 , 66.7890765489676 -392.390119661539 , 0 -392.390119661539 , -66.7890765489676 -352.473666366779 , -123.303089999425 -350.993872425523 , -125.344280411015 -349.514078484266 , -127.385470822605 -338.764151336965 , -143.345960415598 -321.057405128989 , -159.890426514407 Z "
       style="fill:none;fill-rule:evenodd;stroke:#03ff99;stroke-width:7.63288832;stroke-linecap:butt;stroke-linejoin:miter;stroke-miterlimit:4;stroke-dasharray:none;stroke-opacity:1" />
  </g>
</svg>
