<?xml version="1.0" encoding="UTF-8" standalone="no"?>
<!-- Created with Inkscape (http://www.inkscape.org/) -->

<svg
   xmlns:dc="http://purl.org/dc/elements/1.1/"
   xmlns:cc="http://creativecommons.org/ns#"
   xmlns:rdf="http://www.w3.org/1999/02/22-rdf-syntax-ns#"
   xmlns:svg="http://www.w3.org/2000/svg"
   xmlns="http://www.w3.org/2000/svg"
   xmlns:sodipodi="http://sodipodi.sourceforge.net/DTD/sodipodi-0.dtd"
   xmlns:inkscape="http://www.inkscape.org/namespaces/inkscape"
   width="210mm"
   height="297mm"
   viewBox="0 0 744.09448819 1052.3622047"
   id="svg2"
   version="1.1"
   inkscape:version="0.91 r13725"
   sodipodi:docname="pretzel_7_3_7.svg">
  <defs
     id="defs4" />
  <sodipodi:namedview
     id="base"
     pagecolor="#ffffff"
     bordercolor="#666666"
     borderopacity="1.0"
     inkscape:pageopacity="0.0"
     inkscape:pageshadow="2"
     inkscape:zoom="1.0150177"
     inkscape:cx="267.86328"
     inkscape:cy="1090.2407"
     inkscape:document-units="px"
     inkscape:current-layer="layer1"
     showgrid="false"
     inkscape:window-width="2560"
     inkscape:window-height="1315"
     inkscape:window-x="293"
     inkscape:window-y="0"
     inkscape:window-maximized="0" />
  <metadata
     id="metadata7">
    <rdf:RDF>
      <cc:Work
         rdf:about="">
        <dc:format>image/svg+xml</dc:format>
        <dc:type
           rdf:resource="http://purl.org/dc/dcmitype/StillImage" />
        <dc:title />
      </cc:Work>
    </rdf:RDF>
  </metadata>
  <g
     inkscape:label="Layer 1"
     inkscape:groupmode="layer"
     id="layer1">
    <path
       sodipodi:nodetypes="zzzzzzzzzszzzzzzzzzzzzzzzzzzzzzzzzzzzzzzzzzzzzzzzzz"
       inkscape:connector-curvature="0"
       id="path4241"
       d="M  -323.235130374045 , -154.276388734046 C  -303.806609529413 , -171.527148283647 -281.245938276649 , -172.009757829607 -242.106532175906 , -211.12721063854 -202.967126075163 , -250.244663447474 -213.342698573938 , -287.448434189005 -163.936408149149 , -302.139616021567 -114.53011772436 , -316.830797854129 -102.687436141554 , -276.084232555576 -50.7081767691867 , -276.27979149968 1.2710826031803 , -276.475350443784 -1.06845358673731 , -320.350503519569 53.5499634677418 , -319.685819480743 108.168380522221 , -319.021135441917 99.0569987912269 , -272.541805143199 152.34733302366 , -257.139533865632 205.637667256092 , -241.737262588064 220.983174195818 , -279.052023242013 266.306367149538 , -255.508105381279 311.629560103258 , -231.964187520546 311.115951687832 , -182.935442956939 250.429508633088 , -111.683114648376 189.743065578344 , -40.4307863398138 221.096426719332 , -77.2684606041693 185.197311711983 , -34.619319267587 149.298196704635 , 8.0298220689953 132.19601511899 , 20.6340343337627 109.33347928455 , 28.1453259243803 86.4709434501092 , 35.656617514998 61.0038818602624 , 35.8907140790057 32.201155832032 , 21.889044728009 3.39842980380158 , 7.88737537701225 -3.39842980380157 , -7.88737537701225 -32.201155832032 , -21.889044728009 -61.0038818602624 , -35.8907140790057 -86.4709434501092 , -35.656617514998 -109.33347928455 , -28.1453259243803 -132.19601511899 , -20.6340343337627 -149.298196704635 , -8.0298220689953 -185.197311711983 , 34.619319267587 -221.096426719332 , 77.2684606041693 -189.743065578344 , 40.4307863398138 -250.429508633088 , 111.683114648376 -311.115951687832 , 182.935442956939 -311.629560103258 , 231.964187520546 -266.306367149538 , 255.508105381279 -220.983174195818 , 279.052023242013 -205.637667256092 , 241.737262588064 -152.34733302366 , 257.139533865632 -99.0569987912269 , 272.541805143199 -108.168380522221 , 319.021135441917 -53.5499634677418 , 319.685819480743 1.06845358673731 , 320.350503519569 -1.2710826031803 , 276.475350443784 50.7081767691867 , 276.27979149968 102.687436141554 , 276.084232555576 114.53011772436 , 316.830797854129 163.936408149149 , 302.139616021567 213.342698573938 , 287.448434189005 202.967126075163 , 250.244663447474 242.106532175906 , 211.12721063854 281.245938276649 , 172.009757829607 303.806609529413 , 171.527148283647 323.235130374045 , 154.276388734046 342.663651218678 , 137.025629184445 343.587047265605 , 135.620528264681 349.464878703267 , 128.43524977719 355.342710140929 , 121.249971289699 395.901781123935 , 69.288888681303 395.901781123935 , 0 395.901781123935 , -69.288888681303 355.342710140929 , -121.249971289699 349.464878703267 , -128.43524977719 343.587047265605 , -135.620528264681 342.663651218678 , -137.025629184445 323.235130374045 , -154.276388734046 303.806609529413 , -171.527148283647 281.245938276649 , -172.009757829607 242.106532175906 , -211.12721063854 202.967126075163 , -250.244663447474 213.342698573938 , -287.448434189005 163.936408149149 , -302.139616021567 114.53011772436 , -316.830797854129 102.687436141554 , -276.084232555576 50.7081767691867 , -276.27979149968 -1.2710826031803 , -276.475350443784 1.06845358673731 , -320.350503519569 -53.5499634677418 , -319.685819480743 -108.168380522221 , -319.021135441917 -99.0569987912269 , -272.541805143199 -152.34733302366 , -257.139533865632 -205.637667256092 , -241.737262588064 -220.983174195818 , -279.052023242013 -266.306367149538 , -255.508105381279 -311.629560103258 , -231.964187520546 -311.115951687832 , -182.935442956939 -250.429508633088 , -111.683114648376 -189.743065578344 , -40.4307863398138 -221.096426719332 , -77.2684606041693 -185.197311711983 , -34.619319267587 -149.298196704635 , 8.0298220689953 -132.19601511899 , 20.6340343337627 -109.33347928455 , 28.1453259243803 -86.4709434501092 , 35.656617514998 -61.0038818602624 , 35.8907140790057 -32.201155832032 , 21.889044728009 -3.39842980380158 , 7.88737537701225 3.39842980380157 , -7.88737537701225 32.201155832032 , -21.889044728009 61.0038818602624 , -35.8907140790057 86.4709434501092 , -35.656617514998 109.33347928455 , -28.1453259243803 132.19601511899 , -20.6340343337627 149.298196704635 , -8.0298220689953 185.197311711983 , 34.619319267587 221.096426719332 , 77.2684606041693 189.743065578344 , 40.4307863398138 250.429508633088 , 111.683114648376 311.115951687832 , 182.935442956939 311.629560103258 , 231.964187520546 266.306367149538 , 255.508105381279 220.983174195818 , 279.052023242013 205.637667256092 , 241.737262588064 152.34733302366 , 257.139533865632 99.0569987912269 , 272.541805143199 108.168380522221 , 319.021135441917 53.5499634677418 , 319.685819480743 -1.06845358673731 , 320.350503519569 1.2710826031803 , 276.475350443784 -50.7081767691867 , 276.27979149968 -102.687436141554 , 276.084232555576 -114.53011772436 , 316.830797854129 -163.936408149149 , 302.139616021567 -213.342698573938 , 287.448434189005 -202.967126075163 , 250.244663447474 -242.106532175906 , 211.12721063854 -281.245938276649 , 172.009757829607 -303.806609529413 , 171.527148283647 -323.235130374045 , 154.276388734046 -342.663651218678 , 137.025629184445 -343.587047265605 , 135.620528264681 -349.464878703267 , 128.43524977719 -355.342710140929 , 121.249971289699 -395.901781123935 , 69.288888681303 -395.901781123935 , 0 -395.901781123935 , -69.288888681303 -355.342710140929 , -121.249971289699 -349.464878703267 , -128.43524977719 -343.587047265605 , -135.620528264681 -342.663651218678 , -137.025629184445 -323.235130374045 , -154.276388734046 Z "
       style="fill:none;fill-rule:evenodd;stroke:#03ff99;stroke-width:7.63288832;stroke-linecap:butt;stroke-linejoin:miter;stroke-miterlimit:4;stroke-dasharray:none;stroke-opacity:1" />
  </g>
</svg>
