<?xml version="1.0" encoding="UTF-8" standalone="no"?>
<!-- Created with Inkscape (http://www.inkscape.org/) -->

<svg
   xmlns:dc="http://purl.org/dc/elements/1.1/"
   xmlns:cc="http://creativecommons.org/ns#"
   xmlns:rdf="http://www.w3.org/1999/02/22-rdf-syntax-ns#"
   xmlns:svg="http://www.w3.org/2000/svg"
   xmlns="http://www.w3.org/2000/svg"
   xmlns:sodipodi="http://sodipodi.sourceforge.net/DTD/sodipodi-0.dtd"
   xmlns:inkscape="http://www.inkscape.org/namespaces/inkscape"
   width="210mm"
   height="297mm"
   viewBox="0 0 744.09448819 1052.3622047"
   id="svg2"
   version="1.1"
   inkscape:version="0.91 r13725"
   sodipodi:docname="pretzel_p3_p5_p7_m3_m5.svg">
  <defs
     id="defs4" />
  <sodipodi:namedview
     id="base"
     pagecolor="#ffffff"
     bordercolor="#666666"
     borderopacity="1.0"
     inkscape:pageopacity="0.0"
     inkscape:pageshadow="2"
     inkscape:zoom="0.58453238"
     inkscape:cx="18"
     inkscape:cy="661.29231"
     inkscape:document-units="px"
     inkscape:current-layer="layer1"
     showgrid="false"
     inkscape:window-width="1600"
     inkscape:window-height="835"
     inkscape:window-x="0"
     inkscape:window-y="0"
     inkscape:window-maximized="1" />
  <metadata
     id="metadata7">
    <rdf:RDF>
      <cc:Work
         rdf:about="">
        <dc:format>image/svg+xml</dc:format>
        <dc:type
           rdf:resource="http://purl.org/dc/dcmitype/StillImage" />
        <dc:title></dc:title>
      </cc:Work>
    </rdf:RDF>
  </metadata>
  <g
     inkscape:label="Layer 1"
     inkscape:groupmode="layer"
     id="layer1">
    <path
       style="fill:none;fill-rule:evenodd;stroke:#000000;stroke-width:0.98947948;stroke-linecap:butt;stroke-linejoin:miter;stroke-miterlimit:4;stroke-dasharray:none;stroke-opacity:1"
       d="M -115.07649,273.41357 C -185.4402,285.19808 -324.83774,242.71284 -340.56935,285.40788 -356.30098,328.1029 -303.46819,321.86158 -306.18571,335.78395 -308.90321,349.70632 -342.56551,347.33007 -342.96821,360.57217 -343.37091,373.81428 -328.091,375.87365 -308.34475,391.99853 -288.59851,408.12342 -261.40104,452.10262 -232.62064,464.52279 -203.84026,476.94294 -176.53772,471.6506 -156.65673,462.92354 -136.77576,454.1965 -110.78626,448.47069 -114.59617,431.57937 -118.40609,414.68806 -165.45659,423.82326 -165.45256,406.15052 -165.44852,388.47778 -117.31704,399.35273 -114.91819,383.36034 -112.51932,367.36793 -165.21171,373.51387 -161.13447,347.6974 -157.05723,321.88094 -81.961654,296.34398 -51.906504,298.2018 -21.851354,300.05963 16.113787,335.73852 18.460073,356.57407 20.806357,377.40965 -22.512369,365.79085 -20.101829,384.00884 -17.691289,402.22684 17.998672,390.62184 21.129136,409.25894 24.259599,427.89604 -21.884702,434.74897 -19.032007,452.05563 -16.179313,469.36231 27.723342,454.50497 29.744819,472.59807 31.766297,490.69118 -24.447632,488.0389 -23.030105,503.64814 -21.612577,519.25738 34.30872,539.68467 62.889514,515.46232 91.470321,491.23996 74.464825,378.92308 92.025129,354.1752 109.58542,329.42734 143.15514,348.15828 142.40119,330.1866 141.64725,312.21493 94.721208,330.9424 93.624369,311.79535 92.527529,292.64829 130.20448,288.98342 149.59777,283.00901 168.99106,277.03462 189.893,270.10915 207.97005,275.81243 226.04711,281.51571 250.01315,295.31928 248.75067,312.59497 247.48821,329.87065 205.88357,322.97484 207.97005,339.78205 210.05655,356.58923 255.1607,337.88465 257.5465,357.37369 259.93231,376.86274 226.36132,371.76684 215.96626,386.95963 205.57118,402.15241 246.13983,404.46433 255.38744,438.69847 264.63507,472.93262 217.09596,495.12995 150.39739,526.89316 83.69881,558.65634 -54.043989,553.84619 -135.06699,542.08593 -216.08999,530.32568 -297.27737,512.5624 -328.57505,473.3186 -359.87272,434.0748 -362.65332,410.96173 -353.20497,392.15885 -343.7566,373.35596 -310.00887,375.02047 -308.34407,361.85144 -306.67928,348.68239 -357.2652,352.79021 -348.56555,328.58737 -339.86592,304.38453 -287.78465,303.04272 -261.16917,304.11711 -234.5537,305.1915 -219.18792,305.22031 -192.72182,311.31436 -166.25573,317.40839 -112.40864,338.24552 -117.55619,353.53458 -122.70373,368.82364 -156.82572,367.51484 -159.85522,381.3623 -162.88469,395.20977 -111.87929,395.59412 -110.27607,407.75043 -108.67285,419.90673 -162.1595,414.36571 -156.65673,433.33759 -151.15397,452.30947 -106.9599,450.66312 -82.292063,460.52469 -57.624231,470.38625 -48.423377,537.48458 -29.427069,534.03373 -10.430758,530.58288 35.77327,514.47058 35.094478,502.84854 34.415681,491.22651 -23.030105,503.64814 -25.428967,480.45918 -27.827828,457.27021 22.807939,456.44845 21.748619,444.05942 20.689295,431.67038 -26.402013,428.42413 -27.917897,415.74596 -29.433779,403.0678 21.504872,395.82906 19.259694,383.76115 17.014507,371.69325 -15.449797,378.78351 -20.721313,358.97291 -25.992832,339.16233 11.686897,291.77089 25.797862,280.35501 39.908832,268.93911 40.826351,267.00055 73.34114,271.03723 105.85594,275.07392 127.19996,288.795 132.80575,305.39838 138.41155,322.00176 92.746782,318.42476 96.023224,330.98622 99.299683,343.54769 124.57729,342.45234 134.40499,356.57406 144.23266,370.69577 131.8866,409.02736 149.59777,420.54369 167.30894,432.06003 194.22003,429.53024 208.44969,422.78423 222.67936,416.03821 266.12389,396.35388 266.34234,386.16001 266.56078,375.96614 213.03806,373.73426 213.5674,361.37179 214.09676,349.00931 242.13936,349.64824 241.55409,332.58546 240.96883,315.52267 195.99832,324.78593 199.83875,304.99308 203.67917,285.20023 253.19807,309.09925 250.34993,271.01473 247.50177,232.93019 145.22751,238.01398 83.229308,237.43067 21.231109,236.84735 -44.712773,261.62908 -115.07649,273.41357 Z"
       id="path3338"
       inkscape:connector-curvature="0"
       sodipodi:nodetypes="zzzzzzzzzzzzzzzzzzzzzzzzzzzzzzzzzzzzzzzzzzzzzzzzzzzzzzzzzzzzzzz" />
  </g>
</svg>
