<?xml version="1.0" encoding="UTF-8" standalone="no"?>
<!-- Created with Inkscape (http://www.inkscape.org/) -->

<svg
   xmlns:dc="http://purl.org/dc/elements/1.1/"
   xmlns:cc="http://creativecommons.org/ns#"
   xmlns:rdf="http://www.w3.org/1999/02/22-rdf-syntax-ns#"
   xmlns:svg="http://www.w3.org/2000/svg"
   xmlns="http://www.w3.org/2000/svg"
   xmlns:sodipodi="http://sodipodi.sourceforge.net/DTD/sodipodi-0.dtd"
   xmlns:inkscape="http://www.inkscape.org/namespaces/inkscape"
   width="210mm"
   height="297mm"
   viewBox="0 0 744.09448819 1052.3622047"
   id="svg2"
   version="1.1"
   inkscape:version="0.91 r13725"
   sodipodi:docname="satellite.svg">
  <defs
     id="defs4" />
  <sodipodi:namedview
     id="base"
     pagecolor="#ffffff"
     bordercolor="#666666"
     borderopacity="1.0"
     inkscape:pageopacity="0.0"
     inkscape:pageshadow="2"
     inkscape:zoom="4.6463407"
     inkscape:cx="-75.561255"
     inkscape:cy="666.77083"
     inkscape:document-units="px"
     inkscape:current-layer="layer1"
     showgrid="false"
     inkscape:window-width="2560"
     inkscape:window-height="1315"
     inkscape:window-x="315"
     inkscape:window-y="0"
     inkscape:window-maximized="0" />
  <metadata
     id="metadata7">
    <rdf:RDF>
      <cc:Work
         rdf:about="">
        <dc:format>image/svg+xml</dc:format>
        <dc:type
           rdf:resource="http://purl.org/dc/dcmitype/StillImage" />
        <dc:title />
      </cc:Work>
    </rdf:RDF>
  </metadata>
  <g
     inkscape:label="Layer 1"
     inkscape:groupmode="layer"
     id="layer1">
    <path
       style="fill:none;fill-rule:evenodd;stroke:#000000;stroke-width:2.30789471px;stroke-linecap:butt;stroke-linejoin:miter;stroke-opacity:1"
       d="M  62.8284531108316 , 56.5088933702283 C  85.2784507890124 , 57.1492613928292 130.72931948947 , 61.9903933459719 168.667127224102 , 117.20848820737 206.604934958734 , 172.426583068769 187.406433767629 , 240.36068250792 173.630356764798 , 256.987080132695 159.854279761967 , 273.61347775747 143.458373409313 , 275.242086053568 131.638351770135 , 273.179743099688 119.818330130958 , 271.117400145807 102.470167759056 , 263.862946671262 86.9807443011661 , 232.382373313654 71.4913208432761 , 200.901799956045 75.8187900467913 , 202.363196678779 57.3564481171835 , 169.268878312452 38.8941061875756 , 136.174559946125 3.06700078588545 , 130.183446500611 -17.931075874725 , 149.114208480948 -38.9291525353354 , 168.044970461286 -33.4854104730387 , 196.25376082615 -27.9791861258857 , 213.865358494123 -22.4729617787327 , 231.476956162097 -8.36635125600674 , 262.426143134453 3.67257077826962 , 284.862156987866 15.711492812546 , 307.29817084128 32.9811827775904 , 343.262254577935 76.4197427506246 , 350.569485099179 119.858302723659 , 357.876715620423 156.72754116598 , 334.384101766379 159.1522629536 , 332.831040084705 161.576984741221 , 331.27797840303 179.661227367778 , 319.584350309701 200.678683033979 , 299.839342599291 221.69613870018 , 280.09433488888 319.654075826532 , 178.090734776067 274.98608803462 , 94.874542592752 230.318100242709 , 11.6583504094372 158.923418476807 , -17.8144828418429 107.399214924805 , -28.0224226224042 55.8750113728028 , -38.2303624029654 19.1118718864092 , -26.3077196996948 0.17028588968532 , -13.2480002457725 -18.7713001070385 , -0.188280791850229 -161.268695202536 , 140.388009439895 -187.980168705286 , 168.115862573618 -214.691642208037 , 195.843715707341 -231.638211318375 , 207.828832916712 -251.353997796713 , 235.787899985095 -271.069784275051 , 263.746967053478 -283.711244964961 , 278.545401063314 -280.654652089144 , 307.14514552764 -277.598059213326 , 335.744889991966 -261.811620085647 , 362.18035027696 -217.804145580454 , 394.646997453997 -173.796671075261 , 427.113644631033 -79.6603806345616 , 460.931229166919 0 , 460.931229166919 79.6603806345616 , 460.931229166919 149.326766704899 , 447.516724093635 206.448700885194 , 416.834353883776 263.57063506549 , 386.151983673917 323.540604812395 , 306.443569906524 320.898200318765 , 244.534285577206 318.255795825135 , 182.625001247888 258.176510845759 , 173.823351514319 233.606009863917 , 170.129004141583 209.035508882075 , 166.434656768847 196.071626157427 , 163.740741675467 139.843098602492 , 179.630765269637 83.6145710475573 , 195.520788863807 -32.1692596817702 , 251.216445712617 -60.783829446323 , 256.42478721383 -89.3983992108758 , 261.633128715043 -106.762292236532 , 258.104838290879 -113.285119285589 , 256.73158399656 -119.807946334647 , 255.358329702242 -160.274317238164 , 246.285195825167 -190.883832701844 , 226.016577916317 -221.493348165525 , 205.747960007467 -245.12431361685 , 177.589989446529 -239.388258009592 , 143.921155483962 -233.652202402333 , 110.252321521395 -201.070397537436 , 89.8849736366766 -167.791130867603 , 98.9199857941946 -134.511864197771 , 107.954997951713 -107.306459199756 , 151.096248236194 -68.7254756367721 , 170.840544886341 -30.1444920737881 , 190.584841536488 -6.18067497410063 , 178.068652196811 4.67565060569667 , 168.710634506242 15.531976185494 , 159.352616815672 29.3975182749611 , 138.891974415459 22.327964599708 , 107.814220165875 15.2584109244549 , 76.7364659162903 -24.304637156697 , 0.456966380187656 -88.9934572188436 , -7.93370561702593 -153.68227728099 , -16.3243776142395 -212.42595892357 , 24.3120530055759 -225.55185368141 , 33.5847466370062 -238.67774843925 , 42.8574402684365 -302.896824354929 , 89.5830143448138 -310.211037054306 , 167.424401393484 -317.525249753683 , 245.265788442154 -269.083056634359 , 264.238367240054 -221.656020935241 , 296.982975681674 -174.228985236124 , 329.727584123295 -129.857976575247 , 329.142736745623 -96.5565385396297 , 332.798564098145 -63.2551005040126 , 336.454391450667 -45.7663728134694 , 336.457905339244 -21.1249847915753 , 331.697550319647 3.51640323031869 , 326.93719530005 14.4887583460551 , 320.73319679518 59.8100761094363 , 289.712703463139 105.131393872818 , 258.692210131099 105.066414722357 , 249.78749899539 135.253343369197 , 235.829857203872 165.440272016036 , 221.872215412353 189.311596170111 , 227.475821449337 214.014493298088 , 241.12779281304 238.717390426066 , 254.779764176743 258.01256093831 , 270.940923587713 256.64568250941 , 302.128342313539 255.27880408051 , 333.315761039366 234.999892523123 , 375.846856720426 127.238355859241 , 406.230652059102 19.4768191953584 , 436.614447397777 -79.4858835295762 , 407.315574049385 -88.7200113415261 , 404.406504047248 -97.9541391534759 , 401.49743404511 -123.831515871749 , 393.431544635967 -143.946660997532 , 368.687940731867 -164.061806123314 , 343.944336827767 -157.455630744447 , 323.364513754893 -152.728862089881 , 287.416708093019 -148.002093435315 , 251.468902431144 -142.996026562193 , 239.634492612991 -130.115151046729 , 206.438764960286 -117.234275531265 , 173.24303730758 -104.331477820826 , 145.554911207688 -47.4168126350178 , 102.341796396412 9.49785255079033 , 59.1286815851366 40.3784554326508 , 55.8685253476274 62.8284531108316 , 56.5088933702283 Z "
       id="path3430"
       inkscape:connector-curvature="0"
       sodipodi:nodetypes="zzzzzzzzzzzzzzzzzzzzzzzzzzzzzzzzzzzzzzzzzzzzzzzzz" />
  </g>
</svg>
