<?xml version="1.0" encoding="UTF-8" standalone="no"?>
<!-- Created with Inkscape (http://www.inkscape.org/) -->

<svg
   xmlns:dc="http://purl.org/dc/elements/1.1/"
   xmlns:cc="http://creativecommons.org/ns#"
   xmlns:rdf="http://www.w3.org/1999/02/22-rdf-syntax-ns#"
   xmlns:svg="http://www.w3.org/2000/svg"
   xmlns="http://www.w3.org/2000/svg"
   xmlns:sodipodi="http://sodipodi.sourceforge.net/DTD/sodipodi-0.dtd"
   xmlns:inkscape="http://www.inkscape.org/namespaces/inkscape"
   width="744.09448819"
   height="1052.3622047"
   id="svg2"
   version="1.1"
   inkscape:version="0.48.4 r9939"
   sodipodi:docname="three_figure_eights.svg">
  <defs
     id="defs4" />
  <sodipodi:namedview
     id="base"
     pagecolor="#ffffff"
     bordercolor="#666666"
     borderopacity="1.0"
     inkscape:pageopacity="0.0"
     inkscape:pageshadow="2"
     inkscape:zoom="0.52748011"
     inkscape:cx="-180.40865"
     inkscape:cy="1045.6839"
     inkscape:document-units="px"
     inkscape:current-layer="layer1"
     showgrid="false"
     inkscape:window-width="1594"
     inkscape:window-height="817"
     inkscape:window-x="0"
     inkscape:window-y="0"
     inkscape:window-maximized="0"
     showguides="true"
     inkscape:guide-bbox="true" />
  <metadata
     id="metadata7">
    <rdf:RDF>
      <cc:Work
         rdf:about="">
        <dc:format>image/svg+xml</dc:format>
        <dc:type
           rdf:resource="http://purl.org/dc/dcmitype/StillImage" />
        <dc:title></dc:title>
      </cc:Work>
    </rdf:RDF>
  </metadata>
  <g
     inkscape:label="Layer 1"
     inkscape:groupmode="layer"
     id="layer1">
    <path
       style="fill:none;stroke:#000000;stroke-width:5;stroke-linecap:butt;stroke-linejoin:miter;stroke-miterlimit:4;stroke-opacity:1;stroke-dasharray:none"
       d="M  -19.0277161569358 , 293.053841738297 C  10.2981667857079 , 285.240853479937 30.525312413563 , 265.393121622619 40.0039543347412 , 254.803553154466 49.4825962559194 , 244.213984686313 91.8636604425459 , 190.346247268675 124.738882408111 , 122.863816131465 157.614104373676 , 55.3813849942563 135.71872588266 , 32.7270132122482 215.680862283848 , -38.6498424645385 295.642998685035 , -110.026698141325 450.280363404442 , -32.8167056552543 365.011058670333 , 66.6760565774975 279.741753936223 , 166.168818810249 137.00096543362 , -10.0118800663298 51.7318762662714 , 66.141651239041 -33.5372129010773 , 142.295182544412 78.1283641639695 , 267.721059250278 168.277757185062 , 221.470195635219 258.427150206154 , 175.21933202016 264.347576276642 , 94.9891742652716 283.500955589572 , 8.27126169659452 302.654334902501 , -78.4466508720826 284.735117482988 , -108.557969813684 263.305929700457 , -130.048435301242 241.876741917927 , -151.538900788801 214.57452910806 , -159.132256819911 200.664372838936 , -162.046217282951 186.754216569811 , -164.960177745992 118.912855428434 , -174.72938726221 44.0337447716939 , -169.458949070837 -30.8453658850458 , -164.188510879464 -39.5169381095342 , -133.899370989764 -141.312176568481 , -167.460184615676 -243.107415027427 , -201.020998241587 -253.560282468188 , -373.545880705909 -124.762370514885 , -349.446877759509 4.03554143841779 , -325.34787481311 -77.1710251938946 , -113.640376375344 31.4144120881243 , -77.8719446515448 139.999849370143 , -42.1035129277457 192.789056356835 , -201.521677747258 107.659937008679 , -256.467910431742 22.5308176605221 , -311.414143116226 -49.9107501400886 , -276.426303617052 -134.587355044186 , -249.65466038603 -219.263959948283 , -222.883017155008 -236.381518383409 , -192.308860182973 -244.278213543522 , -163.005406437055 -252.174908703634 , -133.701952691137 -245.099841521623 , -106.260864802708 -240.668327173677 , -92.7573358715147 -236.236812825731 , -79.2538069403218 -210.776515870979 , -15.6168600064649 -168.772627179805 , 46.5951329393713 -126.76873848863 , 108.807125885207 -96.201787773126 , 101.172357777516 -74.3686857153669 , 206.110027080214 -52.5355836576078 , 311.047696382912 -196.720080936254 , 406.362586361163 -240.248688155448 , 282.770821182012 -283.777295374641 , 159.17905600286 -59.8299402397254 , 123.652256441674 -83.1462883543957 , 11.7302934125039 -106.462636469066 , -100.191669616666 -270.917420520805 , -66.1993815030198 -275.93769419374 , 34.9977147965231 -280.957967866676 , 136.194811096066 -214.436826136553 , 181.437129351781 -148.913600545386 , 241.383398689436 -83.3903749542183 , 301.329668027091 -48.3535990995795 , 300.866829996657 -19.0277161569358 , 293.053841738297 Z "
       id="path3032"
       inkscape:connector-curvature="0"
       sodipodi:nodetypes="zzzzzzzzzzzzzzzzzzzzzzzzz" />
  </g>
</svg>
